<svg width="393" height="93" viewBox="0 0 393 93" fill="none" xmlns="http://www.w3.org/2000/svg">
<path d="M0 0H139V4.5H12.7381V46.7095V68.7027V89.1667H48V93H0V0Z" fill="url(#paint0_linear_6737_2)"/>
<path d="M37.7559 32.3027L59.0605 32.2676L58.8848 44.8008H58.2344C58.2578 43.3242 58.1699 42.0234 57.9707 40.8984C57.7832 39.7617 57.5254 38.7773 57.1973 37.9453C56.8809 37.1133 56.5117 36.416 56.0898 35.8535C55.668 35.2793 55.2344 34.8047 54.7891 34.4297C54.3438 34.0547 53.9043 33.7676 53.4707 33.5684C53.0488 33.3691 52.668 33.2227 52.3281 33.1289C52 33.0352 51.7305 32.9766 51.5195 32.9531C51.3203 32.9297 51.2207 32.918 51.2207 32.918C50.8105 32.918 50.4004 32.9238 49.9902 32.9355C49.5801 32.9473 49.1758 32.9531 48.7773 32.9531V44.6953L49.498 44.6602C50.2832 44.6016 50.998 44.373 51.6426 43.9746C51.9121 43.7988 52.1758 43.582 52.4336 43.3242C52.7031 43.0547 52.9434 42.7266 53.1543 42.3398C53.3652 41.9531 53.541 41.4961 53.6816 40.9688C53.8223 40.4414 53.9043 39.832 53.9277 39.1406V38.7188H54.5605C54.5605 38.7539 54.5605 38.8125 54.5605 38.8945C54.5605 38.9648 54.5547 39.1348 54.543 39.4043C54.543 39.6738 54.5371 40.084 54.5254 40.6348C54.5254 41.1855 54.5137 41.9531 54.4902 42.9375C54.4785 43.9219 54.4609 45.1641 54.4375 46.6641C54.4141 48.1523 54.3848 49.9805 54.3496 52.1484H53.6992C53.6641 51 53.5176 49.9512 53.2598 49.002C53.1543 48.6035 53.0137 48.2051 52.8379 47.8066C52.6738 47.4082 52.4688 47.0449 52.2227 46.7168C51.9766 46.377 51.6836 46.0898 51.3438 45.8555C51.0039 45.6094 50.6172 45.4453 50.1836 45.3633L48.7773 45.3281C48.7773 46.1133 48.7715 46.8984 48.7598 47.6836C48.7598 48.4688 48.7598 49.3008 48.7598 50.1797C48.7598 51.0586 48.7539 52.002 48.7422 53.0098C48.7422 54.0176 48.7422 55.1426 48.7422 56.3848H53.998V57.0352H38.002V56.3848H42.1504L42.291 32.9531H37.7559V32.3027ZM61.7324 32.2676L83.0547 32.2324L82.8613 44.7656H82.2109C82.2344 43.2891 82.1465 41.9883 81.9473 40.8633C81.7598 39.7266 81.502 38.7422 81.1738 37.9102C80.8574 37.0781 80.4883 36.3809 80.0664 35.8184C79.6445 35.2441 79.2109 34.7695 78.7656 34.3945C78.3203 34.0195 77.8809 33.7324 77.4473 33.5332C77.0254 33.334 76.6445 33.1875 76.3047 33.0938C75.9766 33 75.707 32.9414 75.4961 32.918C75.2969 32.8945 75.1973 32.8828 75.1973 32.8828C74.8574 32.8828 74.5059 32.8887 74.1426 32.9004C73.791 32.9121 73.4453 32.918 73.1055 32.918C73.0938 33.0586 73.0762 33.3574 73.0527 33.8145C73.041 34.2715 73.0176 34.957 72.9824 35.8711C72.9473 36.7734 72.9062 37.9453 72.8594 39.3867C72.8125 40.8164 72.7656 42.5742 72.7188 44.6602C72.8242 44.6484 73.0234 44.6309 73.3164 44.6074C73.6211 44.584 73.9609 44.5195 74.3359 44.4141C74.7227 44.2969 75.1211 44.1211 75.5312 43.8867C75.9414 43.6406 76.3164 43.3008 76.6562 42.8672C76.9961 42.4219 77.2715 41.8594 77.4824 41.1797C77.7051 40.5 77.8105 39.668 77.7988 38.6836H78.4316H77.7988H78.4316L78.2559 52.0957H77.6055C77.5703 50.9473 77.4238 49.8984 77.166 48.9492C77.0605 48.5508 76.9199 48.1523 76.7441 47.7539C76.5684 47.3555 76.3574 46.9922 76.1113 46.6641C75.8652 46.3242 75.5723 46.0371 75.2324 45.8027C74.8926 45.5684 74.5 45.4102 74.0547 45.3281L72.7188 45.293L72.5078 56.3848H77.0781C77.3359 56.3613 77.6875 56.2969 78.1328 56.1914C78.5781 56.0859 79.0527 55.9102 79.5566 55.6641C80.0723 55.418 80.5938 55.084 81.1211 54.6621C81.6484 54.2402 82.1289 53.6953 82.5625 53.0273C83.0078 52.3477 83.3711 51.5332 83.6523 50.584C83.9453 49.623 84.1152 48.4863 84.1621 47.1738H84.8125L84.5312 57.0352H61.7676V56.3848H65.916L66.0215 32.918H61.7324V32.2676ZM99.4551 56.3496H102.127L99.6309 50.4082H91.6855L89.3125 56.4551H93.8477V57H84.6191V56.3848H88.6621L95.2012 39.9316L98.6641 31.2305L109.861 56.3496H113.096V57H99.4551V56.3496ZM91.9316 49.7578H99.3496L95.5352 40.7578L91.9316 49.7578ZM115.697 56.4199H119.793L119.898 32.918H119.547V32.9531C118.328 33.0469 117.227 33.4512 116.242 34.166C115.82 34.4707 115.41 34.8574 115.012 35.3262C114.613 35.7949 114.25 36.375 113.922 37.0664C113.605 37.7578 113.342 38.5664 113.131 39.4922C112.92 40.418 112.803 41.4902 112.779 42.709H112.129L112.41 32.0566L134.049 32.707L133.873 44.1152H133.223C133.234 42.6973 133.135 41.4551 132.924 40.3887C132.713 39.3223 132.426 38.4023 132.062 37.6289C131.699 36.8438 131.289 36.1934 130.832 35.6777C130.375 35.1504 129.912 34.7227 129.443 34.3945C128.975 34.0547 128.523 33.8027 128.09 33.6387C127.668 33.4629 127.305 33.3398 127 33.2695C126.977 33.5039 126.953 33.8496 126.93 34.3066C126.906 34.7637 126.877 35.3848 126.842 36.1699C126.818 36.9551 126.789 37.9336 126.754 39.1055C126.719 40.2656 126.678 41.666 126.631 43.3066C126.596 44.9473 126.555 46.8516 126.508 49.0195C126.473 51.1758 126.432 53.6426 126.385 56.4199H130.709V57.0703H115.697V56.4199ZM135.613 32.127L150.291 32.5488V33.1992L147.021 33.0938L146.846 46.4531C146.846 46.9219 146.846 47.5137 146.846 48.2285C146.857 48.9316 146.898 49.6816 146.969 50.4785C147.039 51.2637 147.156 52.0488 147.32 52.834C147.484 53.6191 147.719 54.3281 148.023 54.9609C148.34 55.5938 148.738 56.1094 149.219 56.5078C149.711 56.9062 150.32 57.1055 151.047 57.1055C151.879 57.1055 152.582 56.9004 153.156 56.4902C153.742 56.0801 154.223 55.541 154.598 54.873C154.984 54.1934 155.283 53.4258 155.494 52.5703C155.717 51.7031 155.881 50.8242 155.986 49.9336C156.104 49.043 156.174 48.1699 156.197 47.3145C156.232 46.459 156.256 45.7031 156.268 45.0469L156.391 32.8828L152.576 32.7773V32.127L167.254 32.5488V33.1992L163.475 33.0938C163.451 33.3047 163.422 33.6797 163.387 34.2188C163.352 34.7578 163.311 35.5078 163.264 36.4688C163.229 37.418 163.193 38.6016 163.158 40.0195C163.123 41.4258 163.1 43.1016 163.088 45.0469C163.076 46.1484 162.936 47.2324 162.666 48.2988C162.396 49.3535 162.01 50.3496 161.506 51.2871C161.014 52.2246 160.41 53.0918 159.695 53.8887C158.98 54.6738 158.178 55.3535 157.287 55.9277C156.408 56.502 155.441 56.9473 154.387 57.2637C153.332 57.5918 152.219 57.7559 151.047 57.7559C149.348 57.7559 147.812 57.4219 146.441 56.7539C145.082 56.0859 143.922 55.1777 142.961 54.0293C142.012 52.8809 141.279 51.5391 140.764 50.0039C140.26 48.457 140.02 46.8047 140.043 45.0469L140.184 32.918L135.613 32.7773V32.127ZM182.951 56.4902L185.465 56.4551L179.348 48.2109H179.242C179.148 48.2344 179.066 48.2461 178.996 48.2461C178.926 48.2461 178.85 48.2461 178.768 48.2461L178.627 56.4902H181.65V57.1406H168.08V56.4902H172.264L172.475 33.2695C171.854 33.2695 171.221 33.2754 170.576 33.2871C169.932 33.2988 169.223 33.3047 168.449 33.3047V32.6719C171.039 32.6602 173.166 32.6484 174.83 32.6367C176.494 32.625 177.801 32.6133 178.75 32.6016C179.863 32.5898 180.701 32.584 181.264 32.584C181.861 32.584 182.559 32.6016 183.355 32.6367C184.152 32.6719 184.973 32.7715 185.816 32.9355C186.66 33.0879 187.492 33.3281 188.312 33.6562C189.133 33.9844 189.865 34.4414 190.51 35.0273C191.154 35.6016 191.676 36.3281 192.074 37.207C192.473 38.0859 192.672 39.1523 192.672 40.4062C192.672 41.5312 192.502 42.5098 192.162 43.3418C191.822 44.1738 191.342 44.8828 190.721 45.4688C190.111 46.0547 189.373 46.5352 188.506 46.9102C187.639 47.2734 186.672 47.5547 185.605 47.7539L193.059 56.3145L192.988 56.3496L195.941 56.3145V56.9648L182.951 57.1406V56.4902ZM186.484 40.3711C186.484 39.293 186.396 38.373 186.221 37.6113C186.045 36.8379 185.793 36.1934 185.465 35.6777C185.148 35.1504 184.762 34.7285 184.305 34.4121C183.848 34.0957 183.338 33.8555 182.775 33.6914C182.225 33.5273 181.627 33.4219 180.982 33.375C180.35 33.3164 179.688 33.2812 178.996 33.2695L178.768 47.5605H179.207C180.121 47.4668 180.924 47.291 181.615 47.0332C182.307 46.7754 182.904 46.4707 183.408 46.1191C183.924 45.7676 184.352 45.3809 184.691 44.959C185.043 44.5254 185.336 44.0977 185.57 43.6758C186.109 42.6797 186.414 41.5781 186.484 40.3711ZM196.697 32.2676L218.02 32.2324L217.826 44.7656H217.176C217.199 43.2891 217.111 41.9883 216.912 40.8633C216.725 39.7266 216.467 38.7422 216.139 37.9102C215.822 37.0781 215.453 36.3809 215.031 35.8184C214.609 35.2441 214.176 34.7695 213.73 34.3945C213.285 34.0195 212.846 33.7324 212.412 33.5332C211.99 33.334 211.609 33.1875 211.27 33.0938C210.941 33 210.672 32.9414 210.461 32.918C210.262 32.8945 210.162 32.8828 210.162 32.8828C209.822 32.8828 209.471 32.8887 209.107 32.9004C208.756 32.9121 208.41 32.918 208.07 32.918C208.059 33.0586 208.041 33.3574 208.018 33.8145C208.006 34.2715 207.982 34.957 207.947 35.8711C207.912 36.7734 207.871 37.9453 207.824 39.3867C207.777 40.8164 207.73 42.5742 207.684 44.6602C207.789 44.6484 207.988 44.6309 208.281 44.6074C208.586 44.584 208.926 44.5195 209.301 44.4141C209.688 44.2969 210.086 44.1211 210.496 43.8867C210.906 43.6406 211.281 43.3008 211.621 42.8672C211.961 42.4219 212.236 41.8594 212.447 41.1797C212.67 40.5 212.775 39.668 212.764 38.6836H213.396H212.764H213.396L213.221 52.0957H212.57C212.535 50.9473 212.389 49.8984 212.131 48.9492C212.025 48.5508 211.885 48.1523 211.709 47.7539C211.533 47.3555 211.322 46.9922 211.076 46.6641C210.83 46.3242 210.537 46.0371 210.197 45.8027C209.857 45.5684 209.465 45.4102 209.02 45.3281L207.684 45.293L207.473 56.3848H212.043C212.301 56.3613 212.652 56.2969 213.098 56.1914C213.543 56.0859 214.018 55.9102 214.521 55.6641C215.037 55.418 215.559 55.084 216.086 54.6621C216.613 54.2402 217.094 53.6953 217.527 53.0273C217.973 52.3477 218.336 51.5332 218.617 50.584C218.91 49.623 219.08 48.4863 219.127 47.1738H219.777L219.496 57.0352H196.732V56.3848H200.881L200.986 32.918H196.697V32.2676ZM223.012 32.9531C223.492 32.8711 224.008 32.8008 224.559 32.7422C225.109 32.6719 225.672 32.6133 226.246 32.5664C226.832 32.5078 227.418 32.4609 228.004 32.4258C228.59 32.3789 229.146 32.3438 229.674 32.3203C230.916 32.2617 232.176 32.2207 233.453 32.1973C233.629 32.1738 233.84 32.1621 234.086 32.1621C234.332 32.1621 234.555 32.1621 234.754 32.1621C235.715 32.1621 236.717 32.2441 237.76 32.4082C238.803 32.5605 239.822 32.8242 240.818 33.1992C241.826 33.5742 242.775 34.0723 243.666 34.6934C244.568 35.3027 245.359 36.0645 246.039 36.9785C246.719 37.8926 247.258 38.9707 247.656 40.2129C248.055 41.4551 248.254 42.8848 248.254 44.502C248.254 45.7324 248.102 46.8574 247.797 47.877C247.492 48.8965 247.07 49.8281 246.531 50.6719C246.004 51.5039 245.383 52.2539 244.668 52.9219C243.953 53.5781 243.186 54.1582 242.365 54.6621C241.557 55.1543 240.719 55.582 239.852 55.9453C238.984 56.2969 238.123 56.584 237.268 56.8066C236.424 57.0293 235.609 57.1875 234.824 57.2812C234.039 57.3867 233.33 57.4395 232.697 57.4395C232.592 57.4395 232.48 57.4336 232.363 57.4219C232.258 57.4102 232.152 57.4043 232.047 57.4043C231.801 57.4043 231.373 57.3926 230.764 57.3691C230.166 57.3574 229.451 57.3223 228.619 57.2637C227.799 57.2168 226.896 57.1465 225.912 57.0527C224.939 56.959 223.961 56.8359 222.977 56.6836L223.047 56.0332C223.633 56.127 224.213 56.209 224.787 56.2793C225.361 56.3379 225.924 56.3965 226.475 56.4551V33.1641C225.912 33.2227 225.355 33.2871 224.805 33.3574C224.254 33.4277 223.703 33.5098 223.152 33.6035L223.012 32.9531ZM241.732 44.3965V43.9395C241.732 43.6465 241.721 43.2715 241.697 42.8145C241.674 42.3457 241.615 41.8301 241.521 41.2676C241.439 40.6934 241.311 40.0898 241.135 39.457C240.971 38.8242 240.742 38.2031 240.449 37.5938C240.168 36.9727 239.816 36.3867 239.395 35.8359C238.973 35.2734 238.463 34.7812 237.865 34.3594C237.268 33.9258 236.576 33.5859 235.791 33.3398C235.006 33.082 234.104 32.9531 233.084 32.9531V56.7539C234.174 56.7539 235.129 56.584 235.949 56.2441C236.77 55.8926 237.484 55.4355 238.094 54.873C238.703 54.3105 239.213 53.666 239.623 52.9395C240.045 52.2129 240.391 51.4688 240.66 50.707C240.93 49.9453 241.135 49.2012 241.275 48.4746C241.428 47.7363 241.533 47.0742 241.592 46.4883C241.662 45.9023 241.703 45.4219 241.715 45.0469C241.727 44.6602 241.732 44.4434 241.732 44.3965ZM260.383 32.4785H270.666C271.182 32.4785 271.762 32.4844 272.406 32.4961C273.062 32.5078 273.748 32.543 274.463 32.6016C275.178 32.6484 275.904 32.7246 276.643 32.8301C277.393 32.9238 278.119 33.0586 278.822 33.2344C279.525 33.3984 280.182 33.6094 280.791 33.8672C281.412 34.1133 281.951 34.4121 282.408 34.7637C282.877 35.1152 283.246 35.5312 283.516 36.0117C283.785 36.4805 283.92 37.0195 283.92 37.6289C283.92 38.4609 283.691 39.2051 283.234 39.8613C282.777 40.5176 282.162 41.0918 281.389 41.584C280.627 42.0645 279.742 42.4746 278.734 42.8145C277.727 43.1426 276.672 43.3945 275.57 43.5703C276.742 43.7578 277.773 43.9922 278.664 44.2734C279.555 44.5547 280.328 44.8711 280.984 45.2227C281.652 45.5625 282.209 45.9199 282.654 46.2949C283.111 46.6699 283.486 47.0391 283.779 47.4023C284.471 48.2578 284.863 49.166 284.957 50.127C284.957 51.1934 284.764 52.1133 284.377 52.8867C284.002 53.6602 283.492 54.3164 282.848 54.8555C282.215 55.3828 281.482 55.8105 280.65 56.1387C279.818 56.4668 278.951 56.7246 278.049 56.9121C277.146 57.0879 276.238 57.2051 275.324 57.2637C274.41 57.3223 273.555 57.3516 272.758 57.3516C272.371 57.3516 272.014 57.3516 271.686 57.3516C271.357 57.3633 270.988 57.3633 270.578 57.3516C270.168 57.3516 269.676 57.3457 269.102 57.334C268.539 57.3223 267.83 57.2988 266.975 57.2637C266.131 57.2402 265.105 57.1934 263.898 57.123C262.703 57.0645 261.256 56.9883 259.557 56.8945L259.627 56.4902H264.479V33.1289H260.383V32.4785ZM270.824 43.9043L270.631 56.6836C270.936 56.707 271.264 56.7188 271.615 56.7188C271.979 56.7188 272.359 56.7188 272.758 56.7188C273.707 56.6484 274.539 56.4844 275.254 56.2266C275.98 55.9688 276.584 55.5879 277.064 55.084C277.557 54.5684 277.932 53.9121 278.189 53.1152C278.459 52.3066 278.617 51.3223 278.664 50.1621C278.664 49.0488 278.541 48.0996 278.295 47.3145C278.061 46.5176 277.645 45.8672 277.047 45.3633C276.449 44.8594 275.646 44.4902 274.639 44.2559C273.631 44.0215 272.359 43.9043 270.824 43.9043ZM277.838 37.9277C277.826 37.9395 277.82 37.834 277.82 37.6113C277.82 37.377 277.791 37.084 277.732 36.7324C277.674 36.3809 277.568 36 277.416 35.5898C277.264 35.1797 277.029 34.7988 276.713 34.4473C276.408 34.084 276.004 33.7852 275.5 33.5508C274.996 33.3164 274.369 33.1992 273.619 33.1992C273.115 33.1992 272.635 33.1875 272.178 33.1641C271.732 33.1406 271.328 33.1289 270.965 33.1289L270.824 43.1836C271.059 43.1836 271.287 43.1895 271.51 43.2012C271.744 43.2129 271.967 43.2305 272.178 43.2539C272.857 43.2539 273.514 43.1895 274.146 43.0605C274.791 42.9316 275.371 42.6797 275.887 42.3047C276.414 41.9297 276.848 41.3965 277.188 40.7051C277.539 40.002 277.756 39.0762 277.838 37.9277ZM286.117 32.127L300.795 32.5488V33.1992L297.525 33.0938L297.35 46.4531C297.35 46.9219 297.35 47.5137 297.35 48.2285C297.361 48.9316 297.402 49.6816 297.473 50.4785C297.543 51.2637 297.66 52.0488 297.824 52.834C297.988 53.6191 298.223 54.3281 298.527 54.9609C298.844 55.5938 299.242 56.1094 299.723 56.5078C300.215 56.9062 300.824 57.1055 301.551 57.1055C302.383 57.1055 303.086 56.9004 303.66 56.4902C304.246 56.0801 304.727 55.541 305.102 54.873C305.488 54.1934 305.787 53.4258 305.998 52.5703C306.221 51.7031 306.385 50.8242 306.49 49.9336C306.607 49.043 306.678 48.1699 306.701 47.3145C306.736 46.459 306.76 45.7031 306.771 45.0469L306.895 32.8828L303.08 32.7773V32.127L317.758 32.5488V33.1992L313.979 33.0938C313.955 33.3047 313.926 33.6797 313.891 34.2188C313.855 34.7578 313.814 35.5078 313.768 36.4688C313.732 37.418 313.697 38.6016 313.662 40.0195C313.627 41.4258 313.604 43.1016 313.592 45.0469C313.58 46.1484 313.439 47.2324 313.17 48.2988C312.9 49.3535 312.514 50.3496 312.01 51.2871C311.518 52.2246 310.914 53.0918 310.199 53.8887C309.484 54.6738 308.682 55.3535 307.791 55.9277C306.912 56.502 305.945 56.9473 304.891 57.2637C303.836 57.5918 302.723 57.7559 301.551 57.7559C299.852 57.7559 298.316 57.4219 296.945 56.7539C295.586 56.0859 294.426 55.1777 293.465 54.0293C292.516 52.8809 291.783 51.5391 291.268 50.0039C290.764 48.457 290.523 46.8047 290.547 45.0469L290.688 32.918L286.117 32.7773V32.127ZM330.361 42.9902C332.178 43.1895 333.719 43.5234 334.984 43.9922C336.25 44.4609 337.275 45.0234 338.061 45.6797C338.857 46.3242 339.432 47.0449 339.783 47.8418C340.146 48.627 340.328 49.4473 340.328 50.3027C340.328 51.2871 340.17 52.1543 339.854 52.9043C339.537 53.6543 339.115 54.3164 338.588 54.8906C338.072 55.4531 337.475 55.9277 336.795 56.3145C336.127 56.7012 335.436 57.0117 334.721 57.2461C334.018 57.4922 333.32 57.668 332.629 57.7734C331.938 57.8906 331.316 57.9551 330.766 57.9668H330.326C329.74 57.9551 329.066 57.9023 328.305 57.8086C327.555 57.7266 326.781 57.5918 325.984 57.4043C325.199 57.2168 324.426 56.9766 323.664 56.6836C322.902 56.3789 322.223 56.0039 321.625 55.5586C321.027 55.1133 320.547 54.5859 320.184 53.9766C319.82 53.3672 319.639 52.6582 319.639 51.8496C319.639 51.416 319.709 51.0352 319.85 50.707C319.99 50.3789 320.184 50.1035 320.43 49.8809C320.676 49.6465 320.957 49.4648 321.273 49.3359C321.602 49.207 321.953 49.1309 322.328 49.1074C322.785 49.1074 323.207 49.207 323.594 49.4062C323.992 49.5938 324.338 49.8633 324.631 50.2148C324.924 50.5547 325.158 50.9707 325.334 51.4629C325.521 51.9434 325.627 52.4824 325.65 53.0801C325.674 53.5605 325.785 54.0527 325.984 54.5566C326.184 55.0605 326.477 55.5176 326.863 55.9277C327.25 56.3379 327.73 56.6719 328.305 56.9297C328.879 57.1875 329.553 57.3164 330.326 57.3164C330.936 57.3164 331.486 57.1934 331.979 56.9473C332.482 56.7012 332.91 56.373 333.262 55.9629C333.613 55.5527 333.883 55.0781 334.07 54.5391C334.258 53.9883 334.352 53.4141 334.352 52.8164C334.352 52.2773 334.258 51.7441 334.07 51.2168C333.883 50.6895 333.59 50.2207 333.191 49.8105C332.793 49.3887 332.283 49.043 331.662 48.7734C331.041 48.5039 330.297 48.3516 329.43 48.3164C327.66 48.2344 326.148 47.9707 324.895 47.5254C323.652 47.0801 322.633 46.5059 321.836 45.8027C321.039 45.0879 320.453 44.2734 320.078 43.3594C319.715 42.4453 319.533 41.4844 319.533 40.4766C319.533 39.3867 319.697 38.4316 320.025 37.6113C320.354 36.7793 320.787 36.0645 321.326 35.4668C321.877 34.8574 322.504 34.3535 323.207 33.9551C323.91 33.5449 324.637 33.2168 325.387 32.9707C326.148 32.7246 326.898 32.5547 327.637 32.4609C328.387 32.3555 329.078 32.3027 329.711 32.3027H329.922C330.508 32.3145 331.158 32.3672 331.873 32.4609C332.6 32.543 333.332 32.6777 334.07 32.8652C334.82 33.0527 335.541 33.2988 336.232 33.6035C336.936 33.9082 337.557 34.2832 338.096 34.7285C338.646 35.1738 339.086 35.7012 339.414 36.3105C339.742 36.9082 339.906 37.5996 339.906 38.3848C339.906 38.8418 339.83 39.2402 339.678 39.5801C339.525 39.9199 339.32 40.207 339.062 40.4414C338.816 40.6641 338.523 40.834 338.184 40.9512C337.844 41.0684 337.492 41.127 337.129 41.127C336.684 41.127 336.268 41.0273 335.881 40.8281C335.494 40.6289 335.154 40.3535 334.861 40.002C334.58 39.6504 334.352 39.2344 334.176 38.7539C334.012 38.2617 333.93 37.7227 333.93 37.1367C333.93 36.6328 333.865 36.1348 333.736 35.6426C333.607 35.1504 333.385 34.7109 333.068 34.3242C332.764 33.9258 332.354 33.6035 331.838 33.3574C331.322 33.1113 330.684 32.9766 329.922 32.9531H329.746C329.172 32.9766 328.639 33.1465 328.146 33.4629C327.666 33.7676 327.25 34.1719 326.898 34.6758C326.547 35.1797 326.271 35.748 326.072 36.3809C325.885 37.002 325.791 37.6348 325.791 38.2793C325.791 38.8418 325.873 39.3867 326.037 39.9141C326.213 40.4414 326.482 40.9219 326.846 41.3555C327.221 41.7773 327.695 42.1348 328.27 42.4277C328.844 42.7207 329.541 42.9082 330.361 42.9902ZM342.807 32.2676L364.129 32.2324L363.936 44.7656H363.285C363.309 43.2891 363.221 41.9883 363.021 40.8633C362.834 39.7266 362.576 38.7422 362.248 37.9102C361.932 37.0781 361.562 36.3809 361.141 35.8184C360.719 35.2441 360.285 34.7695 359.84 34.3945C359.395 34.0195 358.955 33.7324 358.521 33.5332C358.1 33.334 357.719 33.1875 357.379 33.0938C357.051 33 356.781 32.9414 356.57 32.918C356.371 32.8945 356.271 32.8828 356.271 32.8828C355.932 32.8828 355.58 32.8887 355.217 32.9004C354.865 32.9121 354.52 32.918 354.18 32.918C354.168 33.0586 354.15 33.3574 354.127 33.8145C354.115 34.2715 354.092 34.957 354.057 35.8711C354.021 36.7734 353.98 37.9453 353.934 39.3867C353.887 40.8164 353.84 42.5742 353.793 44.6602C353.898 44.6484 354.098 44.6309 354.391 44.6074C354.695 44.584 355.035 44.5195 355.41 44.4141C355.797 44.2969 356.195 44.1211 356.605 43.8867C357.016 43.6406 357.391 43.3008 357.73 42.8672C358.07 42.4219 358.346 41.8594 358.557 41.1797C358.779 40.5 358.885 39.668 358.873 38.6836H359.506H358.873H359.506L359.33 52.0957H358.68C358.645 50.9473 358.498 49.8984 358.24 48.9492C358.135 48.5508 357.994 48.1523 357.818 47.7539C357.643 47.3555 357.432 46.9922 357.186 46.6641C356.939 46.3242 356.646 46.0371 356.307 45.8027C355.967 45.5684 355.574 45.4102 355.129 45.3281L353.793 45.293L353.582 56.3848H358.152C358.41 56.3613 358.762 56.2969 359.207 56.1914C359.652 56.0859 360.127 55.9102 360.631 55.6641C361.146 55.418 361.668 55.084 362.195 54.6621C362.723 54.2402 363.203 53.6953 363.637 53.0273C364.082 52.3477 364.445 51.5332 364.727 50.584C365.02 49.623 365.189 48.4863 365.236 47.1738H365.887L365.605 57.0352H342.842V56.3848H346.99L347.096 32.918H342.807V32.2676ZM380.424 42.9902C382.24 43.1895 383.781 43.5234 385.047 43.9922C386.312 44.4609 387.338 45.0234 388.123 45.6797C388.92 46.3242 389.494 47.0449 389.846 47.8418C390.209 48.627 390.391 49.4473 390.391 50.3027C390.391 51.2871 390.232 52.1543 389.916 52.9043C389.6 53.6543 389.178 54.3164 388.65 54.8906C388.135 55.4531 387.537 55.9277 386.857 56.3145C386.189 56.7012 385.498 57.0117 384.783 57.2461C384.08 57.4922 383.383 57.668 382.691 57.7734C382 57.8906 381.379 57.9551 380.828 57.9668H380.389C379.803 57.9551 379.129 57.9023 378.367 57.8086C377.617 57.7266 376.844 57.5918 376.047 57.4043C375.262 57.2168 374.488 56.9766 373.727 56.6836C372.965 56.3789 372.285 56.0039 371.688 55.5586C371.09 55.1133 370.609 54.5859 370.246 53.9766C369.883 53.3672 369.701 52.6582 369.701 51.8496C369.701 51.416 369.771 51.0352 369.912 50.707C370.053 50.3789 370.246 50.1035 370.492 49.8809C370.738 49.6465 371.02 49.4648 371.336 49.3359C371.664 49.207 372.016 49.1309 372.391 49.1074C372.848 49.1074 373.27 49.207 373.656 49.4062C374.055 49.5938 374.4 49.8633 374.693 50.2148C374.986 50.5547 375.221 50.9707 375.396 51.4629C375.584 51.9434 375.689 52.4824 375.713 53.0801C375.736 53.5605 375.848 54.0527 376.047 54.5566C376.246 55.0605 376.539 55.5176 376.926 55.9277C377.312 56.3379 377.793 56.6719 378.367 56.9297C378.941 57.1875 379.615 57.3164 380.389 57.3164C380.998 57.3164 381.549 57.1934 382.041 56.9473C382.545 56.7012 382.973 56.373 383.324 55.9629C383.676 55.5527 383.945 55.0781 384.133 54.5391C384.32 53.9883 384.414 53.4141 384.414 52.8164C384.414 52.2773 384.32 51.7441 384.133 51.2168C383.945 50.6895 383.652 50.2207 383.254 49.8105C382.855 49.3887 382.346 49.043 381.725 48.7734C381.104 48.5039 380.359 48.3516 379.492 48.3164C377.723 48.2344 376.211 47.9707 374.957 47.5254C373.715 47.0801 372.695 46.5059 371.898 45.8027C371.102 45.0879 370.516 44.2734 370.141 43.3594C369.777 42.4453 369.596 41.4844 369.596 40.4766C369.596 39.3867 369.76 38.4316 370.088 37.6113C370.416 36.7793 370.85 36.0645 371.389 35.4668C371.939 34.8574 372.566 34.3535 373.27 33.9551C373.973 33.5449 374.699 33.2168 375.449 32.9707C376.211 32.7246 376.961 32.5547 377.699 32.4609C378.449 32.3555 379.141 32.3027 379.773 32.3027H379.984C380.57 32.3145 381.221 32.3672 381.936 32.4609C382.662 32.543 383.395 32.6777 384.133 32.8652C384.883 33.0527 385.604 33.2988 386.295 33.6035C386.998 33.9082 387.619 34.2832 388.158 34.7285C388.709 35.1738 389.148 35.7012 389.477 36.3105C389.805 36.9082 389.969 37.5996 389.969 38.3848C389.969 38.8418 389.893 39.2402 389.74 39.5801C389.588 39.9199 389.383 40.207 389.125 40.4414C388.879 40.6641 388.586 40.834 388.246 40.9512C387.906 41.0684 387.555 41.127 387.191 41.127C386.746 41.127 386.33 41.0273 385.943 40.8281C385.557 40.6289 385.217 40.3535 384.924 40.002C384.643 39.6504 384.414 39.2344 384.238 38.7539C384.074 38.2617 383.992 37.7227 383.992 37.1367C383.992 36.6328 383.928 36.1348 383.799 35.6426C383.67 35.1504 383.447 34.7109 383.131 34.3242C382.826 33.9258 382.416 33.6035 381.9 33.3574C381.385 33.1113 380.746 32.9766 379.984 32.9531H379.809C379.234 32.9766 378.701 33.1465 378.209 33.4629C377.729 33.7676 377.312 34.1719 376.961 34.6758C376.609 35.1797 376.334 35.748 376.135 36.3809C375.947 37.002 375.854 37.6348 375.854 38.2793C375.854 38.8418 375.936 39.3867 376.1 39.9141C376.275 40.4414 376.545 40.9219 376.908 41.3555C377.283 41.7773 377.758 42.1348 378.332 42.4277C378.906 42.7207 379.604 42.9082 380.424 42.9902Z" fill="black"/>
<defs>
<linearGradient id="paint0_linear_6737_2" x1="91.205" y1="84.4122" x2="92.411" y2="-44.4609" gradientUnits="userSpaceOnUse">
<stop offset="0.102848" stop-color="#F0C74B"/>
<stop offset="0.376053" stop-color="#A00A0A"/>
<stop offset="1" stop-color="#990303"/>
</linearGradient>
</defs>
</svg>
