<svg width="172" height="67" viewBox="0 0 172 67" fill="none" xmlns="http://www.w3.org/2000/svg">
<path d="M32.656 42L28.36 26.4H30.28L33.832 39.912L37.648 26.4H39.256L43.144 39.888L46.6 26.4H47.944L43.744 42H42.064L38.176 28.704L34.336 42H32.656ZM50.1198 24.048L51.8717 23.952V31.08H51.8958C51.8958 31.08 51.9918 30.976 52.1838 30.768C52.3918 30.544 52.7918 30.32 53.3838 30.096C53.9758 29.872 54.6238 29.76 55.3278 29.76C56.4958 29.76 57.3918 30.088 58.0158 30.744C58.6558 31.384 58.9758 32.344 58.9758 33.624V42H57.2478V33.84C57.2478 31.968 56.4158 31.032 54.7518 31.032C54.1758 31.032 53.6718 31.12 53.2398 31.296C52.8078 31.472 52.4718 31.664 52.2318 31.872C51.9918 32.08 51.8717 32.2 51.8717 32.232V42H50.1198V24.048ZM62.449 48.24C62.161 48.24 61.913 48.216 61.705 48.168C61.497 48.12 61.337 48.072 61.225 48.024C61.113 47.976 61.041 47.944 61.009 47.928L61.201 46.824C61.249 46.856 61.369 46.896 61.561 46.944C61.753 47.008 61.961 47.04 62.185 47.04C62.921 47.04 63.537 46.64 64.033 45.84C64.529 45.056 65.081 43.824 65.689 42.144L60.985 30H63.049L66.601 40.032L69.817 30H71.089L66.937 42.192C66.249 44.16 65.569 45.656 64.897 46.68C64.241 47.72 63.425 48.24 62.449 48.24ZM83.0798 42.24C81.4158 42.24 80.1358 41.728 79.2398 40.704C78.3438 39.68 77.8958 38.152 77.8958 36.12C77.8958 34.072 78.3358 32.504 79.2158 31.416C80.1118 30.312 81.4158 29.76 83.1278 29.76C83.6878 29.76 84.2158 29.84 84.7118 30C85.2078 30.144 85.6238 30.312 85.9598 30.504C86.3118 30.68 86.4878 30.776 86.4878 30.792L86.2718 31.776C86.2078 31.728 86.0318 31.632 85.7438 31.488C85.4718 31.328 85.1118 31.176 84.6638 31.032C84.2318 30.888 83.7838 30.816 83.3198 30.816C82.0878 30.816 81.1838 31.224 80.6078 32.04C80.0318 32.856 79.7438 34.208 79.7438 36.096C79.7438 37.92 80.0478 39.224 80.6558 40.008C81.2638 40.792 82.1198 41.184 83.2238 41.184C83.8478 41.184 84.3758 41.072 84.8078 40.848C85.2558 40.624 85.5998 40.392 85.8398 40.152C86.0798 39.896 86.1998 39.744 86.1998 39.696L86.9678 40.2C86.9678 40.264 86.8238 40.472 86.5358 40.824C86.2478 41.16 85.8158 41.48 85.2398 41.784C84.6638 42.088 83.9438 42.24 83.0798 42.24ZM88.9323 24.048L90.6842 23.952V31.08H90.7083C90.7083 31.08 90.8043 30.976 90.9963 30.768C91.2043 30.544 91.6043 30.32 92.1963 30.096C92.7883 29.872 93.4363 29.76 94.1403 29.76C95.3083 29.76 96.2043 30.088 96.8283 30.744C97.4683 31.384 97.7883 32.344 97.7883 33.624V42H96.0603V33.84C96.0603 31.968 95.2283 31.032 93.5643 31.032C92.9883 31.032 92.4843 31.12 92.0523 31.296C91.6203 31.472 91.2843 31.664 91.0443 31.872C90.8043 32.08 90.6842 32.2 90.6842 32.232V42H88.9323V24.048ZM105.438 42.24C103.774 42.24 102.502 41.696 101.622 40.608C100.758 39.52 100.326 37.984 100.326 36C100.326 34.016 100.758 32.48 101.622 31.392C102.502 30.304 103.774 29.76 105.438 29.76C107.102 29.76 108.366 30.304 109.23 31.392C110.11 32.48 110.55 34.016 110.55 36C110.55 37.968 110.102 39.504 109.206 40.608C108.326 41.696 107.07 42.24 105.438 42.24ZM105.438 41.184C106.558 41.184 107.382 40.76 107.91 39.912C108.438 39.048 108.702 37.744 108.702 36C108.702 34.272 108.438 32.976 107.91 32.112C107.382 31.248 106.558 30.816 105.438 30.816C104.318 30.816 103.494 31.248 102.965 32.112C102.438 32.96 102.174 34.256 102.174 36C102.174 37.744 102.438 39.048 102.965 39.912C103.494 40.76 104.318 41.184 105.438 41.184ZM117.461 42.24C115.797 42.24 114.525 41.696 113.645 40.608C112.781 39.52 112.349 37.984 112.349 36C112.349 34.016 112.781 32.48 113.645 31.392C114.525 30.304 115.797 29.76 117.461 29.76C119.125 29.76 120.389 30.304 121.253 31.392C122.133 32.48 122.573 34.016 122.573 36C122.573 37.968 122.125 39.504 121.229 40.608C120.349 41.696 119.093 42.24 117.461 42.24ZM117.461 41.184C118.581 41.184 119.405 40.76 119.933 39.912C120.461 39.048 120.725 37.744 120.725 36C120.725 34.272 120.461 32.976 119.933 32.112C119.405 31.248 118.581 30.816 117.461 30.816C116.341 30.816 115.517 31.248 114.989 32.112C114.461 32.96 114.197 34.256 114.197 36C114.197 37.744 114.461 39.048 114.989 39.912C115.517 40.76 116.341 41.184 117.461 41.184ZM128.26 42.24C127.412 42.24 126.692 42.112 126.1 41.856C125.524 41.584 125.084 41.296 124.78 40.992C124.492 40.688 124.348 40.512 124.348 40.464L124.948 39.624C124.948 39.656 125.076 39.808 125.332 40.08C125.588 40.352 125.94 40.608 126.388 40.848C126.836 41.072 127.364 41.184 127.972 41.184C128.868 41.184 129.54 40.96 129.988 40.512C130.452 40.064 130.684 39.52 130.684 38.88C130.684 38.416 130.564 38.032 130.324 37.728C130.1 37.424 129.812 37.192 129.46 37.032C129.124 36.856 128.652 36.664 128.044 36.456C127.34 36.2 126.78 35.968 126.364 35.76C125.948 35.536 125.588 35.208 125.284 34.776C124.996 34.344 124.852 33.784 124.852 33.096C124.852 32.072 125.22 31.264 125.956 30.672C126.708 30.064 127.668 29.76 128.836 29.76C129.348 29.76 129.836 29.832 130.3 29.976C130.78 30.104 131.164 30.248 131.452 30.408C131.74 30.552 131.924 30.648 132.004 30.696L131.716 31.728C131.652 31.68 131.492 31.584 131.236 31.44C130.98 31.28 130.644 31.128 130.228 30.984C129.828 30.84 129.412 30.768 128.98 30.768C128.244 30.768 127.644 30.952 127.18 31.32C126.732 31.688 126.508 32.152 126.508 32.712C126.508 33.176 126.628 33.568 126.868 33.888C127.108 34.192 127.404 34.432 127.756 34.608C128.124 34.784 128.612 34.984 129.22 35.208C129.924 35.448 130.492 35.688 130.924 35.928C131.372 36.152 131.748 36.48 132.052 36.912C132.356 37.344 132.508 37.904 132.508 38.592C132.508 39.632 132.148 40.504 131.428 41.208C130.708 41.896 129.652 42.24 128.26 42.24ZM139.305 42.24C137.705 42.24 136.449 41.744 135.537 40.752C134.625 39.744 134.169 38.24 134.169 36.24C134.169 34.224 134.609 32.64 135.489 31.488C136.369 30.336 137.569 29.76 139.089 29.76C140.465 29.76 141.521 30.24 142.257 31.2C143.009 32.144 143.385 33.488 143.385 35.232C143.385 35.536 143.369 35.784 143.337 35.976C143.305 36.168 143.281 36.288 143.265 36.336H135.993C135.993 39.568 137.161 41.184 139.497 41.184C140.137 41.184 140.681 41.072 141.129 40.848C141.593 40.608 141.953 40.36 142.209 40.104C142.465 39.832 142.593 39.672 142.593 39.624L143.289 40.2C143.289 40.264 143.137 40.472 142.833 40.824C142.529 41.16 142.081 41.48 141.489 41.784C140.897 42.088 140.169 42.24 139.305 42.24ZM141.753 35.328L141.777 34.872C141.777 32.152 140.881 30.792 139.089 30.792C138.145 30.792 137.417 31.168 136.905 31.92C136.393 32.656 136.097 33.792 136.017 35.328H141.753ZM155.062 42.24C153.894 42.24 152.99 41.92 152.35 41.28C151.71 40.624 151.39 39.656 151.39 38.376V30H153.142V38.016C153.142 39.984 153.974 40.968 155.638 40.968C156.214 40.968 156.71 40.88 157.126 40.704C157.542 40.512 157.87 40.312 158.11 40.104C158.366 39.896 158.494 39.776 158.494 39.744V30H160.246V42H158.782L158.542 40.848C158.334 41.136 157.95 41.44 157.39 41.76C156.83 42.08 156.054 42.24 155.062 42.24ZM166.815 42.24C165.967 42.24 165.247 42.112 164.655 41.856C164.079 41.584 163.639 41.296 163.335 40.992C163.047 40.688 162.903 40.512 162.903 40.464L163.503 39.624C163.503 39.656 163.631 39.808 163.887 40.08C164.143 40.352 164.495 40.608 164.943 40.848C165.391 41.072 165.919 41.184 166.527 41.184C167.423 41.184 168.095 40.96 168.543 40.512C169.007 40.064 169.239 39.52 169.239 38.88C169.239 38.416 169.119 38.032 168.879 37.728C168.655 37.424 168.367 37.192 168.015 37.032C167.679 36.856 167.207 36.664 166.599 36.456C165.895 36.2 165.335 35.968 164.919 35.76C164.503 35.536 164.143 35.208 163.839 34.776C163.551 34.344 163.407 33.784 163.407 33.096C163.407 32.072 163.775 31.264 164.511 30.672C165.263 30.064 166.223 29.76 167.391 29.76C167.903 29.76 168.391 29.832 168.855 29.976C169.335 30.104 169.719 30.248 170.007 30.408C170.295 30.552 170.479 30.648 170.559 30.696L170.271 31.728C170.207 31.68 170.047 31.584 169.791 31.44C169.535 31.28 169.199 31.128 168.783 30.984C168.383 30.84 167.967 30.768 167.535 30.768C166.799 30.768 166.199 30.952 165.735 31.32C165.287 31.688 165.063 32.152 165.063 32.712C165.063 33.176 165.183 33.568 165.423 33.888C165.663 34.192 165.959 34.432 166.311 34.608C166.679 34.784 167.167 34.984 167.775 35.208C168.479 35.448 169.047 35.688 169.479 35.928C169.927 36.152 170.303 36.48 170.607 36.912C170.911 37.344 171.063 37.904 171.063 38.592C171.063 39.632 170.703 40.504 169.983 41.208C169.263 41.896 168.207 42.24 166.815 42.24Z" fill="black"/>
<path d="M0 0H100V3.24194H9.16412V33.6509V49.4955V64.2383H34.5324V67H0V0Z" fill="url(#paint0_linear_6701_4)"/>
<defs>
<linearGradient id="paint0_linear_6701_4" x1="65.6151" y1="60.8131" x2="66.4852" y2="-32.0309" gradientUnits="userSpaceOnUse">
<stop offset="0.102848" stop-color="#F0C74B"/>
<stop offset="0.376053" stop-color="#A00A0A"/>
<stop offset="1" stop-color="#990303"/>
</linearGradient>
</defs>
</svg>
