<svg width="284" height="93" viewBox="0 0 284 93" fill="none" xmlns="http://www.w3.org/2000/svg">
<path d="M51.0098 56.8945C51.3496 56.8945 51.7539 56.8887 52.2227 56.877C52.6914 56.8652 53.1953 56.8008 53.7344 56.6836C54.2734 56.5664 54.8359 56.3789 55.4219 56.1211C56.0078 55.8633 56.5879 55.4941 57.1621 55.0137C57.748 54.5215 58.3164 53.8945 58.8672 53.1328C59.418 52.3711 59.9277 51.4277 60.3965 50.3027L60.9766 50.5137C60.4961 51.6621 59.9746 52.6348 59.4121 53.4316C58.8613 54.2168 58.2871 54.873 57.6895 55.4004C57.1035 55.916 56.5117 56.3203 55.9141 56.6133C55.3164 56.9062 54.7363 57.1172 54.1738 57.2461C53.6113 57.3867 53.0781 57.4688 52.5742 57.4922C52.082 57.5273 51.6426 57.5449 51.2559 57.5449C50.9043 57.5449 50.4531 57.5273 49.9023 57.4922C49.3633 57.4688 48.7656 57.3984 48.1094 57.2812C47.4531 57.1641 46.7617 56.9883 46.0352 56.7539C45.3203 56.5195 44.6113 56.2031 43.9082 55.8047C43.2051 55.3945 42.5371 54.8906 41.9043 54.293C41.2715 53.6836 40.7148 52.9512 40.2344 52.0957C39.7539 51.2285 39.3672 50.2207 39.0742 49.0723C38.793 47.9238 38.6523 46.6055 38.6523 45.1172C38.6523 43.2305 38.8691 41.5957 39.3027 40.2129C39.7363 38.8184 40.3105 37.6348 41.0254 36.6621C41.752 35.6777 42.5781 34.875 43.5039 34.2539C44.4297 33.6211 45.3789 33.1289 46.3516 32.7773C47.3242 32.4141 48.2852 32.1621 49.2344 32.0215C50.1836 31.8809 51.0391 31.8047 51.8008 31.793H52.0469C53.5 31.793 54.8184 31.9922 56.002 32.3906C57.1973 32.7773 58.2168 33.2988 59.0605 33.9551C59.916 34.6113 60.5723 35.3613 61.0293 36.2051C61.498 37.0488 61.7324 37.9219 61.7324 38.8242C61.7324 39.2578 61.6504 39.6621 61.4863 40.0371C61.3223 40.4004 61.1055 40.7168 60.8359 40.9863C60.5781 41.2559 60.2734 41.4668 59.9219 41.6191C59.5703 41.7715 59.2129 41.8477 58.8496 41.8477C58.4746 41.8359 58.0938 41.7422 57.707 41.5664C57.332 41.3906 56.9863 41.1445 56.6699 40.8281C56.3535 40.5117 56.0781 40.125 55.8438 39.668C55.6211 39.2109 55.4746 38.7012 55.4043 38.1387L55.2812 37.3125C55.2109 36.7852 55.1172 36.2402 55 35.6777C54.8828 35.1035 54.7012 34.5762 54.4551 34.0957C54.2207 33.6152 53.9102 33.2227 53.5234 32.918C53.1367 32.6016 52.6445 32.4434 52.0469 32.4434H51.8359C51.3438 32.4785 50.8398 32.6016 50.3242 32.8125C49.8086 33.0117 49.3047 33.3281 48.8125 33.7617C48.332 34.1836 47.8691 34.7285 47.4238 35.3965C46.9902 36.0527 46.6094 36.8496 46.2812 37.7871C45.9531 38.7129 45.6895 39.7969 45.4902 41.0391C45.3027 42.2695 45.209 43.6641 45.209 45.2227C45.209 46.793 45.291 48.1699 45.4551 49.3535C45.6309 50.5254 45.8594 51.5449 46.1406 52.4121C46.4336 53.2676 46.7676 53.9824 47.1426 54.5566C47.5293 55.1191 47.9277 55.5703 48.3379 55.9102C48.7598 56.25 49.1816 56.4961 49.6035 56.6484C50.0254 56.8008 50.4297 56.8828 50.8164 56.8945H51.0098ZM89.4883 45.0469C89.4883 46.2188 89.3359 47.3438 89.0312 48.4219C88.7266 49.5 88.2988 50.5137 87.748 51.4629C87.1973 52.4004 86.5352 53.2559 85.7617 54.0293C84.9883 54.8027 84.127 55.4648 83.1777 56.0156C82.2402 56.5664 81.2324 56.9941 80.1543 57.2988C79.0762 57.6035 77.9512 57.7559 76.7793 57.7559C75.6074 57.7559 74.4766 57.6035 73.3867 57.2988C72.2969 56.9941 71.2773 56.5664 70.3281 56.0156C69.3906 55.4648 68.5352 54.8027 67.7617 54.0293C66.9883 53.2559 66.3262 52.4004 65.7754 51.4629C65.2246 50.5137 64.7969 49.5 64.4922 48.4219C64.1875 47.3438 64.0352 46.2188 64.0352 45.0469C64.0352 43.8867 64.1875 42.7734 64.4922 41.707C64.7969 40.6289 65.2246 39.6211 65.7754 38.6836C66.3262 37.7344 66.9883 36.873 67.7617 36.0996C68.5352 35.3262 69.3906 34.6641 70.3281 34.1133C71.2773 33.5625 72.2969 33.1348 73.3867 32.8301C74.4766 32.5254 75.6074 32.373 76.7793 32.373C77.9512 32.373 79.0762 32.5254 80.1543 32.8301C81.2324 33.1348 82.2402 33.5625 83.1777 34.1133C84.127 34.6641 84.9883 35.3262 85.7617 36.0996C86.5352 36.873 87.1973 37.7344 87.748 38.6836C88.2988 39.6211 88.7266 40.6289 89.0312 41.707C89.3359 42.7734 89.4883 43.8867 89.4883 45.0469ZM82.7207 45.0469C82.7207 43.0078 82.5742 41.2383 82.2812 39.7383C82 38.2266 81.5957 36.9785 81.0684 35.9941C80.5527 34.998 79.9258 34.2539 79.1875 33.7617C78.4609 33.2695 77.6582 33.0234 76.7793 33.0234C75.877 33.0234 75.0566 33.293 74.3184 33.832C73.5918 34.3711 72.9707 35.1562 72.4551 36.1875C71.9395 37.2188 71.541 38.4785 71.2598 39.9668C70.9785 41.4551 70.8379 43.1484 70.8379 45.0469C70.8379 46.8867 70.9785 48.5508 71.2598 50.0391C71.541 51.5156 71.9395 52.7812 72.4551 53.8359C72.9707 54.8789 73.5918 55.6875 74.3184 56.2617C75.0566 56.8242 75.877 57.1055 76.7793 57.1055C77.6582 57.1055 78.4609 56.8594 79.1875 56.3672C79.9258 55.875 80.5527 55.1309 81.0684 54.1348C81.5957 53.1387 82 51.8848 82.2812 50.373C82.5742 48.8613 82.7207 47.0859 82.7207 45.0469ZM92.0195 32.3027L100.545 32.1973L113.588 47.4199V33.0938L109.65 32.9531V32.3027L118.264 32.584V33.2344L114.221 33.0938L114.256 58.1953L96.5547 38.3496L96.1152 56.4199L100 56.3145V56.9648L91.4395 57.1758V56.5254L95.4648 56.4199L96.0449 32.918L92.0195 32.9531V32.3027ZM123.994 56.4199H128.09L128.195 32.918H127.844V32.9531C126.625 33.0469 125.523 33.4512 124.539 34.166C124.117 34.4707 123.707 34.8574 123.309 35.3262C122.91 35.7949 122.547 36.375 122.219 37.0664C121.902 37.7578 121.639 38.5664 121.428 39.4922C121.217 40.418 121.1 41.4902 121.076 42.709H120.426L120.707 32.0566L142.346 32.707L142.17 44.1152H141.52C141.531 42.6973 141.432 41.4551 141.221 40.3887C141.01 39.3223 140.723 38.4023 140.359 37.6289C139.996 36.8438 139.586 36.1934 139.129 35.6777C138.672 35.1504 138.209 34.7227 137.74 34.3945C137.271 34.0547 136.82 33.8027 136.387 33.6387C135.965 33.4629 135.602 33.3398 135.297 33.2695C135.273 33.5039 135.25 33.8496 135.227 34.3066C135.203 34.7637 135.174 35.3848 135.139 36.1699C135.115 36.9551 135.086 37.9336 135.051 39.1055C135.016 40.2656 134.975 41.666 134.928 43.3066C134.893 44.9473 134.852 46.8516 134.805 49.0195C134.77 51.1758 134.729 53.6426 134.682 56.4199H139.006V57.0703H123.994V56.4199ZM156.127 56.3496H158.799L156.303 50.4082H148.357L145.984 56.4551H150.52V57H141.291V56.3848H145.334L151.873 39.9316L155.336 31.2305L166.533 56.3496H169.768V57H156.127V56.3496ZM148.604 49.7578H156.021L152.207 40.7578L148.604 49.7578ZM181.721 56.8945C182.061 56.8945 182.465 56.8887 182.934 56.877C183.402 56.8652 183.906 56.8008 184.445 56.6836C184.984 56.5664 185.547 56.3789 186.133 56.1211C186.719 55.8633 187.299 55.4941 187.873 55.0137C188.459 54.5215 189.027 53.8945 189.578 53.1328C190.129 52.3711 190.639 51.4277 191.107 50.3027L191.688 50.5137C191.207 51.6621 190.686 52.6348 190.123 53.4316C189.572 54.2168 188.998 54.873 188.4 55.4004C187.814 55.916 187.223 56.3203 186.625 56.6133C186.027 56.9062 185.447 57.1172 184.885 57.2461C184.322 57.3867 183.789 57.4688 183.285 57.4922C182.793 57.5273 182.354 57.5449 181.967 57.5449C181.615 57.5449 181.164 57.5273 180.613 57.4922C180.074 57.4688 179.477 57.3984 178.82 57.2812C178.164 57.1641 177.473 56.9883 176.746 56.7539C176.031 56.5195 175.322 56.2031 174.619 55.8047C173.916 55.3945 173.248 54.8906 172.615 54.293C171.982 53.6836 171.426 52.9512 170.945 52.0957C170.465 51.2285 170.078 50.2207 169.785 49.0723C169.504 47.9238 169.363 46.6055 169.363 45.1172C169.363 43.2305 169.58 41.5957 170.014 40.2129C170.447 38.8184 171.021 37.6348 171.736 36.6621C172.463 35.6777 173.289 34.875 174.215 34.2539C175.141 33.6211 176.09 33.1289 177.062 32.7773C178.035 32.4141 178.996 32.1621 179.945 32.0215C180.895 31.8809 181.75 31.8047 182.512 31.793H182.758C184.211 31.793 185.529 31.9922 186.713 32.3906C187.908 32.7773 188.928 33.2988 189.771 33.9551C190.627 34.6113 191.283 35.3613 191.74 36.2051C192.209 37.0488 192.443 37.9219 192.443 38.8242C192.443 39.2578 192.361 39.6621 192.197 40.0371C192.033 40.4004 191.816 40.7168 191.547 40.9863C191.289 41.2559 190.984 41.4668 190.633 41.6191C190.281 41.7715 189.924 41.8477 189.561 41.8477C189.186 41.8359 188.805 41.7422 188.418 41.5664C188.043 41.3906 187.697 41.1445 187.381 40.8281C187.064 40.5117 186.789 40.125 186.555 39.668C186.332 39.2109 186.186 38.7012 186.115 38.1387L185.992 37.3125C185.922 36.7852 185.828 36.2402 185.711 35.6777C185.594 35.1035 185.412 34.5762 185.166 34.0957C184.932 33.6152 184.621 33.2227 184.234 32.918C183.848 32.6016 183.355 32.4434 182.758 32.4434H182.547C182.055 32.4785 181.551 32.6016 181.035 32.8125C180.52 33.0117 180.016 33.3281 179.523 33.7617C179.043 34.1836 178.58 34.7285 178.135 35.3965C177.701 36.0527 177.32 36.8496 176.992 37.7871C176.664 38.7129 176.4 39.7969 176.201 41.0391C176.014 42.2695 175.92 43.6641 175.92 45.2227C175.92 46.793 176.002 48.1699 176.166 49.3535C176.342 50.5254 176.57 51.5449 176.852 52.4121C177.145 53.2676 177.479 53.9824 177.854 54.5566C178.24 55.1191 178.639 55.5703 179.049 55.9102C179.471 56.25 179.893 56.4961 180.314 56.6484C180.736 56.8008 181.141 56.8828 181.527 56.8945H181.721ZM198.174 56.4199H202.27L202.375 32.918H202.023V32.9531C200.805 33.0469 199.703 33.4512 198.719 34.166C198.297 34.4707 197.887 34.8574 197.488 35.3262C197.09 35.7949 196.727 36.375 196.398 37.0664C196.082 37.7578 195.818 38.5664 195.607 39.4922C195.396 40.418 195.279 41.4902 195.256 42.709H194.605L194.887 32.0566L216.525 32.707L216.35 44.1152H215.699C215.711 42.6973 215.611 41.4551 215.4 40.3887C215.189 39.3223 214.902 38.4023 214.539 37.6289C214.176 36.8438 213.766 36.1934 213.309 35.6777C212.852 35.1504 212.389 34.7227 211.92 34.3945C211.451 34.0547 211 33.8027 210.566 33.6387C210.145 33.4629 209.781 33.3398 209.477 33.2695C209.453 33.5039 209.43 33.8496 209.406 34.3066C209.383 34.7637 209.354 35.3848 209.318 36.1699C209.295 36.9551 209.266 37.9336 209.23 39.1055C209.195 40.2656 209.154 41.666 209.107 43.3066C209.072 44.9473 209.031 46.8516 208.984 49.0195C208.949 51.1758 208.908 53.6426 208.861 56.4199H213.186V57.0703H198.174V56.4199ZM227.441 32.127L242.119 32.5488V33.1992L238.85 33.0938L238.674 46.4531C238.674 46.9219 238.674 47.5137 238.674 48.2285C238.686 48.9316 238.727 49.6816 238.797 50.4785C238.867 51.2637 238.984 52.0488 239.148 52.834C239.312 53.6191 239.547 54.3281 239.852 54.9609C240.168 55.5938 240.566 56.1094 241.047 56.5078C241.539 56.9062 242.148 57.1055 242.875 57.1055C243.707 57.1055 244.41 56.9004 244.984 56.4902C245.57 56.0801 246.051 55.541 246.426 54.873C246.812 54.1934 247.111 53.4258 247.322 52.5703C247.545 51.7031 247.709 50.8242 247.814 49.9336C247.932 49.043 248.002 48.1699 248.025 47.3145C248.061 46.459 248.084 45.7031 248.096 45.0469L248.219 32.8828L244.404 32.7773V32.127L259.082 32.5488V33.1992L255.303 33.0938C255.279 33.3047 255.25 33.6797 255.215 34.2188C255.18 34.7578 255.139 35.5078 255.092 36.4688C255.057 37.418 255.021 38.6016 254.986 40.0195C254.951 41.4258 254.928 43.1016 254.916 45.0469C254.904 46.1484 254.764 47.2324 254.494 48.2988C254.225 49.3535 253.838 50.3496 253.334 51.2871C252.842 52.2246 252.238 53.0918 251.523 53.8887C250.809 54.6738 250.006 55.3535 249.115 55.9277C248.236 56.502 247.27 56.9473 246.215 57.2637C245.16 57.5918 244.047 57.7559 242.875 57.7559C241.176 57.7559 239.641 57.4219 238.27 56.7539C236.91 56.0859 235.75 55.1777 234.789 54.0293C233.84 52.8809 233.107 51.5391 232.592 50.0039C232.088 48.457 231.848 46.8047 231.871 45.0469L232.012 32.918L227.441 32.7773V32.127ZM271.686 42.9902C273.502 43.1895 275.043 43.5234 276.309 43.9922C277.574 44.4609 278.6 45.0234 279.385 45.6797C280.182 46.3242 280.756 47.0449 281.107 47.8418C281.471 48.627 281.652 49.4473 281.652 50.3027C281.652 51.2871 281.494 52.1543 281.178 52.9043C280.861 53.6543 280.439 54.3164 279.912 54.8906C279.396 55.4531 278.799 55.9277 278.119 56.3145C277.451 56.7012 276.76 57.0117 276.045 57.2461C275.342 57.4922 274.645 57.668 273.953 57.7734C273.262 57.8906 272.641 57.9551 272.09 57.9668H271.65C271.064 57.9551 270.391 57.9023 269.629 57.8086C268.879 57.7266 268.105 57.5918 267.309 57.4043C266.523 57.2168 265.75 56.9766 264.988 56.6836C264.227 56.3789 263.547 56.0039 262.949 55.5586C262.352 55.1133 261.871 54.5859 261.508 53.9766C261.145 53.3672 260.963 52.6582 260.963 51.8496C260.963 51.416 261.033 51.0352 261.174 50.707C261.314 50.3789 261.508 50.1035 261.754 49.8809C262 49.6465 262.281 49.4648 262.598 49.3359C262.926 49.207 263.277 49.1309 263.652 49.1074C264.109 49.1074 264.531 49.207 264.918 49.4062C265.316 49.5938 265.662 49.8633 265.955 50.2148C266.248 50.5547 266.482 50.9707 266.658 51.4629C266.846 51.9434 266.951 52.4824 266.975 53.0801C266.998 53.5605 267.109 54.0527 267.309 54.5566C267.508 55.0605 267.801 55.5176 268.188 55.9277C268.574 56.3379 269.055 56.6719 269.629 56.9297C270.203 57.1875 270.877 57.3164 271.65 57.3164C272.26 57.3164 272.811 57.1934 273.303 56.9473C273.807 56.7012 274.234 56.373 274.586 55.9629C274.938 55.5527 275.207 55.0781 275.395 54.5391C275.582 53.9883 275.676 53.4141 275.676 52.8164C275.676 52.2773 275.582 51.7441 275.395 51.2168C275.207 50.6895 274.914 50.2207 274.516 49.8105C274.117 49.3887 273.607 49.043 272.986 48.7734C272.365 48.5039 271.621 48.3516 270.754 48.3164C268.984 48.2344 267.473 47.9707 266.219 47.5254C264.977 47.0801 263.957 46.5059 263.16 45.8027C262.363 45.0879 261.777 44.2734 261.402 43.3594C261.039 42.4453 260.857 41.4844 260.857 40.4766C260.857 39.3867 261.021 38.4316 261.35 37.6113C261.678 36.7793 262.111 36.0645 262.65 35.4668C263.201 34.8574 263.828 34.3535 264.531 33.9551C265.234 33.5449 265.961 33.2168 266.711 32.9707C267.473 32.7246 268.223 32.5547 268.961 32.4609C269.711 32.3555 270.402 32.3027 271.035 32.3027H271.246C271.832 32.3145 272.482 32.3672 273.197 32.4609C273.924 32.543 274.656 32.6777 275.395 32.8652C276.145 33.0527 276.865 33.2988 277.557 33.6035C278.26 33.9082 278.881 34.2832 279.42 34.7285C279.971 35.1738 280.41 35.7012 280.738 36.3105C281.066 36.9082 281.23 37.5996 281.23 38.3848C281.23 38.8418 281.154 39.2402 281.002 39.5801C280.85 39.9199 280.645 40.207 280.387 40.4414C280.141 40.6641 279.848 40.834 279.508 40.9512C279.168 41.0684 278.816 41.127 278.453 41.127C278.008 41.127 277.592 41.0273 277.205 40.8281C276.818 40.6289 276.479 40.3535 276.186 40.002C275.904 39.6504 275.676 39.2344 275.5 38.7539C275.336 38.2617 275.254 37.7227 275.254 37.1367C275.254 36.6328 275.189 36.1348 275.061 35.6426C274.932 35.1504 274.709 34.7109 274.393 34.3242C274.088 33.9258 273.678 33.6035 273.162 33.3574C272.646 33.1113 272.008 32.9766 271.246 32.9531H271.07C270.496 32.9766 269.963 33.1465 269.471 33.4629C268.99 33.7676 268.574 34.1719 268.223 34.6758C267.871 35.1797 267.596 35.748 267.396 36.3809C267.209 37.002 267.115 37.6348 267.115 38.2793C267.115 38.8418 267.197 39.3867 267.361 39.9141C267.537 40.4414 267.807 40.9219 268.17 41.3555C268.545 41.7773 269.02 42.1348 269.594 42.4277C270.168 42.7207 270.865 42.9082 271.686 42.9902Z" fill="black"/>
<path d="M0 0H139V4.5H12.7381V46.7095V68.7027V89.1667H48V93H0V0Z" fill="url(#paint0_linear_6695_2)"/>
<defs>
<linearGradient id="paint0_linear_6695_2" x1="91.205" y1="84.4122" x2="92.411" y2="-44.4609" gradientUnits="userSpaceOnUse">
<stop offset="0.102848" stop-color="#F0C74B"/>
<stop offset="0.376053" stop-color="#A00A0A"/>
<stop offset="1" stop-color="#990303"/>
</linearGradient>
</defs>
</svg>
