<svg width="268" height="106" viewBox="0 0 268 106" fill="none" xmlns="http://www.w3.org/2000/svg">
<rect width="268" height="106" fill="white"/>
<path d="M0 7H139V11.5H12.7381V53.7095V75.7027V96.1667H48V100H0V7Z" fill="url(#paint0_linear_6657_2)"/>
<path d="M49.8496 63.3496H52.5215L50.0254 57.4082H42.0801L39.707 63.4551H44.2422V64H35.0137V63.3848H39.0566L45.5957 46.9316L49.0586 38.2305L60.2559 63.3496H63.4902V64H49.8496V63.3496ZM42.3262 56.7578H49.7441L45.9297 47.7578L42.3262 56.7578ZM63.1211 39.4785H73.4043C73.9199 39.4785 74.5 39.4844 75.1445 39.4961C75.8008 39.5078 76.4863 39.543 77.2012 39.6016C77.916 39.6484 78.6426 39.7246 79.3809 39.8301C80.1309 39.9238 80.8574 40.0586 81.5605 40.2344C82.2637 40.3984 82.9199 40.6094 83.5293 40.8672C84.1504 41.1133 84.6895 41.4121 85.1465 41.7637C85.6152 42.1152 85.9844 42.5312 86.2539 43.0117C86.5234 43.4805 86.6582 44.0195 86.6582 44.6289C86.6582 45.4609 86.4297 46.2051 85.9727 46.8613C85.5156 47.5176 84.9004 48.0918 84.127 48.584C83.3652 49.0645 82.4805 49.4746 81.4727 49.8145C80.4648 50.1426 79.4102 50.3945 78.3086 50.5703C79.4805 50.7578 80.5117 50.9922 81.4023 51.2734C82.293 51.5547 83.0664 51.8711 83.7227 52.2227C84.3906 52.5625 84.9473 52.9199 85.3926 53.2949C85.8496 53.6699 86.2246 54.0391 86.5176 54.4023C87.209 55.2578 87.6016 56.166 87.6953 57.127C87.6953 58.1934 87.502 59.1133 87.1152 59.8867C86.7402 60.6602 86.2305 61.3164 85.5859 61.8555C84.9531 62.3828 84.2207 62.8105 83.3887 63.1387C82.5566 63.4668 81.6895 63.7246 80.7871 63.9121C79.8848 64.0879 78.9766 64.2051 78.0625 64.2637C77.1484 64.3223 76.293 64.3516 75.4961 64.3516C75.1094 64.3516 74.752 64.3516 74.4238 64.3516C74.0957 64.3633 73.7266 64.3633 73.3164 64.3516C72.9062 64.3516 72.4141 64.3457 71.8398 64.334C71.2773 64.3223 70.5684 64.2988 69.7129 64.2637C68.8691 64.2402 67.8438 64.1934 66.6367 64.123C65.4414 64.0645 63.9941 63.9883 62.2949 63.8945L62.3652 63.4902H67.2168V40.1289H63.1211V39.4785ZM73.5625 50.9043L73.3691 63.6836C73.6738 63.707 74.002 63.7188 74.3535 63.7188C74.7168 63.7188 75.0977 63.7188 75.4961 63.7188C76.4453 63.6484 77.2773 63.4844 77.9922 63.2266C78.7188 62.9688 79.3223 62.5879 79.8027 62.084C80.2949 61.5684 80.6699 60.9121 80.9277 60.1152C81.1973 59.3066 81.3555 58.3223 81.4023 57.1621C81.4023 56.0488 81.2793 55.0996 81.0332 54.3145C80.7988 53.5176 80.3828 52.8672 79.7852 52.3633C79.1875 51.8594 78.3848 51.4902 77.377 51.2559C76.3691 51.0215 75.0977 50.9043 73.5625 50.9043ZM80.5762 44.9277C80.5645 44.9395 80.5586 44.834 80.5586 44.6113C80.5586 44.377 80.5293 44.084 80.4707 43.7324C80.4121 43.3809 80.3066 43 80.1543 42.5898C80.002 42.1797 79.7676 41.7988 79.4512 41.4473C79.1465 41.084 78.7422 40.7852 78.2383 40.5508C77.7344 40.3164 77.1074 40.1992 76.3574 40.1992C75.8535 40.1992 75.373 40.1875 74.916 40.1641C74.4707 40.1406 74.0664 40.1289 73.7031 40.1289L73.5625 50.1836C73.7969 50.1836 74.0254 50.1895 74.248 50.2012C74.4824 50.2129 74.7051 50.2305 74.916 50.2539C75.5957 50.2539 76.252 50.1895 76.8848 50.0605C77.5293 49.9316 78.1094 49.6797 78.625 49.3047C79.1523 48.9297 79.5859 48.3965 79.9258 47.7051C80.2773 47.002 80.4941 46.0762 80.5762 44.9277ZM116.137 52.0469C116.137 53.2188 115.984 54.3438 115.68 55.4219C115.375 56.5 114.947 57.5137 114.396 58.4629C113.846 59.4004 113.184 60.2559 112.41 61.0293C111.637 61.8027 110.775 62.4648 109.826 63.0156C108.889 63.5664 107.881 63.9941 106.803 64.2988C105.725 64.6035 104.6 64.7559 103.428 64.7559C102.256 64.7559 101.125 64.6035 100.035 64.2988C98.9453 63.9941 97.9258 63.5664 96.9766 63.0156C96.0391 62.4648 95.1836 61.8027 94.4102 61.0293C93.6367 60.2559 92.9746 59.4004 92.4238 58.4629C91.873 57.5137 91.4453 56.5 91.1406 55.4219C90.8359 54.3438 90.6836 53.2188 90.6836 52.0469C90.6836 50.8867 90.8359 49.7734 91.1406 48.707C91.4453 47.6289 91.873 46.6211 92.4238 45.6836C92.9746 44.7344 93.6367 43.873 94.4102 43.0996C95.1836 42.3262 96.0391 41.6641 96.9766 41.1133C97.9258 40.5625 98.9453 40.1348 100.035 39.8301C101.125 39.5254 102.256 39.373 103.428 39.373C104.6 39.373 105.725 39.5254 106.803 39.8301C107.881 40.1348 108.889 40.5625 109.826 41.1133C110.775 41.6641 111.637 42.3262 112.41 43.0996C113.184 43.873 113.846 44.7344 114.396 45.6836C114.947 46.6211 115.375 47.6289 115.68 48.707C115.984 49.7734 116.137 50.8867 116.137 52.0469ZM109.369 52.0469C109.369 50.0078 109.223 48.2383 108.93 46.7383C108.648 45.2266 108.244 43.9785 107.717 42.9941C107.201 41.998 106.574 41.2539 105.836 40.7617C105.109 40.2695 104.307 40.0234 103.428 40.0234C102.525 40.0234 101.705 40.293 100.967 40.832C100.24 41.3711 99.6191 42.1562 99.1035 43.1875C98.5879 44.2188 98.1895 45.4785 97.9082 46.9668C97.627 48.4551 97.4863 50.1484 97.4863 52.0469C97.4863 53.8867 97.627 55.5508 97.9082 57.0391C98.1895 58.5156 98.5879 59.7812 99.1035 60.8359C99.6191 61.8789 100.24 62.6875 100.967 63.2617C101.705 63.8242 102.525 64.1055 103.428 64.1055C104.307 64.1055 105.109 63.8594 105.836 63.3672C106.574 62.875 107.201 62.1309 107.717 61.1348C108.244 60.1387 108.648 58.8848 108.93 57.373C109.223 55.8613 109.369 54.0859 109.369 52.0469ZM117.262 39.127L131.939 39.5488V40.1992L128.67 40.0938L128.494 53.4531C128.494 53.9219 128.494 54.5137 128.494 55.2285C128.506 55.9316 128.547 56.6816 128.617 57.4785C128.688 58.2637 128.805 59.0488 128.969 59.834C129.133 60.6191 129.367 61.3281 129.672 61.9609C129.988 62.5938 130.387 63.1094 130.867 63.5078C131.359 63.9062 131.969 64.1055 132.695 64.1055C133.527 64.1055 134.23 63.9004 134.805 63.4902C135.391 63.0801 135.871 62.541 136.246 61.873C136.633 61.1934 136.932 60.4258 137.143 59.5703C137.365 58.7031 137.529 57.8242 137.635 56.9336C137.752 56.043 137.822 55.1699 137.846 54.3145C137.881 53.459 137.904 52.7031 137.916 52.0469L138.039 39.8828L134.225 39.7773V39.127L148.902 39.5488V40.1992L145.123 40.0938C145.1 40.3047 145.07 40.6797 145.035 41.2188C145 41.7578 144.959 42.5078 144.912 43.4688C144.877 44.418 144.842 45.6016 144.807 47.0195C144.771 48.4258 144.748 50.1016 144.736 52.0469C144.725 53.1484 144.584 54.2324 144.314 55.2988C144.045 56.3535 143.658 57.3496 143.154 58.2871C142.662 59.2246 142.059 60.0918 141.344 60.8887C140.629 61.6738 139.826 62.3535 138.936 62.9277C138.057 63.502 137.09 63.9473 136.035 64.2637C134.98 64.5918 133.867 64.7559 132.695 64.7559C130.996 64.7559 129.461 64.4219 128.09 63.7539C126.73 63.0859 125.57 62.1777 124.609 61.0293C123.66 59.8809 122.928 58.5391 122.412 57.0039C121.908 55.457 121.668 53.8047 121.691 52.0469L121.832 39.918L117.262 39.7773V39.127ZM153.877 63.4199H157.973L158.078 39.918H157.727V39.9531C156.508 40.0469 155.406 40.4512 154.422 41.166C154 41.4707 153.59 41.8574 153.191 42.3262C152.793 42.7949 152.43 43.375 152.102 44.0664C151.785 44.7578 151.521 45.5664 151.311 46.4922C151.1 47.418 150.982 48.4902 150.959 49.709H150.309L150.59 39.0566L172.229 39.707L172.053 51.1152H171.402C171.414 49.6973 171.314 48.4551 171.104 47.3887C170.893 46.3223 170.605 45.4023 170.242 44.6289C169.879 43.8438 169.469 43.1934 169.012 42.6777C168.555 42.1504 168.092 41.7227 167.623 41.3945C167.154 41.0547 166.703 40.8027 166.27 40.6387C165.848 40.4629 165.484 40.3398 165.18 40.2695C165.156 40.5039 165.133 40.8496 165.109 41.3066C165.086 41.7637 165.057 42.3848 165.021 43.1699C164.998 43.9551 164.969 44.9336 164.934 46.1055C164.898 47.2656 164.857 48.666 164.811 50.3066C164.775 51.9473 164.734 53.8516 164.688 56.0195C164.652 58.1758 164.611 60.6426 164.564 63.4199H168.889V64.0703H153.877V63.4199ZM183.145 39.127L197.822 39.5488V40.1992L194.553 40.0938L194.377 53.4531C194.377 53.9219 194.377 54.5137 194.377 55.2285C194.389 55.9316 194.43 56.6816 194.5 57.4785C194.57 58.2637 194.688 59.0488 194.852 59.834C195.016 60.6191 195.25 61.3281 195.555 61.9609C195.871 62.5938 196.27 63.1094 196.75 63.5078C197.242 63.9062 197.852 64.1055 198.578 64.1055C199.41 64.1055 200.113 63.9004 200.688 63.4902C201.273 63.0801 201.754 62.541 202.129 61.873C202.516 61.1934 202.814 60.4258 203.025 59.5703C203.248 58.7031 203.412 57.8242 203.518 56.9336C203.635 56.043 203.705 55.1699 203.729 54.3145C203.764 53.459 203.787 52.7031 203.799 52.0469L203.922 39.8828L200.107 39.7773V39.127L214.785 39.5488V40.1992L211.006 40.0938C210.982 40.3047 210.953 40.6797 210.918 41.2188C210.883 41.7578 210.842 42.5078 210.795 43.4688C210.76 44.418 210.725 45.6016 210.689 47.0195C210.654 48.4258 210.631 50.1016 210.619 52.0469C210.607 53.1484 210.467 54.2324 210.197 55.2988C209.928 56.3535 209.541 57.3496 209.037 58.2871C208.545 59.2246 207.941 60.0918 207.227 60.8887C206.512 61.6738 205.709 62.3535 204.818 62.9277C203.939 63.502 202.973 63.9473 201.918 64.2637C200.863 64.5918 199.75 64.7559 198.578 64.7559C196.879 64.7559 195.344 64.4219 193.973 63.7539C192.613 63.0859 191.453 62.1777 190.492 61.0293C189.543 59.8809 188.811 58.5391 188.295 57.0039C187.791 55.457 187.551 53.8047 187.574 52.0469L187.715 39.918L183.145 39.7773V39.127ZM227.389 49.9902C229.205 50.1895 230.746 50.5234 232.012 50.9922C233.277 51.4609 234.303 52.0234 235.088 52.6797C235.885 53.3242 236.459 54.0449 236.811 54.8418C237.174 55.627 237.355 56.4473 237.355 57.3027C237.355 58.2871 237.197 59.1543 236.881 59.9043C236.564 60.6543 236.143 61.3164 235.615 61.8906C235.1 62.4531 234.502 62.9277 233.822 63.3145C233.154 63.7012 232.463 64.0117 231.748 64.2461C231.045 64.4922 230.348 64.668 229.656 64.7734C228.965 64.8906 228.344 64.9551 227.793 64.9668H227.354C226.768 64.9551 226.094 64.9023 225.332 64.8086C224.582 64.7266 223.809 64.5918 223.012 64.4043C222.227 64.2168 221.453 63.9766 220.691 63.6836C219.93 63.3789 219.25 63.0039 218.652 62.5586C218.055 62.1133 217.574 61.5859 217.211 60.9766C216.848 60.3672 216.666 59.6582 216.666 58.8496C216.666 58.416 216.736 58.0352 216.877 57.707C217.018 57.3789 217.211 57.1035 217.457 56.8809C217.703 56.6465 217.984 56.4648 218.301 56.3359C218.629 56.207 218.98 56.1309 219.355 56.1074C219.812 56.1074 220.234 56.207 220.621 56.4062C221.02 56.5938 221.365 56.8633 221.658 57.2148C221.951 57.5547 222.186 57.9707 222.361 58.4629C222.549 58.9434 222.654 59.4824 222.678 60.0801C222.701 60.5605 222.812 61.0527 223.012 61.5566C223.211 62.0605 223.504 62.5176 223.891 62.9277C224.277 63.3379 224.758 63.6719 225.332 63.9297C225.906 64.1875 226.58 64.3164 227.354 64.3164C227.963 64.3164 228.514 64.1934 229.006 63.9473C229.51 63.7012 229.938 63.373 230.289 62.9629C230.641 62.5527 230.91 62.0781 231.098 61.5391C231.285 60.9883 231.379 60.4141 231.379 59.8164C231.379 59.2773 231.285 58.7441 231.098 58.2168C230.91 57.6895 230.617 57.2207 230.219 56.8105C229.82 56.3887 229.311 56.043 228.689 55.7734C228.068 55.5039 227.324 55.3516 226.457 55.3164C224.688 55.2344 223.176 54.9707 221.922 54.5254C220.68 54.0801 219.66 53.5059 218.863 52.8027C218.066 52.0879 217.48 51.2734 217.105 50.3594C216.742 49.4453 216.561 48.4844 216.561 47.4766C216.561 46.3867 216.725 45.4316 217.053 44.6113C217.381 43.7793 217.814 43.0645 218.354 42.4668C218.904 41.8574 219.531 41.3535 220.234 40.9551C220.938 40.5449 221.664 40.2168 222.414 39.9707C223.176 39.7246 223.926 39.5547 224.664 39.4609C225.414 39.3555 226.105 39.3027 226.738 39.3027H226.949C227.535 39.3145 228.186 39.3672 228.9 39.4609C229.627 39.543 230.359 39.6777 231.098 39.8652C231.848 40.0527 232.568 40.2988 233.26 40.6035C233.963 40.9082 234.584 41.2832 235.123 41.7285C235.674 42.1738 236.113 42.7012 236.441 43.3105C236.77 43.9082 236.934 44.5996 236.934 45.3848C236.934 45.8418 236.857 46.2402 236.705 46.5801C236.553 46.9199 236.348 47.207 236.09 47.4414C235.844 47.6641 235.551 47.834 235.211 47.9512C234.871 48.0684 234.52 48.127 234.156 48.127C233.711 48.127 233.295 48.0273 232.908 47.8281C232.521 47.6289 232.182 47.3535 231.889 47.002C231.607 46.6504 231.379 46.2344 231.203 45.7539C231.039 45.2617 230.957 44.7227 230.957 44.1367C230.957 43.6328 230.893 43.1348 230.764 42.6426C230.635 42.1504 230.412 41.7109 230.096 41.3242C229.791 40.9258 229.381 40.6035 228.865 40.3574C228.35 40.1113 227.711 39.9766 226.949 39.9531H226.773C226.199 39.9766 225.666 40.1465 225.174 40.4629C224.693 40.7676 224.277 41.1719 223.926 41.6758C223.574 42.1797 223.299 42.748 223.1 43.3809C222.912 44.002 222.818 44.6348 222.818 45.2793C222.818 45.8418 222.9 46.3867 223.064 46.9141C223.24 47.4414 223.51 47.9219 223.873 48.3555C224.248 48.7773 224.723 49.1348 225.297 49.4277C225.871 49.7207 226.568 49.9082 227.389 49.9902Z" fill="black"/>
<defs>
<linearGradient id="paint0_linear_6657_2" x1="91.205" y1="91.4122" x2="92.411" y2="-37.4609" gradientUnits="userSpaceOnUse">
<stop offset="0.102848" stop-color="#F0C74B"/>
<stop offset="0.376053" stop-color="#A00A0A"/>
<stop offset="1" stop-color="#990303"/>
</linearGradient>
</defs>
</svg>
