<svg width="217" height="93" viewBox="0 0 217 93" fill="none" xmlns="http://www.w3.org/2000/svg">
<path d="M0 0H139V4.5H12.7381V46.7095V68.7027V89.1667H48V93H0V0Z" fill="url(#paint0_linear_4857_15)"/>
<path d="M50.7461 45.6973L64.4395 45.2227V45.9785L61.5215 46.084L60.6074 57.9668L58.498 54.9434C57.877 55.6348 57.2383 56.1797 56.582 56.5781C55.9375 56.9648 55.3047 57.252 54.6836 57.4395C54.0742 57.6387 53.4941 57.7617 52.9434 57.8086C52.3926 57.8672 51.9004 57.8965 51.4668 57.8965H50.9746C50.5879 57.8965 50.1133 57.873 49.5508 57.8262C48.9883 57.791 48.3789 57.709 47.7227 57.5801C47.0781 57.4512 46.4043 57.2578 45.7012 57C44.998 56.7539 44.3066 56.4258 43.627 56.0156C42.959 55.5938 42.3203 55.0781 41.7109 54.4688C41.1016 53.8594 40.5684 53.1328 40.1113 52.2891C39.6543 51.4336 39.291 50.4492 39.0215 49.3359C38.752 48.2109 38.6172 46.9277 38.6172 45.4863C38.6172 44.0449 38.7461 42.75 39.0039 41.6016C39.2617 40.4531 39.6133 39.4336 40.0586 38.543C40.5156 37.6406 41.0488 36.8613 41.6582 36.2051C42.2676 35.5371 42.918 34.9688 43.6094 34.5C44.3125 34.0312 45.0332 33.6445 45.7715 33.3398C46.5215 33.0352 47.2656 32.7949 48.0039 32.6191C48.7422 32.4434 49.4512 32.3262 50.1309 32.2676C50.8223 32.1973 51.4492 32.1621 52.0117 32.1621C53.4648 32.1621 54.7832 32.3613 55.9668 32.7598C57.1621 33.1465 58.1816 33.668 59.0254 34.3242C59.8809 34.9688 60.5371 35.7129 60.9941 36.5566C61.4629 37.4004 61.6973 38.2734 61.6973 39.1758C61.6973 39.6094 61.6152 40.0137 61.4512 40.3887C61.2871 40.752 61.0703 41.0684 60.8008 41.3379C60.543 41.6074 60.2383 41.8184 59.8867 41.9707C59.5352 42.123 59.1777 42.1992 58.8145 42.1992C58.4395 42.1875 58.0586 42.0938 57.6719 41.918C57.2969 41.7422 56.9453 41.4961 56.6172 41.1797C56.3008 40.8633 56.0254 40.4766 55.791 40.0195C55.5684 39.5625 55.4219 39.0527 55.3516 38.4902L55.2461 37.6641C55.1875 37.1602 55.0996 36.6328 54.9824 36.082C54.8652 35.5312 54.6895 35.0215 54.4551 34.5527C54.2324 34.0723 53.9395 33.6738 53.5762 33.3574C53.2129 33.0293 52.75 32.8477 52.1875 32.8125H52.0117C51.5195 32.8125 51.0098 32.9062 50.4824 33.0938C49.9551 33.2695 49.4336 33.5684 48.918 33.9902C48.4141 34.4004 47.9336 34.9336 47.4766 35.5898C47.0312 36.2461 46.6328 37.0488 46.2812 37.998C45.9414 38.9355 45.6719 40.0371 45.4727 41.3027C45.2734 42.5566 45.1738 43.9863 45.1738 45.5918C45.1738 47.1973 45.2617 48.5977 45.4375 49.793C45.625 50.9883 45.8652 52.0195 46.1582 52.8867C46.4629 53.7539 46.8145 54.4688 47.2129 55.0312C47.6113 55.5938 48.0215 56.0391 48.4434 56.3672C48.877 56.6953 49.3105 56.9238 49.7441 57.0527C50.1777 57.1816 50.5879 57.2461 50.9746 57.2461H51.3262C52.123 57.1641 52.8438 56.8184 53.4883 56.209C53.7578 55.9512 54.0215 55.623 54.2793 55.2246C54.5371 54.8262 54.7656 54.3398 54.9648 53.7656C55.1758 53.1914 55.3398 52.5117 55.457 51.7266C55.5859 50.9414 55.6504 50.0332 55.6504 49.002C55.6504 48.6035 55.6328 48.1699 55.5977 47.7012C55.5742 47.2324 55.5449 46.7461 55.5098 46.2422L50.7461 46.3828V45.6973ZM77.7285 56.3496H80.4004L77.9043 50.4082H69.959L67.5859 56.4551H72.1211V57H62.8926V56.3848H66.9355L73.4746 39.9316L76.9375 31.2305L88.1348 56.3496H91.3691V57H77.7285V56.3496ZM70.2051 49.7578H77.623L73.8086 40.7578L70.2051 49.7578ZM90.7363 57.1055V56.4551H94.8848L94.9902 32.8477L90.4551 32.707V32.0566L105.818 32.4785V33.1289L102.074 33.0234C102.062 33.1758 102.045 33.4453 102.021 33.832C101.998 34.2188 101.975 34.7871 101.951 35.5371C101.928 36.2754 101.893 37.2188 101.846 38.3672C101.811 39.5156 101.775 40.9336 101.74 42.6211C101.705 44.3086 101.664 46.2891 101.617 48.5625C101.57 50.8359 101.523 53.4668 101.477 56.4551H104.992C105.25 56.4551 105.596 56.4082 106.029 56.3145C106.475 56.209 106.949 56.0215 107.453 55.752C107.969 55.4824 108.49 55.1133 109.018 54.6445C109.545 54.1758 110.025 53.5664 110.459 52.8164C110.893 52.0664 111.256 51.1641 111.549 50.1094C111.842 49.0547 112.012 47.8125 112.059 46.3828H112.709L112.41 57.1055C111.438 57.1055 110.57 57.1055 109.809 57.1055C109.059 57.1055 108.355 57.1055 107.699 57.1055C107.043 57.1055 106.41 57.1055 105.801 57.1055C105.191 57.1172 104.547 57.123 103.867 57.123C103.188 57.123 102.443 57.123 101.635 57.123C100.826 57.123 99.9004 57.123 98.8574 57.123C97.8262 57.123 96.6484 57.1172 95.3242 57.1055C94 57.1055 92.4707 57.1055 90.7363 57.1055ZM114.818 57.1055V56.4551H118.967L119.072 32.8477L114.537 32.707V32.0566L129.9 32.4785V33.1289L126.156 33.0234C126.145 33.1758 126.127 33.4453 126.104 33.832C126.08 34.2188 126.057 34.7871 126.033 35.5371C126.01 36.2754 125.975 37.2188 125.928 38.3672C125.893 39.5156 125.857 40.9336 125.822 42.6211C125.787 44.3086 125.746 46.2891 125.699 48.5625C125.652 50.8359 125.605 53.4668 125.559 56.4551H129.074C129.332 56.4551 129.678 56.4082 130.111 56.3145C130.557 56.209 131.031 56.0215 131.535 55.752C132.051 55.4824 132.572 55.1133 133.1 54.6445C133.627 54.1758 134.107 53.5664 134.541 52.8164C134.975 52.0664 135.338 51.1641 135.631 50.1094C135.924 49.0547 136.094 47.8125 136.141 46.3828H136.791L136.492 57.1055C135.52 57.1055 134.652 57.1055 133.891 57.1055C133.141 57.1055 132.438 57.1055 131.781 57.1055C131.125 57.1055 130.492 57.1055 129.883 57.1055C129.273 57.1172 128.629 57.123 127.949 57.123C127.27 57.123 126.525 57.123 125.717 57.123C124.908 57.123 123.982 57.123 122.939 57.123C121.908 57.123 120.73 57.1172 119.406 57.1055C118.082 57.1055 116.553 57.1055 114.818 57.1055ZM138.795 32.2676L160.117 32.2324L159.924 44.7656H159.273C159.297 43.2891 159.209 41.9883 159.01 40.8633C158.822 39.7266 158.564 38.7422 158.236 37.9102C157.92 37.0781 157.551 36.3809 157.129 35.8184C156.707 35.2441 156.273 34.7695 155.828 34.3945C155.383 34.0195 154.943 33.7324 154.51 33.5332C154.088 33.334 153.707 33.1875 153.367 33.0938C153.039 33 152.77 32.9414 152.559 32.918C152.359 32.8945 152.26 32.8828 152.26 32.8828C151.92 32.8828 151.568 32.8887 151.205 32.9004C150.854 32.9121 150.508 32.918 150.168 32.918C150.156 33.0586 150.139 33.3574 150.115 33.8145C150.104 34.2715 150.08 34.957 150.045 35.8711C150.01 36.7734 149.969 37.9453 149.922 39.3867C149.875 40.8164 149.828 42.5742 149.781 44.6602C149.887 44.6484 150.086 44.6309 150.379 44.6074C150.684 44.584 151.023 44.5195 151.398 44.4141C151.785 44.2969 152.184 44.1211 152.594 43.8867C153.004 43.6406 153.379 43.3008 153.719 42.8672C154.059 42.4219 154.334 41.8594 154.545 41.1797C154.768 40.5 154.873 39.668 154.861 38.6836H155.494H154.861H155.494L155.318 52.0957H154.668C154.633 50.9473 154.486 49.8984 154.229 48.9492C154.123 48.5508 153.982 48.1523 153.807 47.7539C153.631 47.3555 153.42 46.9922 153.174 46.6641C152.928 46.3242 152.635 46.0371 152.295 45.8027C151.955 45.5684 151.562 45.4102 151.117 45.3281L149.781 45.293L149.57 56.3848H154.141C154.398 56.3613 154.75 56.2969 155.195 56.1914C155.641 56.0859 156.115 55.9102 156.619 55.6641C157.135 55.418 157.656 55.084 158.184 54.6621C158.711 54.2402 159.191 53.6953 159.625 53.0273C160.07 52.3477 160.434 51.5332 160.715 50.584C161.008 49.623 161.178 48.4863 161.225 47.1738H161.875L161.594 57.0352H138.83V56.3848H142.979L143.084 32.918H138.795V32.2676ZM179.33 56.4902L181.844 56.4551L175.727 48.2109H175.621C175.527 48.2344 175.445 48.2461 175.375 48.2461C175.305 48.2461 175.229 48.2461 175.146 48.2461L175.006 56.4902H178.029V57.1406H164.459V56.4902H168.643L168.854 33.2695C168.232 33.2695 167.6 33.2754 166.955 33.2871C166.311 33.2988 165.602 33.3047 164.828 33.3047V32.6719C167.418 32.6602 169.545 32.6484 171.209 32.6367C172.873 32.625 174.18 32.6133 175.129 32.6016C176.242 32.5898 177.08 32.584 177.643 32.584C178.24 32.584 178.938 32.6016 179.734 32.6367C180.531 32.6719 181.352 32.7715 182.195 32.9355C183.039 33.0879 183.871 33.3281 184.691 33.6562C185.512 33.9844 186.244 34.4414 186.889 35.0273C187.533 35.6016 188.055 36.3281 188.453 37.207C188.852 38.0859 189.051 39.1523 189.051 40.4062C189.051 41.5312 188.881 42.5098 188.541 43.3418C188.201 44.1738 187.721 44.8828 187.1 45.4688C186.49 46.0547 185.752 46.5352 184.885 46.9102C184.018 47.2734 183.051 47.5547 181.984 47.7539L189.438 56.3145L189.367 56.3496L192.32 56.3145V56.9648L179.33 57.1406V56.4902ZM182.863 40.3711C182.863 39.293 182.775 38.373 182.6 37.6113C182.424 36.8379 182.172 36.1934 181.844 35.6777C181.527 35.1504 181.141 34.7285 180.684 34.4121C180.227 34.0957 179.717 33.8555 179.154 33.6914C178.604 33.5273 178.006 33.4219 177.361 33.375C176.729 33.3164 176.066 33.2812 175.375 33.2695L175.146 47.5605H175.586C176.5 47.4668 177.303 47.291 177.994 47.0332C178.686 46.7754 179.283 46.4707 179.787 46.1191C180.303 45.7676 180.73 45.3809 181.07 44.959C181.422 44.5254 181.715 44.0977 181.949 43.6758C182.488 42.6797 182.793 41.5781 182.863 40.3711ZM204.08 32.5488L201.057 32.6719L206.875 43.6055L211.814 32.8125L207.35 32.7422V32.0918L216.525 32.1973V32.8477L212.5 32.8125L207.314 44.1855L207.209 56.5254H211.533V57.1758H196.486V56.5254H200.617L200.723 44.8359L193.639 32.8828L190.475 32.9883L190.387 32.3379L204.08 31.916V32.5488Z" fill="black"/>
<defs>
<linearGradient id="paint0_linear_4857_15" x1="91.205" y1="84.4122" x2="92.411" y2="-44.4609" gradientUnits="userSpaceOnUse">
<stop offset="0.102848" stop-color="#F0C74B"/>
<stop offset="0.376053" stop-color="#A00A0A"/>
<stop offset="1" stop-color="#990303"/>
</linearGradient>
</defs>
</svg>
