<svg width="363" height="93" viewBox="0 0 363 93" fill="none" xmlns="http://www.w3.org/2000/svg">
<path d="M0 0H139V4.5H12.7381V46.7095V68.7027V89.1667H48V93H0V0Z" fill="url(#paint0_linear_4841_272)"/>
<path d="M37.7559 32.3027L59.0605 32.2676L58.8848 44.8008H58.2344C58.2578 43.3242 58.1699 42.0234 57.9707 40.8984C57.7832 39.7617 57.5254 38.7773 57.1973 37.9453C56.8809 37.1133 56.5117 36.416 56.0898 35.8535C55.668 35.2793 55.2344 34.8047 54.7891 34.4297C54.3438 34.0547 53.9043 33.7676 53.4707 33.5684C53.0488 33.3691 52.668 33.2227 52.3281 33.1289C52 33.0352 51.7305 32.9766 51.5195 32.9531C51.3203 32.9297 51.2207 32.918 51.2207 32.918C50.8105 32.918 50.4004 32.9238 49.9902 32.9355C49.5801 32.9473 49.1758 32.9531 48.7773 32.9531V44.6953L49.498 44.6602C50.2832 44.6016 50.998 44.373 51.6426 43.9746C51.9121 43.7988 52.1758 43.582 52.4336 43.3242C52.7031 43.0547 52.9434 42.7266 53.1543 42.3398C53.3652 41.9531 53.541 41.4961 53.6816 40.9688C53.8223 40.4414 53.9043 39.832 53.9277 39.1406V38.7188H54.5605C54.5605 38.7539 54.5605 38.8125 54.5605 38.8945C54.5605 38.9648 54.5547 39.1348 54.543 39.4043C54.543 39.6738 54.5371 40.084 54.5254 40.6348C54.5254 41.1855 54.5137 41.9531 54.4902 42.9375C54.4785 43.9219 54.4609 45.1641 54.4375 46.6641C54.4141 48.1523 54.3848 49.9805 54.3496 52.1484H53.6992C53.6641 51 53.5176 49.9512 53.2598 49.002C53.1543 48.6035 53.0137 48.2051 52.8379 47.8066C52.6738 47.4082 52.4688 47.0449 52.2227 46.7168C51.9766 46.377 51.6836 46.0898 51.3438 45.8555C51.0039 45.6094 50.6172 45.4453 50.1836 45.3633L48.7773 45.3281C48.7773 46.1133 48.7715 46.8984 48.7598 47.6836C48.7598 48.4688 48.7598 49.3008 48.7598 50.1797C48.7598 51.0586 48.7539 52.002 48.7422 53.0098C48.7422 54.0176 48.7422 55.1426 48.7422 56.3848H53.998V57.0352H38.002V56.3848H42.1504L42.291 32.9531H37.7559V32.3027ZM61.7324 32.2676L83.0547 32.2324L82.8613 44.7656H82.2109C82.2344 43.2891 82.1465 41.9883 81.9473 40.8633C81.7598 39.7266 81.502 38.7422 81.1738 37.9102C80.8574 37.0781 80.4883 36.3809 80.0664 35.8184C79.6445 35.2441 79.2109 34.7695 78.7656 34.3945C78.3203 34.0195 77.8809 33.7324 77.4473 33.5332C77.0254 33.334 76.6445 33.1875 76.3047 33.0938C75.9766 33 75.707 32.9414 75.4961 32.918C75.2969 32.8945 75.1973 32.8828 75.1973 32.8828C74.8574 32.8828 74.5059 32.8887 74.1426 32.9004C73.791 32.9121 73.4453 32.918 73.1055 32.918C73.0938 33.0586 73.0762 33.3574 73.0527 33.8145C73.041 34.2715 73.0176 34.957 72.9824 35.8711C72.9473 36.7734 72.9062 37.9453 72.8594 39.3867C72.8125 40.8164 72.7656 42.5742 72.7188 44.6602C72.8242 44.6484 73.0234 44.6309 73.3164 44.6074C73.6211 44.584 73.9609 44.5195 74.3359 44.4141C74.7227 44.2969 75.1211 44.1211 75.5312 43.8867C75.9414 43.6406 76.3164 43.3008 76.6562 42.8672C76.9961 42.4219 77.2715 41.8594 77.4824 41.1797C77.7051 40.5 77.8105 39.668 77.7988 38.6836H78.4316H77.7988H78.4316L78.2559 52.0957H77.6055C77.5703 50.9473 77.4238 49.8984 77.166 48.9492C77.0605 48.5508 76.9199 48.1523 76.7441 47.7539C76.5684 47.3555 76.3574 46.9922 76.1113 46.6641C75.8652 46.3242 75.5723 46.0371 75.2324 45.8027C74.8926 45.5684 74.5 45.4102 74.0547 45.3281L72.7188 45.293L72.5078 56.3848H77.0781C77.3359 56.3613 77.6875 56.2969 78.1328 56.1914C78.5781 56.0859 79.0527 55.9102 79.5566 55.6641C80.0723 55.418 80.5938 55.084 81.1211 54.6621C81.6484 54.2402 82.1289 53.6953 82.5625 53.0273C83.0078 52.3477 83.3711 51.5332 83.6523 50.584C83.9453 49.623 84.1152 48.4863 84.1621 47.1738H84.8125L84.5312 57.0352H61.7676V56.3848H65.916L66.0215 32.918H61.7324V32.2676ZM99.4551 56.3496H102.127L99.6309 50.4082H91.6855L89.3125 56.4551H93.8477V57H84.6191V56.3848H88.6621L95.2012 39.9316L98.6641 31.2305L109.861 56.3496H113.096V57H99.4551V56.3496ZM91.9316 49.7578H99.3496L95.5352 40.7578L91.9316 49.7578ZM115.697 56.4199H119.793L119.898 32.918H119.547V32.9531C118.328 33.0469 117.227 33.4512 116.242 34.166C115.82 34.4707 115.41 34.8574 115.012 35.3262C114.613 35.7949 114.25 36.375 113.922 37.0664C113.605 37.7578 113.342 38.5664 113.131 39.4922C112.92 40.418 112.803 41.4902 112.779 42.709H112.129L112.41 32.0566L134.049 32.707L133.873 44.1152H133.223C133.234 42.6973 133.135 41.4551 132.924 40.3887C132.713 39.3223 132.426 38.4023 132.062 37.6289C131.699 36.8438 131.289 36.1934 130.832 35.6777C130.375 35.1504 129.912 34.7227 129.443 34.3945C128.975 34.0547 128.523 33.8027 128.09 33.6387C127.668 33.4629 127.305 33.3398 127 33.2695C126.977 33.5039 126.953 33.8496 126.93 34.3066C126.906 34.7637 126.877 35.3848 126.842 36.1699C126.818 36.9551 126.789 37.9336 126.754 39.1055C126.719 40.2656 126.678 41.666 126.631 43.3066C126.596 44.9473 126.555 46.8516 126.508 49.0195C126.473 51.1758 126.432 53.6426 126.385 56.4199H130.709V57.0703H115.697V56.4199ZM135.613 32.127L150.291 32.5488V33.1992L147.021 33.0938L146.846 46.4531C146.846 46.9219 146.846 47.5137 146.846 48.2285C146.857 48.9316 146.898 49.6816 146.969 50.4785C147.039 51.2637 147.156 52.0488 147.32 52.834C147.484 53.6191 147.719 54.3281 148.023 54.9609C148.34 55.5938 148.738 56.1094 149.219 56.5078C149.711 56.9062 150.32 57.1055 151.047 57.1055C151.879 57.1055 152.582 56.9004 153.156 56.4902C153.742 56.0801 154.223 55.541 154.598 54.873C154.984 54.1934 155.283 53.4258 155.494 52.5703C155.717 51.7031 155.881 50.8242 155.986 49.9336C156.104 49.043 156.174 48.1699 156.197 47.3145C156.232 46.459 156.256 45.7031 156.268 45.0469L156.391 32.8828L152.576 32.7773V32.127L167.254 32.5488V33.1992L163.475 33.0938C163.451 33.3047 163.422 33.6797 163.387 34.2188C163.352 34.7578 163.311 35.5078 163.264 36.4688C163.229 37.418 163.193 38.6016 163.158 40.0195C163.123 41.4258 163.1 43.1016 163.088 45.0469C163.076 46.1484 162.936 47.2324 162.666 48.2988C162.396 49.3535 162.01 50.3496 161.506 51.2871C161.014 52.2246 160.41 53.0918 159.695 53.8887C158.98 54.6738 158.178 55.3535 157.287 55.9277C156.408 56.502 155.441 56.9473 154.387 57.2637C153.332 57.5918 152.219 57.7559 151.047 57.7559C149.348 57.7559 147.812 57.4219 146.441 56.7539C145.082 56.0859 143.922 55.1777 142.961 54.0293C142.012 52.8809 141.279 51.5391 140.764 50.0039C140.26 48.457 140.02 46.8047 140.043 45.0469L140.184 32.918L135.613 32.7773V32.127ZM182.951 56.4902L185.465 56.4551L179.348 48.2109H179.242C179.148 48.2344 179.066 48.2461 178.996 48.2461C178.926 48.2461 178.85 48.2461 178.768 48.2461L178.627 56.4902H181.65V57.1406H168.08V56.4902H172.264L172.475 33.2695C171.854 33.2695 171.221 33.2754 170.576 33.2871C169.932 33.2988 169.223 33.3047 168.449 33.3047V32.6719C171.039 32.6602 173.166 32.6484 174.83 32.6367C176.494 32.625 177.801 32.6133 178.75 32.6016C179.863 32.5898 180.701 32.584 181.264 32.584C181.861 32.584 182.559 32.6016 183.355 32.6367C184.152 32.6719 184.973 32.7715 185.816 32.9355C186.66 33.0879 187.492 33.3281 188.312 33.6562C189.133 33.9844 189.865 34.4414 190.51 35.0273C191.154 35.6016 191.676 36.3281 192.074 37.207C192.473 38.0859 192.672 39.1523 192.672 40.4062C192.672 41.5312 192.502 42.5098 192.162 43.3418C191.822 44.1738 191.342 44.8828 190.721 45.4688C190.111 46.0547 189.373 46.5352 188.506 46.9102C187.639 47.2734 186.672 47.5547 185.605 47.7539L193.059 56.3145L192.988 56.3496L195.941 56.3145V56.9648L182.951 57.1406V56.4902ZM186.484 40.3711C186.484 39.293 186.396 38.373 186.221 37.6113C186.045 36.8379 185.793 36.1934 185.465 35.6777C185.148 35.1504 184.762 34.7285 184.305 34.4121C183.848 34.0957 183.338 33.8555 182.775 33.6914C182.225 33.5273 181.627 33.4219 180.982 33.375C180.35 33.3164 179.688 33.2812 178.996 33.2695L178.768 47.5605H179.207C180.121 47.4668 180.924 47.291 181.615 47.0332C182.307 46.7754 182.904 46.4707 183.408 46.1191C183.924 45.7676 184.352 45.3809 184.691 44.959C185.043 44.5254 185.336 44.0977 185.57 43.6758C186.109 42.6797 186.414 41.5781 186.484 40.3711ZM196.697 32.2676L218.02 32.2324L217.826 44.7656H217.176C217.199 43.2891 217.111 41.9883 216.912 40.8633C216.725 39.7266 216.467 38.7422 216.139 37.9102C215.822 37.0781 215.453 36.3809 215.031 35.8184C214.609 35.2441 214.176 34.7695 213.73 34.3945C213.285 34.0195 212.846 33.7324 212.412 33.5332C211.99 33.334 211.609 33.1875 211.27 33.0938C210.941 33 210.672 32.9414 210.461 32.918C210.262 32.8945 210.162 32.8828 210.162 32.8828C209.822 32.8828 209.471 32.8887 209.107 32.9004C208.756 32.9121 208.41 32.918 208.07 32.918C208.059 33.0586 208.041 33.3574 208.018 33.8145C208.006 34.2715 207.982 34.957 207.947 35.8711C207.912 36.7734 207.871 37.9453 207.824 39.3867C207.777 40.8164 207.73 42.5742 207.684 44.6602C207.789 44.6484 207.988 44.6309 208.281 44.6074C208.586 44.584 208.926 44.5195 209.301 44.4141C209.688 44.2969 210.086 44.1211 210.496 43.8867C210.906 43.6406 211.281 43.3008 211.621 42.8672C211.961 42.4219 212.236 41.8594 212.447 41.1797C212.67 40.5 212.775 39.668 212.764 38.6836H213.396H212.764H213.396L213.221 52.0957H212.57C212.535 50.9473 212.389 49.8984 212.131 48.9492C212.025 48.5508 211.885 48.1523 211.709 47.7539C211.533 47.3555 211.322 46.9922 211.076 46.6641C210.83 46.3242 210.537 46.0371 210.197 45.8027C209.857 45.5684 209.465 45.4102 209.02 45.3281L207.684 45.293L207.473 56.3848H212.043C212.301 56.3613 212.652 56.2969 213.098 56.1914C213.543 56.0859 214.018 55.9102 214.521 55.6641C215.037 55.418 215.559 55.084 216.086 54.6621C216.613 54.2402 217.094 53.6953 217.527 53.0273C217.973 52.3477 218.336 51.5332 218.617 50.584C218.91 49.623 219.08 48.4863 219.127 47.1738H219.777L219.496 57.0352H196.732V56.3848H200.881L200.986 32.918H196.697V32.2676ZM223.012 32.9531C223.492 32.8711 224.008 32.8008 224.559 32.7422C225.109 32.6719 225.672 32.6133 226.246 32.5664C226.832 32.5078 227.418 32.4609 228.004 32.4258C228.59 32.3789 229.146 32.3438 229.674 32.3203C230.916 32.2617 232.176 32.2207 233.453 32.1973C233.629 32.1738 233.84 32.1621 234.086 32.1621C234.332 32.1621 234.555 32.1621 234.754 32.1621C235.715 32.1621 236.717 32.2441 237.76 32.4082C238.803 32.5605 239.822 32.8242 240.818 33.1992C241.826 33.5742 242.775 34.0723 243.666 34.6934C244.568 35.3027 245.359 36.0645 246.039 36.9785C246.719 37.8926 247.258 38.9707 247.656 40.2129C248.055 41.4551 248.254 42.8848 248.254 44.502C248.254 45.7324 248.102 46.8574 247.797 47.877C247.492 48.8965 247.07 49.8281 246.531 50.6719C246.004 51.5039 245.383 52.2539 244.668 52.9219C243.953 53.5781 243.186 54.1582 242.365 54.6621C241.557 55.1543 240.719 55.582 239.852 55.9453C238.984 56.2969 238.123 56.584 237.268 56.8066C236.424 57.0293 235.609 57.1875 234.824 57.2812C234.039 57.3867 233.33 57.4395 232.697 57.4395C232.592 57.4395 232.48 57.4336 232.363 57.4219C232.258 57.4102 232.152 57.4043 232.047 57.4043C231.801 57.4043 231.373 57.3926 230.764 57.3691C230.166 57.3574 229.451 57.3223 228.619 57.2637C227.799 57.2168 226.896 57.1465 225.912 57.0527C224.939 56.959 223.961 56.8359 222.977 56.6836L223.047 56.0332C223.633 56.127 224.213 56.209 224.787 56.2793C225.361 56.3379 225.924 56.3965 226.475 56.4551V33.1641C225.912 33.2227 225.355 33.2871 224.805 33.3574C224.254 33.4277 223.703 33.5098 223.152 33.6035L223.012 32.9531ZM241.732 44.3965V43.9395C241.732 43.6465 241.721 43.2715 241.697 42.8145C241.674 42.3457 241.615 41.8301 241.521 41.2676C241.439 40.6934 241.311 40.0898 241.135 39.457C240.971 38.8242 240.742 38.2031 240.449 37.5938C240.168 36.9727 239.816 36.3867 239.395 35.8359C238.973 35.2734 238.463 34.7812 237.865 34.3594C237.268 33.9258 236.576 33.5859 235.791 33.3398C235.006 33.082 234.104 32.9531 233.084 32.9531V56.7539C234.174 56.7539 235.129 56.584 235.949 56.2441C236.77 55.8926 237.484 55.4355 238.094 54.873C238.703 54.3105 239.213 53.666 239.623 52.9395C240.045 52.2129 240.391 51.4688 240.66 50.707C240.93 49.9453 241.135 49.2012 241.275 48.4746C241.428 47.7363 241.533 47.0742 241.592 46.4883C241.662 45.9023 241.703 45.4219 241.715 45.0469C241.727 44.6602 241.732 44.4434 241.732 44.3965ZM273.162 56.8945C273.502 56.8945 273.906 56.8887 274.375 56.877C274.844 56.8652 275.348 56.8008 275.887 56.6836C276.426 56.5664 276.988 56.3789 277.574 56.1211C278.16 55.8633 278.74 55.4941 279.314 55.0137C279.9 54.5215 280.469 53.8945 281.02 53.1328C281.57 52.3711 282.08 51.4277 282.549 50.3027L283.129 50.5137C282.648 51.6621 282.127 52.6348 281.564 53.4316C281.014 54.2168 280.439 54.873 279.842 55.4004C279.256 55.916 278.664 56.3203 278.066 56.6133C277.469 56.9062 276.889 57.1172 276.326 57.2461C275.764 57.3867 275.23 57.4688 274.727 57.4922C274.234 57.5273 273.795 57.5449 273.408 57.5449C273.057 57.5449 272.605 57.5273 272.055 57.4922C271.516 57.4688 270.918 57.3984 270.262 57.2812C269.605 57.1641 268.914 56.9883 268.188 56.7539C267.473 56.5195 266.764 56.2031 266.061 55.8047C265.357 55.3945 264.689 54.8906 264.057 54.293C263.424 53.6836 262.867 52.9512 262.387 52.0957C261.906 51.2285 261.52 50.2207 261.227 49.0723C260.945 47.9238 260.805 46.6055 260.805 45.1172C260.805 43.2305 261.021 41.5957 261.455 40.2129C261.889 38.8184 262.463 37.6348 263.178 36.6621C263.904 35.6777 264.73 34.875 265.656 34.2539C266.582 33.6211 267.531 33.1289 268.504 32.7773C269.477 32.4141 270.438 32.1621 271.387 32.0215C272.336 31.8809 273.191 31.8047 273.953 31.793H274.199C275.652 31.793 276.971 31.9922 278.154 32.3906C279.35 32.7773 280.369 33.2988 281.213 33.9551C282.068 34.6113 282.725 35.3613 283.182 36.2051C283.65 37.0488 283.885 37.9219 283.885 38.8242C283.885 39.2578 283.803 39.6621 283.639 40.0371C283.475 40.4004 283.258 40.7168 282.988 40.9863C282.73 41.2559 282.426 41.4668 282.074 41.6191C281.723 41.7715 281.365 41.8477 281.002 41.8477C280.627 41.8359 280.246 41.7422 279.859 41.5664C279.484 41.3906 279.139 41.1445 278.822 40.8281C278.506 40.5117 278.23 40.125 277.996 39.668C277.773 39.2109 277.627 38.7012 277.557 38.1387L277.434 37.3125C277.363 36.7852 277.27 36.2402 277.152 35.6777C277.035 35.1035 276.854 34.5762 276.607 34.0957C276.373 33.6152 276.062 33.2227 275.676 32.918C275.289 32.6016 274.797 32.4434 274.199 32.4434H273.988C273.496 32.4785 272.992 32.6016 272.477 32.8125C271.961 33.0117 271.457 33.3281 270.965 33.7617C270.484 34.1836 270.021 34.7285 269.576 35.3965C269.143 36.0527 268.762 36.8496 268.434 37.7871C268.105 38.7129 267.842 39.7969 267.643 41.0391C267.455 42.2695 267.361 43.6641 267.361 45.2227C267.361 46.793 267.443 48.1699 267.607 49.3535C267.783 50.5254 268.012 51.5449 268.293 52.4121C268.586 53.2676 268.92 53.9824 269.295 54.5566C269.682 55.1191 270.08 55.5703 270.49 55.9102C270.912 56.25 271.334 56.4961 271.756 56.6484C272.178 56.8008 272.582 56.8828 272.969 56.8945H273.162ZM297.174 56.3496H299.846L297.35 50.4082H289.404L287.031 56.4551H291.566V57H282.338V56.3848H286.381L292.92 39.9316L296.383 31.2305L307.58 56.3496H310.814V57H297.174V56.3496ZM289.65 49.7578H297.068L293.254 40.7578L289.65 49.7578ZM324.877 56.4902L327.391 56.4551L321.273 48.2109H321.168C321.074 48.2344 320.992 48.2461 320.922 48.2461C320.852 48.2461 320.775 48.2461 320.693 48.2461L320.553 56.4902H323.576V57.1406H310.006V56.4902H314.189L314.4 33.2695C313.779 33.2695 313.146 33.2754 312.502 33.2871C311.857 33.2988 311.148 33.3047 310.375 33.3047V32.6719C312.965 32.6602 315.092 32.6484 316.756 32.6367C318.42 32.625 319.727 32.6133 320.676 32.6016C321.789 32.5898 322.627 32.584 323.189 32.584C323.787 32.584 324.484 32.6016 325.281 32.6367C326.078 32.6719 326.898 32.7715 327.742 32.9355C328.586 33.0879 329.418 33.3281 330.238 33.6562C331.059 33.9844 331.791 34.4414 332.436 35.0273C333.08 35.6016 333.602 36.3281 334 37.207C334.398 38.0859 334.598 39.1523 334.598 40.4062C334.598 41.5312 334.428 42.5098 334.088 43.3418C333.748 44.1738 333.268 44.8828 332.646 45.4688C332.037 46.0547 331.299 46.5352 330.432 46.9102C329.564 47.2734 328.598 47.5547 327.531 47.7539L334.984 56.3145L334.914 56.3496L337.867 56.3145V56.9648L324.877 57.1406V56.4902ZM328.41 40.3711C328.41 39.293 328.322 38.373 328.146 37.6113C327.971 36.8379 327.719 36.1934 327.391 35.6777C327.074 35.1504 326.688 34.7285 326.23 34.4121C325.773 34.0957 325.264 33.8555 324.701 33.6914C324.15 33.5273 323.553 33.4219 322.908 33.375C322.275 33.3164 321.613 33.2812 320.922 33.2695L320.693 47.5605H321.133C322.047 47.4668 322.85 47.291 323.541 47.0332C324.232 46.7754 324.83 46.4707 325.334 46.1191C325.85 45.7676 326.277 45.3809 326.617 44.959C326.969 44.5254 327.262 44.0977 327.496 43.6758C328.035 42.6797 328.34 41.5781 328.41 40.3711ZM350.506 42.9902C352.322 43.1895 353.863 43.5234 355.129 43.9922C356.395 44.4609 357.42 45.0234 358.205 45.6797C359.002 46.3242 359.576 47.0449 359.928 47.8418C360.291 48.627 360.473 49.4473 360.473 50.3027C360.473 51.2871 360.314 52.1543 359.998 52.9043C359.682 53.6543 359.26 54.3164 358.732 54.8906C358.217 55.4531 357.619 55.9277 356.939 56.3145C356.271 56.7012 355.58 57.0117 354.865 57.2461C354.162 57.4922 353.465 57.668 352.773 57.7734C352.082 57.8906 351.461 57.9551 350.91 57.9668H350.471C349.885 57.9551 349.211 57.9023 348.449 57.8086C347.699 57.7266 346.926 57.5918 346.129 57.4043C345.344 57.2168 344.57 56.9766 343.809 56.6836C343.047 56.3789 342.367 56.0039 341.77 55.5586C341.172 55.1133 340.691 54.5859 340.328 53.9766C339.965 53.3672 339.783 52.6582 339.783 51.8496C339.783 51.416 339.854 51.0352 339.994 50.707C340.135 50.3789 340.328 50.1035 340.574 49.8809C340.82 49.6465 341.102 49.4648 341.418 49.3359C341.746 49.207 342.098 49.1309 342.473 49.1074C342.93 49.1074 343.352 49.207 343.738 49.4062C344.137 49.5938 344.482 49.8633 344.775 50.2148C345.068 50.5547 345.303 50.9707 345.479 51.4629C345.666 51.9434 345.771 52.4824 345.795 53.0801C345.818 53.5605 345.93 54.0527 346.129 54.5566C346.328 55.0605 346.621 55.5176 347.008 55.9277C347.395 56.3379 347.875 56.6719 348.449 56.9297C349.023 57.1875 349.697 57.3164 350.471 57.3164C351.08 57.3164 351.631 57.1934 352.123 56.9473C352.627 56.7012 353.055 56.373 353.406 55.9629C353.758 55.5527 354.027 55.0781 354.215 54.5391C354.402 53.9883 354.496 53.4141 354.496 52.8164C354.496 52.2773 354.402 51.7441 354.215 51.2168C354.027 50.6895 353.734 50.2207 353.336 49.8105C352.938 49.3887 352.428 49.043 351.807 48.7734C351.186 48.5039 350.441 48.3516 349.574 48.3164C347.805 48.2344 346.293 47.9707 345.039 47.5254C343.797 47.0801 342.777 46.5059 341.98 45.8027C341.184 45.0879 340.598 44.2734 340.223 43.3594C339.859 42.4453 339.678 41.4844 339.678 40.4766C339.678 39.3867 339.842 38.4316 340.17 37.6113C340.498 36.7793 340.932 36.0645 341.471 35.4668C342.021 34.8574 342.648 34.3535 343.352 33.9551C344.055 33.5449 344.781 33.2168 345.531 32.9707C346.293 32.7246 347.043 32.5547 347.781 32.4609C348.531 32.3555 349.223 32.3027 349.855 32.3027H350.066C350.652 32.3145 351.303 32.3672 352.018 32.4609C352.744 32.543 353.477 32.6777 354.215 32.8652C354.965 33.0527 355.686 33.2988 356.377 33.6035C357.08 33.9082 357.701 34.2832 358.24 34.7285C358.791 35.1738 359.23 35.7012 359.559 36.3105C359.887 36.9082 360.051 37.5996 360.051 38.3848C360.051 38.8418 359.975 39.2402 359.822 39.5801C359.67 39.9199 359.465 40.207 359.207 40.4414C358.961 40.6641 358.668 40.834 358.328 40.9512C357.988 41.0684 357.637 41.127 357.273 41.127C356.828 41.127 356.412 41.0273 356.025 40.8281C355.639 40.6289 355.299 40.3535 355.006 40.002C354.725 39.6504 354.496 39.2344 354.32 38.7539C354.156 38.2617 354.074 37.7227 354.074 37.1367C354.074 36.6328 354.01 36.1348 353.881 35.6426C353.752 35.1504 353.529 34.7109 353.213 34.3242C352.908 33.9258 352.498 33.6035 351.982 33.3574C351.467 33.1113 350.828 32.9766 350.066 32.9531H349.891C349.316 32.9766 348.783 33.1465 348.291 33.4629C347.811 33.7676 347.395 34.1719 347.043 34.6758C346.691 35.1797 346.416 35.748 346.217 36.3809C346.029 37.002 345.936 37.6348 345.936 38.2793C345.936 38.8418 346.018 39.3867 346.182 39.9141C346.357 40.4414 346.627 40.9219 346.99 41.3555C347.365 41.7773 347.84 42.1348 348.414 42.4277C348.988 42.7207 349.686 42.9082 350.506 42.9902Z" fill="black"/>
<defs>
<linearGradient id="paint0_linear_4841_272" x1="91.205" y1="84.4122" x2="92.411" y2="-44.4609" gradientUnits="userSpaceOnUse">
<stop offset="0.102848" stop-color="#F0C74B"/>
<stop offset="0.376053" stop-color="#A00A0A"/>
<stop offset="1" stop-color="#990303"/>
</linearGradient>
</defs>
</svg>
