<svg width="692" height="231" viewBox="0 0 692 231" fill="none" xmlns="http://www.w3.org/2000/svg">
<path d="M0 9H325V19.7419H177.976H12.5V120.5V173V221.849H161.395V231H0V9Z" fill="url(#paint0_linear_6721_10)"/>
<g opacity="0.9" filter="url(#filter0_d_6721_10)">
<path d="M54.424 154.48C54.424 155.408 54.28 156.24 53.992 156.976C53.736 157.712 53.368 158.368 52.888 158.944C52.408 159.52 51.848 160.032 51.208 160.48C50.568 160.928 49.864 161.344 49.096 161.728C49.448 161.856 49.864 162.064 50.344 162.352C50.824 162.608 51.288 162.976 51.736 163.456C52.184 163.936 52.552 164.56 52.84 165.328C53.16 166.064 53.32 166.976 53.32 168.064C53.32 169.504 53.016 170.832 52.408 172.048C51.8 173.264 50.888 174.32 49.672 175.216C48.488 176.08 47.016 176.768 45.256 177.28C43.528 177.76 41.528 178 39.256 178H25L31.48 147.52H44.104C45.352 147.52 46.584 147.616 47.8 147.808C49.048 147.968 50.152 148.304 51.112 148.816C52.104 149.328 52.904 150.048 53.512 150.976C54.12 151.872 54.424 153.04 54.424 154.48ZM41.368 160.288C42.072 160.288 42.664 160.08 43.144 159.664C43.656 159.248 44.072 158.736 44.392 158.128C44.712 157.488 44.952 156.816 45.112 156.112C45.272 155.376 45.352 154.72 45.352 154.144C45.352 153.216 45.128 152.432 44.68 151.792C44.264 151.12 43.592 150.784 42.664 150.784H41.224L39.16 160.288H41.368ZM37.912 174.976C38.872 174.976 39.672 174.704 40.312 174.16C40.952 173.616 41.48 172.944 41.896 172.144C42.312 171.344 42.6 170.512 42.76 169.648C42.952 168.752 43.048 167.968 43.048 167.296C43.048 166.176 42.808 165.296 42.328 164.656C41.88 163.984 41.144 163.648 40.12 163.648H38.344L35.992 174.976H37.912ZM65.3234 168.352C65.1954 169.056 65.0994 169.728 65.0354 170.368C65.0034 171.008 64.9874 171.584 64.9874 172.096C64.9874 172.384 65.0034 172.704 65.0354 173.056C65.0674 173.408 65.1314 173.744 65.2274 174.064C65.3554 174.352 65.5154 174.608 65.7074 174.832C65.9314 175.024 66.2354 175.12 66.6194 175.12C66.9074 175.12 67.2274 175.024 67.5794 174.832C67.9634 174.64 68.3314 174.368 68.6834 174.016C69.0674 173.664 69.4194 173.232 69.7394 172.72C70.0914 172.208 70.3634 171.632 70.5554 170.992H78.4274L77.1794 176.128C76.5394 176.544 75.8034 176.896 74.9714 177.184C74.1394 177.472 73.2594 177.712 72.3314 177.904C71.4034 178.064 70.4594 178.176 69.4994 178.24C68.5394 178.336 67.6274 178.384 66.7634 178.384C65.1634 178.384 63.6754 178.24 62.2994 177.952C60.9234 177.664 59.7234 177.168 58.6994 176.464C57.6754 175.76 56.8594 174.832 56.2514 173.68C55.6754 172.496 55.3874 171.04 55.3874 169.312C55.3874 167.744 55.6274 166.208 56.1074 164.704C56.6194 163.2 57.4514 161.872 58.6034 160.72C59.7874 159.536 61.3554 158.592 63.3074 157.888C65.2914 157.184 67.7554 156.832 70.6994 156.832C73.8994 156.832 76.2994 157.328 77.8994 158.32C79.5314 159.312 80.3474 160.864 80.3474 162.976C80.3474 163.84 80.2194 164.784 79.9634 165.808C79.7074 166.8 79.3234 167.648 78.8114 168.352H65.3234ZM71.7074 162.64C71.7074 161.648 71.5474 160.976 71.2274 160.624C70.9074 160.272 70.5234 160.096 70.0754 160.096C69.5634 160.096 69.0834 160.272 68.6354 160.624C68.2194 160.944 67.8354 161.392 67.4834 161.968C67.1314 162.512 66.8114 163.152 66.5234 163.888C66.2354 164.592 65.9954 165.344 65.8034 166.144H71.2754C71.3394 165.76 71.4034 165.36 71.4674 164.944C71.5314 164.592 71.5794 164.208 71.6114 163.792C71.6754 163.376 71.7074 162.992 71.7074 162.64ZM92.8293 157.36L94.2693 171.472L101.853 157.36H106.941L95.3733 178C94.2213 180.016 93.0533 181.568 91.8693 182.656C90.6853 183.744 89.3893 184.544 87.9813 185.056C86.6053 185.568 85.0693 185.856 83.3733 185.92C81.7093 186.016 79.8052 186.064 77.6612 186.064L78.3812 182.752C79.4372 182.752 80.4132 182.736 81.3093 182.704C82.2373 182.672 82.9733 182.576 83.5173 182.416C84.2533 182.224 84.7813 181.872 85.1013 181.36C85.4213 180.88 85.5813 180.16 85.5813 179.2C85.5813 178.56 85.5173 177.824 85.3893 176.992C85.2933 176.16 85.1813 175.28 85.0533 174.352L82.7013 157.36H92.8293ZM120.042 156.832C123.85 156.832 126.618 157.504 128.346 158.848C130.17 160.256 131.082 162.592 131.082 165.856C131.082 167.872 130.746 169.696 130.074 171.328C129.402 172.928 128.458 174.256 127.242 175.312C124.81 177.36 121.29 178.384 116.682 178.384C112.746 178.384 109.93 177.632 108.234 176.128C106.41 174.56 105.498 172.208 105.498 169.072C105.498 166.992 105.914 165.104 106.746 163.408C107.61 161.712 108.842 160.304 110.442 159.184C112.778 157.616 115.978 156.832 120.042 156.832ZM116.778 175.12C117.578 175.12 118.266 174.672 118.842 173.776C119.45 172.88 119.93 171.792 120.282 170.512C120.634 169.2 120.89 167.856 121.05 166.48C121.242 165.072 121.338 163.856 121.338 162.832C121.338 161.936 121.242 161.264 121.05 160.816C120.89 160.336 120.522 160.096 119.946 160.096C119.082 160.096 118.33 160.56 117.69 161.488C117.082 162.416 116.586 163.52 116.202 164.8C115.818 166.08 115.53 167.392 115.338 168.736C115.178 170.08 115.098 171.168 115.098 172C115.098 174.08 115.658 175.12 116.778 175.12ZM145.395 160.432C146.067 159.792 146.819 159.2 147.651 158.656C148.387 158.208 149.251 157.792 150.243 157.408C151.235 157.024 152.339 156.832 153.555 156.832C155.219 156.832 156.595 157.264 157.683 158.128C158.771 158.96 159.315 160.112 159.315 161.584C159.315 162 159.267 162.512 159.171 163.12C159.075 163.696 158.963 164.304 158.835 164.944C158.707 165.584 158.563 166.24 158.403 166.912C158.275 167.552 158.163 168.128 158.067 168.64L156.051 178H146.307L148.947 165.472C149.011 165.056 149.091 164.64 149.187 164.224C149.283 163.776 149.331 163.376 149.331 163.024C149.331 162.544 149.203 162.16 148.947 161.872C148.723 161.552 148.371 161.392 147.891 161.392C147.315 161.392 146.755 161.6 146.211 162.016C145.699 162.432 145.299 162.784 145.011 163.072L141.843 178H132.051L136.419 157.36H144.243L145.107 160.432H145.395ZM180.624 145.744H190.464L183.6 178H175.824L174.96 174.928H174.624C174.432 175.216 174.128 175.568 173.712 175.984C173.328 176.368 172.832 176.752 172.224 177.136C171.616 177.488 170.896 177.776 170.064 178C169.232 178.256 168.272 178.384 167.184 178.384C166.064 178.384 165.104 178.224 164.304 177.904C163.536 177.552 162.896 177.088 162.384 176.512C161.904 175.936 161.552 175.248 161.328 174.448C161.104 173.616 160.992 172.72 160.992 171.76C160.992 171.344 161.024 170.688 161.088 169.792C161.152 168.864 161.296 167.856 161.52 166.768C161.776 165.648 162.128 164.512 162.576 163.36C163.056 162.176 163.68 161.104 164.448 160.144C165.248 159.184 166.224 158.4 167.376 157.792C168.528 157.152 169.92 156.832 171.552 156.832C172.064 156.832 172.608 156.88 173.184 156.976C173.76 157.072 174.304 157.248 174.816 157.504C175.36 157.76 175.84 158.128 176.256 158.608C176.672 159.088 176.976 159.712 177.168 160.48H177.504L180.624 145.744ZM174.768 161.536C174 161.536 173.36 161.968 172.848 162.832C172.336 163.664 171.92 164.64 171.6 165.76C171.28 166.88 171.04 168 170.88 169.12C170.752 170.24 170.688 171.072 170.688 171.616C170.688 172.256 170.784 172.8 170.976 173.248C171.168 173.664 171.536 173.872 172.08 173.872C172.4 173.872 172.704 173.808 172.992 173.68C173.312 173.52 173.6 173.344 173.856 173.152C174.144 172.928 174.384 172.704 174.576 172.48C174.768 172.256 174.928 172.064 175.056 171.904L176.928 163.168C176.704 162.816 176.4 162.464 176.016 162.112C175.664 161.728 175.248 161.536 174.768 161.536ZM198.864 157.36C200.048 157.104 201.088 156.816 201.984 156.496C202.88 156.176 203.696 155.776 204.432 155.296C205.2 154.816 205.92 154.224 206.592 153.52C207.296 152.816 208.048 151.952 208.848 150.928H213.792L212.4 157.36H216.144L215.52 160.576H211.728L209.76 169.936C209.6 170.672 209.472 171.328 209.376 171.904C209.28 172.48 209.232 172.928 209.232 173.248C209.232 173.888 209.456 174.288 209.904 174.448C210.384 174.608 211.264 174.688 212.544 174.688L211.824 178C211.6 178.064 211.248 178.112 210.768 178.144C210.32 178.176 209.808 178.208 209.232 178.24C208.688 178.304 208.112 178.336 207.504 178.336C206.928 178.368 206.416 178.384 205.968 178.384C205.168 178.384 204.384 178.32 203.616 178.192C202.848 178.096 202.16 177.888 201.552 177.568C200.944 177.216 200.448 176.72 200.064 176.08C199.712 175.44 199.536 174.576 199.536 173.488C199.536 173.104 199.552 172.624 199.584 172.048C199.648 171.472 199.76 170.832 199.92 170.128L201.936 160.576H198.192L198.864 157.36ZM228.509 160.432H228.845C229.453 159.824 230.157 159.264 230.957 158.752C231.629 158.304 232.429 157.904 233.357 157.552C234.285 157.2 235.325 157.024 236.477 157.024C238.141 157.024 239.517 157.456 240.605 158.32C241.693 159.152 242.237 160.304 242.237 161.776C242.237 162.224 242.189 162.736 242.093 163.312C241.997 163.856 241.885 164.448 241.757 165.088C241.629 165.696 241.485 166.32 241.325 166.96C241.197 167.568 241.085 168.128 240.989 168.64L238.973 178H229.229L231.869 165.472C231.933 165.056 232.013 164.64 232.109 164.224C232.205 163.776 232.253 163.376 232.253 163.024C232.253 162.544 232.125 162.16 231.869 161.872C231.645 161.552 231.293 161.392 230.813 161.392C230.237 161.392 229.677 161.6 229.133 162.016C228.621 162.432 228.221 162.8 227.933 163.12L224.765 178H214.973L221.789 145.744H231.629L228.509 160.432ZM254.042 168.352C253.914 169.056 253.818 169.728 253.754 170.368C253.722 171.008 253.706 171.584 253.706 172.096C253.706 172.384 253.722 172.704 253.754 173.056C253.786 173.408 253.85 173.744 253.946 174.064C254.074 174.352 254.234 174.608 254.426 174.832C254.65 175.024 254.954 175.12 255.338 175.12C255.626 175.12 255.946 175.024 256.298 174.832C256.682 174.64 257.05 174.368 257.402 174.016C257.786 173.664 258.138 173.232 258.458 172.72C258.81 172.208 259.082 171.632 259.274 170.992H267.146L265.898 176.128C265.258 176.544 264.522 176.896 263.69 177.184C262.858 177.472 261.978 177.712 261.05 177.904C260.122 178.064 259.178 178.176 258.218 178.24C257.258 178.336 256.346 178.384 255.482 178.384C253.882 178.384 252.394 178.24 251.018 177.952C249.642 177.664 248.442 177.168 247.418 176.464C246.394 175.76 245.578 174.832 244.97 173.68C244.394 172.496 244.106 171.04 244.106 169.312C244.106 167.744 244.346 166.208 244.826 164.704C245.338 163.2 246.17 161.872 247.322 160.72C248.506 159.536 250.074 158.592 252.026 157.888C254.01 157.184 256.474 156.832 259.418 156.832C262.618 156.832 265.018 157.328 266.618 158.32C268.25 159.312 269.066 160.864 269.066 162.976C269.066 163.84 268.938 164.784 268.682 165.808C268.426 166.8 268.042 167.648 267.53 168.352H254.042ZM260.426 162.64C260.426 161.648 260.266 160.976 259.946 160.624C259.626 160.272 259.242 160.096 258.794 160.096C258.282 160.096 257.802 160.272 257.354 160.624C256.938 160.944 256.554 161.392 256.202 161.968C255.85 162.512 255.53 163.152 255.242 163.888C254.954 164.592 254.714 165.344 254.522 166.144H259.994C260.058 165.76 260.122 165.36 260.186 164.944C260.25 164.592 260.298 164.208 260.33 163.792C260.394 163.376 260.426 162.992 260.426 162.64ZM298.984 145.744H308.824L301.96 178H294.184L293.32 174.928H292.984C292.792 175.216 292.488 175.568 292.072 175.984C291.688 176.368 291.192 176.752 290.584 177.136C289.976 177.488 289.256 177.776 288.424 178C287.592 178.256 286.632 178.384 285.544 178.384C284.424 178.384 283.464 178.224 282.664 177.904C281.896 177.552 281.256 177.088 280.744 176.512C280.264 175.936 279.912 175.248 279.688 174.448C279.464 173.616 279.352 172.72 279.352 171.76C279.352 171.344 279.384 170.688 279.448 169.792C279.512 168.864 279.656 167.856 279.88 166.768C280.136 165.648 280.488 164.512 280.936 163.36C281.416 162.176 282.04 161.104 282.808 160.144C283.608 159.184 284.584 158.4 285.736 157.792C286.888 157.152 288.28 156.832 289.912 156.832C290.424 156.832 290.968 156.88 291.544 156.976C292.12 157.072 292.664 157.248 293.176 157.504C293.72 157.76 294.2 158.128 294.616 158.608C295.032 159.088 295.336 159.712 295.528 160.48H295.864L298.984 145.744ZM293.128 161.536C292.36 161.536 291.72 161.968 291.208 162.832C290.696 163.664 290.28 164.64 289.96 165.76C289.64 166.88 289.4 168 289.24 169.12C289.112 170.24 289.048 171.072 289.048 171.616C289.048 172.256 289.144 172.8 289.336 173.248C289.528 173.664 289.896 173.872 290.44 173.872C290.76 173.872 291.064 173.808 291.352 173.68C291.672 173.52 291.96 173.344 292.216 173.152C292.504 172.928 292.744 172.704 292.936 172.48C293.128 172.256 293.288 172.064 293.416 171.904L295.288 163.168C295.064 162.816 294.76 162.464 294.376 162.112C294.024 161.728 293.608 161.536 293.128 161.536ZM310.607 157.36H318.431L319.151 160.96H319.487C320.223 159.808 321.167 158.832 322.319 158.032C323.471 157.232 324.991 156.832 326.879 156.832C327.007 156.832 327.199 156.848 327.455 156.88C327.743 156.88 328.047 156.928 328.367 157.024C328.719 157.088 329.071 157.2 329.423 157.36C329.807 157.488 330.175 157.68 330.527 157.936L328.415 167.824H323.183C323.119 165.84 322.943 164.464 322.655 163.696C322.367 162.896 321.903 162.496 321.263 162.496C320.943 162.496 320.591 162.576 320.207 162.736C319.855 162.864 319.487 163.168 319.103 163.648L316.031 178H306.239L310.607 157.36ZM339.186 178H329.442L333.81 157.36H343.65L339.186 178ZM344.898 151.072C344.898 151.808 344.738 152.448 344.418 152.992C344.13 153.536 343.73 154 343.218 154.384C342.738 154.768 342.178 155.056 341.538 155.248C340.898 155.44 340.242 155.536 339.57 155.536C338.29 155.536 337.218 155.232 336.354 154.624C335.49 154.016 335.058 153.056 335.058 151.744C335.058 151.04 335.202 150.416 335.49 149.872C335.778 149.296 336.162 148.832 336.642 148.48C337.154 148.096 337.73 147.808 338.37 147.616C339.042 147.424 339.73 147.328 340.434 147.328C341.682 147.328 342.738 147.632 343.602 148.24C344.466 148.848 344.898 149.792 344.898 151.072ZM345.76 157.36H355.936L357.904 171.472L364.912 157.36H370L359.104 178H349.072L345.76 157.36ZM378.73 168.352C378.602 169.056 378.506 169.728 378.442 170.368C378.41 171.008 378.394 171.584 378.394 172.096C378.394 172.384 378.41 172.704 378.442 173.056C378.474 173.408 378.538 173.744 378.634 174.064C378.762 174.352 378.922 174.608 379.114 174.832C379.338 175.024 379.642 175.12 380.026 175.12C380.314 175.12 380.634 175.024 380.986 174.832C381.37 174.64 381.738 174.368 382.09 174.016C382.474 173.664 382.826 173.232 383.146 172.72C383.498 172.208 383.77 171.632 383.962 170.992H391.834L390.586 176.128C389.946 176.544 389.21 176.896 388.378 177.184C387.546 177.472 386.666 177.712 385.738 177.904C384.81 178.064 383.866 178.176 382.906 178.24C381.946 178.336 381.034 178.384 380.17 178.384C378.57 178.384 377.082 178.24 375.706 177.952C374.33 177.664 373.13 177.168 372.106 176.464C371.082 175.76 370.266 174.832 369.658 173.68C369.082 172.496 368.794 171.04 368.794 169.312C368.794 167.744 369.034 166.208 369.514 164.704C370.026 163.2 370.858 161.872 372.01 160.72C373.194 159.536 374.762 158.592 376.714 157.888C378.698 157.184 381.162 156.832 384.106 156.832C387.306 156.832 389.706 157.328 391.306 158.32C392.938 159.312 393.754 160.864 393.754 162.976C393.754 163.84 393.626 164.784 393.37 165.808C393.114 166.8 392.73 167.648 392.218 168.352H378.73ZM385.114 162.64C385.114 161.648 384.954 160.976 384.634 160.624C384.314 160.272 383.93 160.096 383.482 160.096C382.97 160.096 382.49 160.272 382.042 160.624C381.626 160.944 381.242 161.392 380.89 161.968C380.538 162.512 380.218 163.152 379.93 163.888C379.642 164.592 379.402 165.344 379.21 166.144H384.682C384.746 165.76 384.81 165.36 384.874 164.944C384.938 164.592 384.986 164.208 385.018 163.792C385.082 163.376 385.114 162.992 385.114 162.64Z" fill="white"/>
</g>
<g filter="url(#filter1_d_6721_10)">
<path d="M93.224 125H63.272L49.064 66.248L36.52 125H25L42.28 43.72H72.872L86.312 103.24L98.984 43.72H110.76L93.224 125ZM134.529 99.272C134.188 101.149 133.932 102.941 133.761 104.648C133.676 106.355 133.633 107.891 133.633 109.256C133.633 110.024 133.676 110.877 133.761 111.816C133.846 112.755 134.017 113.651 134.273 114.504C134.614 115.272 135.041 115.955 135.553 116.552C136.15 117.064 136.961 117.32 137.985 117.32C138.753 117.32 139.606 117.064 140.545 116.552C141.569 116.04 142.55 115.315 143.489 114.376C144.513 113.437 145.452 112.285 146.305 110.92C147.244 109.555 147.969 108.019 148.481 106.312H169.473L166.145 120.008C164.438 121.117 162.476 122.056 160.257 122.824C158.038 123.592 155.692 124.232 153.217 124.744C150.742 125.171 148.225 125.469 145.665 125.64C143.105 125.896 140.673 126.024 138.369 126.024C134.102 126.024 130.134 125.64 126.465 124.872C122.796 124.104 119.596 122.781 116.865 120.904C114.134 119.027 111.958 116.552 110.337 113.48C108.801 110.323 108.033 106.44 108.033 101.832C108.033 97.6507 108.673 93.5547 109.953 89.544C111.318 85.5333 113.537 81.992 116.609 78.92C119.766 75.7627 123.948 73.2453 129.153 71.368C134.444 69.4907 141.014 68.552 148.865 68.552C157.398 68.552 163.798 69.8747 168.065 72.52C172.417 75.1653 174.593 79.304 174.593 84.936C174.593 87.24 174.252 89.7573 173.569 92.488C172.886 95.1333 171.862 97.3947 170.497 99.272H134.529ZM151.553 84.04C151.553 81.3947 151.126 79.6027 150.273 78.664C149.42 77.7253 148.396 77.256 147.201 77.256C145.836 77.256 144.556 77.7253 143.361 78.664C142.252 79.5173 141.228 80.712 140.289 82.248C139.35 83.6987 138.497 85.4053 137.729 87.368C136.961 89.2453 136.321 91.2507 135.809 93.384H150.401C150.572 92.36 150.742 91.2933 150.913 90.184C151.084 89.2453 151.212 88.2213 151.297 87.112C151.468 86.0027 151.553 84.9787 151.553 84.04ZM181.888 69.96C185.045 69.2773 187.819 68.5093 190.208 67.656C192.597 66.8027 194.773 65.736 196.736 64.456C198.784 63.176 200.704 61.5973 202.496 59.72C204.373 57.8427 206.379 55.5387 208.512 52.808H221.696L217.984 69.96H227.968L226.304 78.536H216.192L210.944 103.496C210.517 105.459 210.176 107.208 209.92 108.744C209.664 110.28 209.536 111.475 209.536 112.328C209.536 114.035 210.133 115.101 211.328 115.528C212.608 115.955 214.955 116.168 218.368 116.168L216.448 125C215.851 125.171 214.912 125.299 213.632 125.384C212.437 125.469 211.072 125.555 209.536 125.64C208.085 125.811 206.549 125.896 204.928 125.896C203.392 125.981 202.027 126.024 200.832 126.024C198.699 126.024 196.608 125.853 194.56 125.512C192.512 125.256 190.677 124.701 189.056 123.848C187.435 122.909 186.112 121.587 185.088 119.88C184.149 118.173 183.68 115.869 183.68 112.968C183.68 111.944 183.723 110.664 183.808 109.128C183.979 107.592 184.277 105.885 184.704 104.008L190.08 78.536H180.096L181.888 69.96Z" fill="#F0C74B"/>
<path d="M344.577 125H316.161L327.937 69.704L297.601 125H280.193L274.433 67.784L262.145 125H250.625L267.905 43.72H300.545L304.513 89.544L329.089 43.72H361.985L344.577 125ZM398.195 68.552C408.35 68.552 415.731 70.344 420.339 73.928C425.203 77.6827 427.635 83.912 427.635 92.616C427.635 97.992 426.739 102.856 424.947 107.208C423.155 111.475 420.638 115.016 417.395 117.832C410.91 123.293 401.523 126.024 389.235 126.024C378.739 126.024 371.23 124.019 366.707 120.008C361.843 115.827 359.411 109.555 359.411 101.192C359.411 95.6453 360.52 90.6107 362.739 86.088C365.043 81.5653 368.328 77.8107 372.595 74.824C378.824 70.6427 387.358 68.552 398.195 68.552ZM389.491 117.32C391.624 117.32 393.459 116.125 394.995 113.736C396.616 111.347 397.896 108.445 398.835 105.032C399.774 101.533 400.456 97.9493 400.883 94.28C401.395 90.5253 401.651 87.2827 401.651 84.552C401.651 82.1627 401.395 80.3707 400.883 79.176C400.456 77.896 399.475 77.256 397.939 77.256C395.635 77.256 393.63 78.4933 391.923 80.968C390.302 83.4427 388.979 86.3867 387.955 89.8C386.931 93.2133 386.163 96.712 385.651 100.296C385.224 103.88 385.011 106.781 385.011 109C385.011 114.547 386.504 117.32 389.491 117.32ZM435.013 69.96C438.17 69.2773 440.944 68.5093 443.333 67.656C445.722 66.8027 447.898 65.736 449.861 64.456C451.909 63.176 453.829 61.5973 455.621 59.72C457.498 57.8427 459.504 55.5387 461.637 52.808H474.821L471.109 69.96H481.093L479.429 78.536H469.317L464.069 103.496C463.642 105.459 463.301 107.208 463.045 108.744C462.789 110.28 462.661 111.475 462.661 112.328C462.661 114.035 463.258 115.101 464.453 115.528C465.733 115.955 468.08 116.168 471.493 116.168L469.573 125C468.976 125.171 468.037 125.299 466.757 125.384C465.562 125.469 464.197 125.555 462.661 125.64C461.21 125.811 459.674 125.896 458.053 125.896C456.517 125.981 455.152 126.024 453.957 126.024C451.824 126.024 449.733 125.853 447.685 125.512C445.637 125.256 443.802 124.701 442.181 123.848C440.56 122.909 439.237 121.587 438.213 119.88C437.274 118.173 436.805 115.869 436.805 112.968C436.805 111.944 436.848 110.664 436.933 109.128C437.104 107.592 437.402 105.885 437.829 104.008L443.205 78.536H433.221L435.013 69.96ZM518.445 68.552C528.6 68.552 535.981 70.344 540.589 73.928C545.453 77.6827 547.885 83.912 547.885 92.616C547.885 97.992 546.989 102.856 545.197 107.208C543.405 111.475 540.888 115.016 537.645 117.832C531.16 123.293 521.773 126.024 509.485 126.024C498.989 126.024 491.48 124.019 486.957 120.008C482.093 115.827 479.661 109.555 479.661 101.192C479.661 95.6453 480.77 90.6107 482.989 86.088C485.293 81.5653 488.578 77.8107 492.845 74.824C499.074 70.6427 507.608 68.552 518.445 68.552ZM509.741 117.32C511.874 117.32 513.709 116.125 515.245 113.736C516.866 111.347 518.146 108.445 519.085 105.032C520.024 101.533 520.706 97.9493 521.133 94.28C521.645 90.5253 521.901 87.2827 521.901 84.552C521.901 82.1627 521.645 80.3707 521.133 79.176C520.706 77.896 519.725 77.256 518.189 77.256C515.885 77.256 513.88 78.4933 512.173 80.968C510.552 83.4427 509.229 86.3867 508.205 89.8C507.181 93.2133 506.413 96.712 505.901 100.296C505.474 103.88 505.261 106.781 505.261 109C505.261 114.547 506.754 117.32 509.741 117.32ZM562.118 69.96H582.982L584.902 79.56H585.798C587.761 76.488 590.278 73.8853 593.35 71.752C596.422 69.6187 600.475 68.552 605.51 68.552C605.851 68.552 606.363 68.5947 607.046 68.68C607.814 68.68 608.625 68.808 609.478 69.064C610.417 69.2347 611.355 69.5333 612.294 69.96C613.318 70.3013 614.299 70.8133 615.238 71.496L609.606 97.864H595.654C595.483 92.5733 595.014 88.904 594.246 86.856C593.478 84.7227 592.241 83.656 590.534 83.656C589.681 83.656 588.742 83.8693 587.718 84.296C586.779 84.6373 585.798 85.448 584.774 86.728L576.582 125H550.47L562.118 69.96ZM652.921 86.088C653.006 85.6613 653.092 85.2347 653.177 84.808C653.262 84.3813 653.305 83.912 653.305 83.4C653.305 81.864 653.006 80.456 652.409 79.176C651.897 77.8107 650.83 77.128 649.209 77.128C647.758 77.128 646.308 77.768 644.857 79.048C643.406 80.2427 642.681 81.864 642.681 83.912C642.681 85.2773 643.022 86.3867 643.705 87.24C644.473 88.008 645.454 88.648 646.649 89.16C647.844 89.672 649.166 90.0987 650.617 90.44C652.153 90.7813 653.646 91.1227 655.097 91.464C657.145 91.976 659.065 92.616 660.857 93.384C662.734 94.0667 664.398 95.0053 665.849 96.2C667.3 97.3947 668.452 98.888 669.305 100.68C670.158 102.387 670.585 104.52 670.585 107.08C670.585 110.664 669.732 113.693 668.025 116.168C666.404 118.557 664.1 120.52 661.113 122.056C658.212 123.507 654.756 124.531 650.745 125.128C646.82 125.725 642.596 126.024 638.073 126.024C631.161 126.024 625.444 125.512 620.921 124.488C616.398 123.464 613.241 122.483 611.449 121.544L614.137 108.744H631.417C631.332 109.171 631.289 109.597 631.289 110.024C631.289 110.365 631.289 110.749 631.289 111.176C631.289 113.139 631.716 114.717 632.569 115.912C633.508 117.021 635.086 117.576 637.305 117.576C639.78 117.576 641.529 116.893 642.553 115.528C643.662 114.077 644.217 112.755 644.217 111.56C644.217 110.365 643.748 109.341 642.809 108.488C641.956 107.549 640.846 106.781 639.481 106.184C638.116 105.501 636.58 104.947 634.873 104.52C633.252 104.008 631.673 103.539 630.137 103.112C629.028 102.856 627.748 102.429 626.297 101.832C624.932 101.235 623.609 100.381 622.329 99.272C621.049 98.1627 619.982 96.7547 619.129 95.048C618.276 93.256 617.849 91.0373 617.849 88.392C617.849 84.6373 618.745 81.5227 620.537 79.048C622.414 76.488 624.804 74.44 627.705 72.904C630.692 71.368 634.02 70.2587 637.689 69.576C641.444 68.8933 645.198 68.552 648.953 68.552C653.646 68.552 658.084 68.9787 662.265 69.832C666.446 70.6853 669.86 71.7947 672.505 73.16L669.561 86.088H652.921Z" fill="#A00A0A"/>
</g>
<defs>
<filter id="filter0_d_6721_10" x="21" y="145.744" width="376.754" height="48.3199" filterUnits="userSpaceOnUse" color-interpolation-filters="sRGB">
<feFlood flood-opacity="0" result="BackgroundImageFix"/>
<feColorMatrix in="SourceAlpha" type="matrix" values="0 0 0 0 0 0 0 0 0 0 0 0 0 0 0 0 0 0 127 0" result="hardAlpha"/>
<feOffset dy="4"/>
<feGaussianBlur stdDeviation="2"/>
<feComposite in2="hardAlpha" operator="out"/>
<feColorMatrix type="matrix" values="0 0 0 0 0 0 0 0 0 0 0 0 0 0 0 0 0 0 0.25 0"/>
<feBlend mode="normal" in2="BackgroundImageFix" result="effect1_dropShadow_6721_10"/>
<feBlend mode="normal" in="SourceGraphic" in2="effect1_dropShadow_6721_10" result="shape"/>
</filter>
<filter id="filter1_d_6721_10" x="25" y="38.72" width="666.506" height="100.304" filterUnits="userSpaceOnUse" color-interpolation-filters="sRGB">
<feFlood flood-opacity="0" result="BackgroundImageFix"/>
<feColorMatrix in="SourceAlpha" type="matrix" values="0 0 0 0 0 0 0 0 0 0 0 0 0 0 0 0 0 0 127 0" result="hardAlpha"/>
<feOffset dx="10" dy="4"/>
<feGaussianBlur stdDeviation="4.5"/>
<feComposite in2="hardAlpha" operator="out"/>
<feColorMatrix type="matrix" values="0 0 0 0 0 0 0 0 0 0 0 0 0 0 0 0 0 0 0.5 0"/>
<feBlend mode="normal" in2="BackgroundImageFix" result="effect1_dropShadow_6721_10"/>
<feBlend mode="normal" in="SourceGraphic" in2="effect1_dropShadow_6721_10" result="shape"/>
</filter>
<linearGradient id="paint0_linear_6721_10" x1="89.5" y1="210.5" x2="96.5" y2="-97" gradientUnits="userSpaceOnUse">
<stop offset="0.102848" stop-color="#F0C74B"/>
<stop offset="0.376053" stop-color="#A00A0A"/>
<stop offset="1" stop-color="#990303"/>
</linearGradient>
</defs>
</svg>
