<svg width="728" height="109" viewBox="0 0 728 109" fill="none" xmlns="http://www.w3.org/2000/svg">
<g opacity="0.2" filter="url(#filter0_d_4841_301)">
<path d="M74.62 94H41.86L26.32 29.74L12.6 94H0L18.9 5.09999H52.36L67.06 70.2L80.92 5.09999H93.8L74.62 94ZM119.797 65.86C119.424 67.9133 119.144 69.8733 118.957 71.74C118.864 73.6067 118.817 75.2867 118.817 76.78C118.817 77.62 118.864 78.5533 118.957 79.58C119.051 80.6067 119.237 81.5867 119.517 82.52C119.891 83.36 120.357 84.1067 120.917 84.76C121.571 85.32 122.457 85.6 123.577 85.6C124.417 85.6 125.351 85.32 126.377 84.76C127.497 84.2 128.571 83.4067 129.597 82.38C130.717 81.3533 131.744 80.0933 132.677 78.6C133.704 77.1067 134.497 75.4267 135.057 73.56H158.017L154.377 88.54C152.511 89.7533 150.364 90.78 147.937 91.62C145.511 92.46 142.944 93.16 140.237 93.72C137.531 94.1867 134.777 94.5133 131.977 94.7C129.177 94.98 126.517 95.12 123.997 95.12C119.331 95.12 114.991 94.7 110.977 93.86C106.964 93.02 103.464 91.5733 100.477 89.52C97.4907 87.4667 95.1107 84.76 93.3373 81.4C91.6573 77.9467 90.8173 73.7 90.8173 68.66C90.8173 64.0867 91.5173 59.6067 92.9173 55.22C94.4107 50.8333 96.8373 46.96 100.197 43.6C103.651 40.1467 108.224 37.3933 113.917 35.34C119.704 33.2867 126.891 32.26 135.477 32.26C144.811 32.26 151.811 33.7067 156.477 36.6C161.237 39.4933 163.617 44.02 163.617 50.18C163.617 52.7 163.244 55.4533 162.497 58.44C161.751 61.3333 160.631 63.8067 159.137 65.86H119.797ZM138.417 49.2C138.417 46.3067 137.951 44.3467 137.017 43.32C136.084 42.2933 134.964 41.78 133.657 41.78C132.164 41.78 130.764 42.2933 129.457 43.32C128.244 44.2533 127.124 45.56 126.097 47.24C125.071 48.8267 124.137 50.6933 123.297 52.84C122.457 54.8933 121.757 57.0867 121.197 59.42H137.157C137.344 58.3 137.531 57.1333 137.717 55.92C137.904 54.8933 138.044 53.7733 138.137 52.56C138.324 51.3467 138.417 50.2267 138.417 49.2ZM171.596 33.8C175.05 33.0533 178.083 32.2133 180.696 31.28C183.31 30.3467 185.69 29.18 187.836 27.78C190.076 26.38 192.176 24.6533 194.136 22.6C196.19 20.5467 198.383 18.0267 200.716 15.04H215.136L211.076 33.8H221.996L220.176 43.18H209.116L203.376 70.48C202.91 72.6267 202.536 74.54 202.256 76.22C201.976 77.9 201.836 79.2067 201.836 80.14C201.836 82.0067 202.49 83.1733 203.796 83.64C205.196 84.1067 207.763 84.34 211.496 84.34L209.396 94C208.743 94.1867 207.716 94.3267 206.316 94.42C205.01 94.5133 203.516 94.6067 201.836 94.7C200.25 94.8867 198.57 94.98 196.796 94.98C195.116 95.0733 193.623 95.12 192.316 95.12C189.983 95.12 187.696 94.9333 185.456 94.56C183.216 94.28 181.21 93.6733 179.436 92.74C177.663 91.7133 176.216 90.2667 175.096 88.4C174.07 86.5333 173.556 84.0133 173.556 80.84C173.556 79.72 173.603 78.32 173.696 76.64C173.883 74.96 174.21 73.0933 174.676 71.04L180.556 43.18H169.636L171.596 33.8Z" fill="#F0C74B"/>
<path d="M349.537 94H318.457L331.337 33.52L298.157 94H279.117L272.817 31.42L259.377 94H246.777L265.677 5.09999H301.377L305.717 55.22L332.597 5.09999H368.577L349.537 94ZM408.182 32.26C419.289 32.26 427.362 34.22 432.402 38.14C437.722 42.2467 440.382 49.06 440.382 58.58C440.382 64.46 439.402 69.78 437.442 74.54C435.482 79.2067 432.729 83.08 429.182 86.16C422.089 92.1333 411.822 95.12 398.382 95.12C386.902 95.12 378.689 92.9267 373.742 88.54C368.422 83.9667 365.762 77.1067 365.762 67.96C365.762 61.8933 366.975 56.3867 369.402 51.44C371.922 46.4933 375.515 42.3867 380.182 39.12C386.995 34.5467 396.329 32.26 408.182 32.26ZM398.662 85.6C400.995 85.6 403.002 84.2933 404.682 81.68C406.455 79.0667 407.855 75.8933 408.882 72.16C409.909 68.3333 410.655 64.4133 411.122 60.4C411.682 56.2933 411.962 52.7467 411.962 49.76C411.962 47.1467 411.682 45.1867 411.122 43.88C410.655 42.48 409.582 41.78 407.902 41.78C405.382 41.78 403.189 43.1333 401.322 45.84C399.549 48.5467 398.102 51.7667 396.982 55.5C395.862 59.2333 395.022 63.06 394.462 66.98C393.995 70.9 393.762 74.0733 393.762 76.5C393.762 82.5667 395.395 85.6 398.662 85.6ZM448.452 33.8C451.905 33.0533 454.938 32.2133 457.552 31.28C460.165 30.3467 462.545 29.18 464.692 27.78C466.932 26.38 469.032 24.6533 470.992 22.6C473.045 20.5467 475.238 18.0267 477.572 15.04H491.992L487.932 33.8H498.852L497.032 43.18H485.972L480.232 70.48C479.765 72.6267 479.392 74.54 479.112 76.22C478.832 77.9 478.692 79.2067 478.692 80.14C478.692 82.0067 479.345 83.1733 480.652 83.64C482.052 84.1067 484.618 84.34 488.352 84.34L486.252 94C485.598 94.1867 484.572 94.3267 483.172 94.42C481.865 94.5133 480.372 94.6067 478.692 94.7C477.105 94.8867 475.425 94.98 473.652 94.98C471.972 95.0733 470.478 95.12 469.172 95.12C466.838 95.12 464.552 94.9333 462.312 94.56C460.072 94.28 458.065 93.6733 456.292 92.74C454.518 91.7133 453.072 90.2667 451.952 88.4C450.925 86.5333 450.412 84.0133 450.412 80.84C450.412 79.72 450.458 78.32 450.552 76.64C450.738 74.96 451.065 73.0933 451.532 71.04L457.412 43.18H446.492L448.452 33.8ZM539.705 32.26C550.812 32.26 558.885 34.22 563.925 38.14C569.245 42.2467 571.905 49.06 571.905 58.58C571.905 64.46 570.925 69.78 568.965 74.54C567.005 79.2067 564.252 83.08 560.705 86.16C553.612 92.1333 543.345 95.12 529.905 95.12C518.425 95.12 510.212 92.9267 505.265 88.54C499.945 83.9667 497.285 77.1067 497.285 67.96C497.285 61.8933 498.499 56.3867 500.925 51.44C503.445 46.4933 507.039 42.3867 511.705 39.12C518.519 34.5467 527.852 32.26 539.705 32.26ZM530.185 85.6C532.519 85.6 534.525 84.2933 536.205 81.68C537.979 79.0667 539.379 75.8933 540.405 72.16C541.432 68.3333 542.179 64.4133 542.645 60.4C543.205 56.2933 543.485 52.7467 543.485 49.76C543.485 47.1467 543.205 45.1867 542.645 43.88C542.179 42.48 541.105 41.78 539.425 41.78C536.905 41.78 534.712 43.1333 532.845 45.84C531.072 48.5467 529.625 51.7667 528.505 55.5C527.385 59.2333 526.545 63.06 525.985 66.98C525.519 70.9 525.285 74.0733 525.285 76.5C525.285 82.5667 526.919 85.6 530.185 85.6ZM587.473 33.8H610.293L612.393 44.3H613.373C615.519 40.94 618.273 38.0933 621.633 35.76C624.993 33.4267 629.426 32.26 634.933 32.26C635.306 32.26 635.866 32.3067 636.613 32.4C637.453 32.4 638.339 32.54 639.273 32.82C640.299 33.0067 641.326 33.3333 642.353 33.8C643.473 34.1733 644.546 34.7333 645.573 35.48L639.413 64.32H624.153C623.966 58.5333 623.453 54.52 622.613 52.28C621.773 49.9467 620.419 48.78 618.553 48.78C617.619 48.78 616.593 49.0133 615.473 49.48C614.446 49.8533 613.373 50.74 612.253 52.14L603.293 94H574.733L587.473 33.8ZM686.789 51.44C686.882 50.9733 686.975 50.5067 687.069 50.04C687.162 49.5733 687.209 49.06 687.209 48.5C687.209 46.82 686.882 45.28 686.229 43.88C685.669 42.3867 684.502 41.64 682.729 41.64C681.142 41.64 679.555 42.34 677.969 43.74C676.382 45.0467 675.589 46.82 675.589 49.06C675.589 50.5533 675.962 51.7667 676.709 52.7C677.549 53.54 678.622 54.24 679.929 54.8C681.235 55.36 682.682 55.8267 684.269 56.2C685.949 56.5733 687.582 56.9467 689.169 57.32C691.409 57.88 693.509 58.58 695.469 59.42C697.522 60.1667 699.342 61.1933 700.929 62.5C702.515 63.8067 703.775 65.44 704.709 67.4C705.642 69.2667 706.109 71.6 706.109 74.4C706.109 78.32 705.175 81.6333 703.309 84.34C701.535 86.9533 699.015 89.1 695.749 90.78C692.575 92.3667 688.795 93.4867 684.409 94.14C680.115 94.7933 675.495 95.12 670.549 95.12C662.989 95.12 656.735 94.56 651.789 93.44C646.842 92.32 643.389 91.2467 641.429 90.22L644.369 76.22H663.269C663.175 76.6867 663.129 77.1533 663.129 77.62C663.129 77.9933 663.129 78.4133 663.129 78.88C663.129 81.0267 663.595 82.7533 664.529 84.06C665.555 85.2733 667.282 85.88 669.709 85.88C672.415 85.88 674.329 85.1333 675.449 83.64C676.662 82.0533 677.269 80.6067 677.269 79.3C677.269 77.9933 676.755 76.8733 675.729 75.94C674.795 74.9133 673.582 74.0733 672.089 73.42C670.595 72.6733 668.915 72.0667 667.049 71.6C665.275 71.04 663.549 70.5267 661.869 70.06C660.655 69.78 659.255 69.3133 657.669 68.66C656.175 68.0067 654.729 67.0733 653.329 65.86C651.929 64.6467 650.762 63.1067 649.829 61.24C648.895 59.28 648.429 56.8533 648.429 53.96C648.429 49.8533 649.409 46.4467 651.369 43.74C653.422 40.94 656.035 38.7 659.209 37.02C662.475 35.34 666.115 34.1267 670.129 33.38C674.235 32.6333 678.342 32.26 682.449 32.26C687.582 32.26 692.435 32.7267 697.009 33.66C701.582 34.5933 705.315 35.8067 708.209 37.3L704.989 51.44H686.789Z" fill="#A00A0A"/>
</g>
<defs>
<filter id="filter0_d_4841_301" x="0" y="0.0999756" width="727.209" height="108.02" filterUnits="userSpaceOnUse" color-interpolation-filters="sRGB">
<feFlood flood-opacity="0" result="BackgroundImageFix"/>
<feColorMatrix in="SourceAlpha" type="matrix" values="0 0 0 0 0 0 0 0 0 0 0 0 0 0 0 0 0 0 127 0" result="hardAlpha"/>
<feOffset dx="10" dy="4"/>
<feGaussianBlur stdDeviation="4.5"/>
<feComposite in2="hardAlpha" operator="out"/>
<feColorMatrix type="matrix" values="0 0 0 0 0 0 0 0 0 0 0 0 0 0 0 0 0 0 0.5 0"/>
<feBlend mode="normal" in2="BackgroundImageFix" result="effect1_dropShadow_4841_301"/>
<feBlend mode="normal" in="SourceGraphic" in2="effect1_dropShadow_4841_301" result="shape"/>
</filter>
</defs>
</svg>
