<svg width="242" height="93" viewBox="0 0 242 93" fill="none" xmlns="http://www.w3.org/2000/svg">
<path d="M0 0H139V4.5H12.7381V46.7095V68.7027V89.1667H48V93H0V0Z" fill="url(#paint0_linear_4841_161)"/>
<path d="M41.9395 56.4199H46.0352L46.1406 32.918H45.7891V32.9531C44.5703 33.0469 43.4688 33.4512 42.4844 34.166C42.0625 34.4707 41.6523 34.8574 41.2539 35.3262C40.8555 35.7949 40.4922 36.375 40.1641 37.0664C39.8477 37.7578 39.584 38.5664 39.373 39.4922C39.1621 40.418 39.0449 41.4902 39.0215 42.709H38.3711L38.6523 32.0566L60.291 32.707L60.1152 44.1152H59.4648C59.4766 42.6973 59.377 41.4551 59.166 40.3887C58.9551 39.3223 58.668 38.4023 58.3047 37.6289C57.9414 36.8438 57.5312 36.1934 57.0742 35.6777C56.6172 35.1504 56.1543 34.7227 55.6855 34.3945C55.2168 34.0547 54.7656 33.8027 54.332 33.6387C53.9102 33.4629 53.5469 33.3398 53.2422 33.2695C53.2188 33.5039 53.1953 33.8496 53.1719 34.3066C53.1484 34.7637 53.1191 35.3848 53.084 36.1699C53.0605 36.9551 53.0312 37.9336 52.9961 39.1055C52.9609 40.2656 52.9199 41.666 52.873 43.3066C52.8379 44.9473 52.7969 46.8516 52.75 49.0195C52.7148 51.1758 52.6738 53.6426 52.627 56.4199H56.9512V57.0703H41.9395V56.4199ZM77.3418 33.1641L74.2305 33.0586C74.207 33.2344 74.1836 33.5684 74.1602 34.0605C74.1367 34.541 74.1074 35.2559 74.0723 36.2051C74.0371 37.1543 74.002 38.3672 73.9668 39.8438C73.9316 41.3086 73.8906 43.1133 73.8438 45.2578L83.3535 45.1172L83.4238 32.8477L79.6094 32.707V32.0566L94.2871 32.5137V33.1641L90.5078 33.0586C90.4961 33.1992 90.4785 33.457 90.4551 33.832C90.4316 34.207 90.4023 34.7637 90.3672 35.502C90.3438 36.2285 90.3145 37.166 90.2793 38.3145C90.2441 39.4629 90.2031 40.8809 90.1562 42.5684C90.1211 44.2559 90.0801 46.2422 90.0332 48.5273C89.9863 50.8125 89.9395 53.4551 89.8926 56.4551H94.2168V57.1055H79.8906V56.4551H83.3184L83.3535 45.7676L73.8086 45.9082C73.7852 46.6465 73.7676 47.4082 73.7559 48.1934C73.7441 48.9785 73.7324 49.8047 73.7207 50.6719C73.709 51.5273 73.6914 52.4355 73.668 53.3965C73.6562 54.3457 73.6445 55.3652 73.6328 56.4551H77.2539V57.1055H62.8926V56.4551H67.041L67.1465 32.8477L62.6465 32.707V32.0566L77.3418 32.5137V33.1641ZM96.0801 32.2676L117.402 32.2324L117.209 44.7656H116.559C116.582 43.2891 116.494 41.9883 116.295 40.8633C116.107 39.7266 115.85 38.7422 115.521 37.9102C115.205 37.0781 114.836 36.3809 114.414 35.8184C113.992 35.2441 113.559 34.7695 113.113 34.3945C112.668 34.0195 112.229 33.7324 111.795 33.5332C111.373 33.334 110.992 33.1875 110.652 33.0938C110.324 33 110.055 32.9414 109.844 32.918C109.645 32.8945 109.545 32.8828 109.545 32.8828C109.205 32.8828 108.854 32.8887 108.49 32.9004C108.139 32.9121 107.793 32.918 107.453 32.918C107.441 33.0586 107.424 33.3574 107.4 33.8145C107.389 34.2715 107.365 34.957 107.33 35.8711C107.295 36.7734 107.254 37.9453 107.207 39.3867C107.16 40.8164 107.113 42.5742 107.066 44.6602C107.172 44.6484 107.371 44.6309 107.664 44.6074C107.969 44.584 108.309 44.5195 108.684 44.4141C109.07 44.2969 109.469 44.1211 109.879 43.8867C110.289 43.6406 110.664 43.3008 111.004 42.8672C111.344 42.4219 111.619 41.8594 111.83 41.1797C112.053 40.5 112.158 39.668 112.146 38.6836H112.779H112.146H112.779L112.604 52.0957H111.953C111.918 50.9473 111.771 49.8984 111.514 48.9492C111.408 48.5508 111.268 48.1523 111.092 47.7539C110.916 47.3555 110.705 46.9922 110.459 46.6641C110.213 46.3242 109.92 46.0371 109.58 45.8027C109.24 45.5684 108.848 45.4102 108.402 45.3281L107.066 45.293L106.855 56.3848H111.426C111.684 56.3613 112.035 56.2969 112.48 56.1914C112.926 56.0859 113.4 55.9102 113.904 55.6641C114.42 55.418 114.941 55.084 115.469 54.6621C115.996 54.2402 116.477 53.6953 116.91 53.0273C117.355 52.3477 117.719 51.5332 118 50.584C118.293 49.623 118.463 48.4863 118.51 47.1738H119.16L118.879 57.0352H96.1152V56.3848H100.264L100.369 32.918H96.0801V32.2676ZM134.928 56.4199H139.023L139.129 32.918H138.777V32.9531C137.559 33.0469 136.457 33.4512 135.473 34.166C135.051 34.4707 134.641 34.8574 134.242 35.3262C133.844 35.7949 133.48 36.375 133.152 37.0664C132.836 37.7578 132.572 38.5664 132.361 39.4922C132.15 40.418 132.033 41.4902 132.01 42.709H131.359L131.641 32.0566L153.279 32.707L153.104 44.1152H152.453C152.465 42.6973 152.365 41.4551 152.154 40.3887C151.943 39.3223 151.656 38.4023 151.293 37.6289C150.93 36.8438 150.52 36.1934 150.062 35.6777C149.605 35.1504 149.143 34.7227 148.674 34.3945C148.205 34.0547 147.754 33.8027 147.32 33.6387C146.898 33.4629 146.535 33.3398 146.23 33.2695C146.207 33.5039 146.184 33.8496 146.16 34.3066C146.137 34.7637 146.107 35.3848 146.072 36.1699C146.049 36.9551 146.02 37.9336 145.984 39.1055C145.949 40.2656 145.908 41.666 145.861 43.3066C145.826 44.9473 145.785 46.8516 145.738 49.0195C145.703 51.1758 145.662 53.6426 145.615 56.4199H149.939V57.0703H134.928V56.4199ZM155.775 32.2676L177.098 32.2324L176.904 44.7656H176.254C176.277 43.2891 176.189 41.9883 175.99 40.8633C175.803 39.7266 175.545 38.7422 175.217 37.9102C174.9 37.0781 174.531 36.3809 174.109 35.8184C173.688 35.2441 173.254 34.7695 172.809 34.3945C172.363 34.0195 171.924 33.7324 171.49 33.5332C171.068 33.334 170.688 33.1875 170.348 33.0938C170.02 33 169.75 32.9414 169.539 32.918C169.34 32.8945 169.24 32.8828 169.24 32.8828C168.9 32.8828 168.549 32.8887 168.186 32.9004C167.834 32.9121 167.488 32.918 167.148 32.918C167.137 33.0586 167.119 33.3574 167.096 33.8145C167.084 34.2715 167.061 34.957 167.025 35.8711C166.99 36.7734 166.949 37.9453 166.902 39.3867C166.855 40.8164 166.809 42.5742 166.762 44.6602C166.867 44.6484 167.066 44.6309 167.359 44.6074C167.664 44.584 168.004 44.5195 168.379 44.4141C168.766 44.2969 169.164 44.1211 169.574 43.8867C169.984 43.6406 170.359 43.3008 170.699 42.8672C171.039 42.4219 171.314 41.8594 171.525 41.1797C171.748 40.5 171.854 39.668 171.842 38.6836H172.475H171.842H172.475L172.299 52.0957H171.648C171.613 50.9473 171.467 49.8984 171.209 48.9492C171.104 48.5508 170.963 48.1523 170.787 47.7539C170.611 47.3555 170.4 46.9922 170.154 46.6641C169.908 46.3242 169.615 46.0371 169.275 45.8027C168.936 45.5684 168.543 45.4102 168.098 45.3281L166.762 45.293L166.551 56.3848H171.121C171.379 56.3613 171.73 56.2969 172.176 56.1914C172.621 56.0859 173.096 55.9102 173.6 55.6641C174.115 55.418 174.637 55.084 175.164 54.6621C175.691 54.2402 176.172 53.6953 176.605 53.0273C177.051 52.3477 177.414 51.5332 177.695 50.584C177.988 49.623 178.158 48.4863 178.205 47.1738H178.855L178.574 57.0352H155.811V56.3848H159.959L160.064 32.918H155.775V32.2676ZM193.498 56.3496H196.17L193.674 50.4082H185.729L183.355 56.4551H187.891V57H178.662V56.3848H182.705L189.244 39.9316L192.707 31.2305L203.904 56.3496H207.139V57H193.498V56.3496ZM185.975 49.7578H193.393L189.578 40.7578L185.975 49.7578ZM206.436 56.3145L210.514 56.2793L210.865 32.7422L206.33 32.6719V32.0215L215.734 32.127L224.049 48.3164L229.867 32.1973L240.133 32.3027V32.9531L236.494 32.918C236.482 33.0234 236.465 33.2461 236.441 33.5859C236.43 33.9141 236.406 34.4297 236.371 35.1328C236.348 35.8359 236.318 36.7559 236.283 37.8926C236.248 39.0293 236.207 40.4531 236.16 42.1641C236.113 43.8633 236.066 45.8848 236.02 48.2285C235.973 50.5723 235.926 53.3027 235.879 56.4199H240.203V57.0703H225.156V56.4199H229.305L229.727 34.4297L221.377 57.4395L211.41 38.2793L211.146 56.2793L215.049 56.2441V56.8945L206.436 56.9648V56.3145Z" fill="black"/>
<defs>
<linearGradient id="paint0_linear_4841_161" x1="91.205" y1="84.4122" x2="92.411" y2="-44.4609" gradientUnits="userSpaceOnUse">
<stop offset="0.102848" stop-color="#F0C74B"/>
<stop offset="0.376053" stop-color="#A00A0A"/>
<stop offset="1" stop-color="#990303"/>
</linearGradient>
</defs>
</svg>
