<svg width="526" height="93" viewBox="0 0 526 93" fill="none" xmlns="http://www.w3.org/2000/svg">
<path d="M0 0H139V4.5H12.7381V46.7095V68.7027V89.1667H48V93H0V0Z" fill="url(#paint0_linear_4841_303)"/>
<path d="M41.9395 56.4199H46.0352L46.1406 32.918H45.7891V32.9531C44.5703 33.0469 43.4688 33.4512 42.4844 34.166C42.0625 34.4707 41.6523 34.8574 41.2539 35.3262C40.8555 35.7949 40.4922 36.375 40.1641 37.0664C39.8477 37.7578 39.584 38.5664 39.373 39.4922C39.1621 40.418 39.0449 41.4902 39.0215 42.709H38.3711L38.6523 32.0566L60.291 32.707L60.1152 44.1152H59.4648C59.4766 42.6973 59.377 41.4551 59.166 40.3887C58.9551 39.3223 58.668 38.4023 58.3047 37.6289C57.9414 36.8438 57.5312 36.1934 57.0742 35.6777C56.6172 35.1504 56.1543 34.7227 55.6855 34.3945C55.2168 34.0547 54.7656 33.8027 54.332 33.6387C53.9102 33.4629 53.5469 33.3398 53.2422 33.2695C53.2188 33.5039 53.1953 33.8496 53.1719 34.3066C53.1484 34.7637 53.1191 35.3848 53.084 36.1699C53.0605 36.9551 53.0312 37.9336 52.9961 39.1055C52.9609 40.2656 52.9199 41.666 52.873 43.3066C52.8379 44.9473 52.7969 46.8516 52.75 49.0195C52.7148 51.1758 52.6738 53.6426 52.627 56.4199H56.9512V57.0703H41.9395V56.4199ZM62.7871 32.2676L84.1094 32.2324L83.916 44.7656H83.2656C83.2891 43.2891 83.2012 41.9883 83.002 40.8633C82.8145 39.7266 82.5566 38.7422 82.2285 37.9102C81.9121 37.0781 81.543 36.3809 81.1211 35.8184C80.6992 35.2441 80.2656 34.7695 79.8203 34.3945C79.375 34.0195 78.9355 33.7324 78.502 33.5332C78.0801 33.334 77.6992 33.1875 77.3594 33.0938C77.0312 33 76.7617 32.9414 76.5508 32.918C76.3516 32.8945 76.252 32.8828 76.252 32.8828C75.9121 32.8828 75.5605 32.8887 75.1973 32.9004C74.8457 32.9121 74.5 32.918 74.1602 32.918C74.1484 33.0586 74.1309 33.3574 74.1074 33.8145C74.0957 34.2715 74.0723 34.957 74.0371 35.8711C74.002 36.7734 73.9609 37.9453 73.9141 39.3867C73.8672 40.8164 73.8203 42.5742 73.7734 44.6602C73.8789 44.6484 74.0781 44.6309 74.3711 44.6074C74.6758 44.584 75.0156 44.5195 75.3906 44.4141C75.7773 44.2969 76.1758 44.1211 76.5859 43.8867C76.9961 43.6406 77.3711 43.3008 77.7109 42.8672C78.0508 42.4219 78.3262 41.8594 78.5371 41.1797C78.7598 40.5 78.8652 39.668 78.8535 38.6836H79.4863H78.8535H79.4863L79.3105 52.0957H78.6602C78.625 50.9473 78.4785 49.8984 78.2207 48.9492C78.1152 48.5508 77.9746 48.1523 77.7988 47.7539C77.623 47.3555 77.4121 46.9922 77.166 46.6641C76.9199 46.3242 76.627 46.0371 76.2871 45.8027C75.9473 45.5684 75.5547 45.4102 75.1094 45.3281L73.7734 45.293L73.5625 56.3848H78.1328C78.3906 56.3613 78.7422 56.2969 79.1875 56.1914C79.6328 56.0859 80.1074 55.9102 80.6113 55.6641C81.127 55.418 81.6484 55.084 82.1758 54.6621C82.7031 54.2402 83.1836 53.6953 83.6172 53.0273C84.0625 52.3477 84.4258 51.5332 84.707 50.584C85 49.623 85.1699 48.4863 85.2168 47.1738H85.8672L85.5859 57.0352H62.8223V56.3848H66.9707L67.0762 32.918H62.7871V32.2676ZM103.322 56.4902L105.836 56.4551L99.7188 48.2109H99.6133C99.5195 48.2344 99.4375 48.2461 99.3672 48.2461C99.2969 48.2461 99.2207 48.2461 99.1387 48.2461L98.998 56.4902H102.021V57.1406H88.4512V56.4902H92.6348L92.8457 33.2695C92.2246 33.2695 91.5918 33.2754 90.9473 33.2871C90.3027 33.2988 89.5938 33.3047 88.8203 33.3047V32.6719C91.4102 32.6602 93.5371 32.6484 95.2012 32.6367C96.8652 32.625 98.1719 32.6133 99.1211 32.6016C100.234 32.5898 101.072 32.584 101.635 32.584C102.232 32.584 102.93 32.6016 103.727 32.6367C104.523 32.6719 105.344 32.7715 106.188 32.9355C107.031 33.0879 107.863 33.3281 108.684 33.6562C109.504 33.9844 110.236 34.4414 110.881 35.0273C111.525 35.6016 112.047 36.3281 112.445 37.207C112.844 38.0859 113.043 39.1523 113.043 40.4062C113.043 41.5312 112.873 42.5098 112.533 43.3418C112.193 44.1738 111.713 44.8828 111.092 45.4688C110.482 46.0547 109.744 46.5352 108.877 46.9102C108.01 47.2734 107.043 47.5547 105.977 47.7539L113.43 56.3145L113.359 56.3496L116.312 56.3145V56.9648L103.322 57.1406V56.4902ZM106.855 40.3711C106.855 39.293 106.768 38.373 106.592 37.6113C106.416 36.8379 106.164 36.1934 105.836 35.6777C105.52 35.1504 105.133 34.7285 104.676 34.4121C104.219 34.0957 103.709 33.8555 103.146 33.6914C102.596 33.5273 101.998 33.4219 101.354 33.375C100.721 33.3164 100.059 33.2812 99.3672 33.2695L99.1387 47.5605H99.5781C100.492 47.4668 101.295 47.291 101.986 47.0332C102.678 46.7754 103.275 46.4707 103.779 46.1191C104.295 45.7676 104.723 45.3809 105.062 44.959C105.414 44.5254 105.707 44.0977 105.941 43.6758C106.48 42.6797 106.785 41.5781 106.855 40.3711ZM117.104 56.3145L121.182 56.2793L121.533 32.7422L116.998 32.6719V32.0215L126.402 32.127L134.717 48.3164L140.535 32.1973L150.801 32.3027V32.9531L147.162 32.918C147.15 33.0234 147.133 33.2461 147.109 33.5859C147.098 33.9141 147.074 34.4297 147.039 35.1328C147.016 35.8359 146.986 36.7559 146.951 37.8926C146.916 39.0293 146.875 40.4531 146.828 42.1641C146.781 43.8633 146.734 45.8848 146.688 48.2285C146.641 50.5723 146.594 53.3027 146.547 56.4199H150.871V57.0703H135.824V56.4199H139.973L140.395 34.4297L132.045 57.4395L122.078 38.2793L121.814 56.2793L125.717 56.2441V56.8945L117.104 56.9648V56.3145ZM164.564 42.9902C166.381 43.1895 167.922 43.5234 169.188 43.9922C170.453 44.4609 171.479 45.0234 172.264 45.6797C173.061 46.3242 173.635 47.0449 173.986 47.8418C174.35 48.627 174.531 49.4473 174.531 50.3027C174.531 51.2871 174.373 52.1543 174.057 52.9043C173.74 53.6543 173.318 54.3164 172.791 54.8906C172.275 55.4531 171.678 55.9277 170.998 56.3145C170.33 56.7012 169.639 57.0117 168.924 57.2461C168.221 57.4922 167.523 57.668 166.832 57.7734C166.141 57.8906 165.52 57.9551 164.969 57.9668H164.529C163.943 57.9551 163.27 57.9023 162.508 57.8086C161.758 57.7266 160.984 57.5918 160.188 57.4043C159.402 57.2168 158.629 56.9766 157.867 56.6836C157.105 56.3789 156.426 56.0039 155.828 55.5586C155.23 55.1133 154.75 54.5859 154.387 53.9766C154.023 53.3672 153.842 52.6582 153.842 51.8496C153.842 51.416 153.912 51.0352 154.053 50.707C154.193 50.3789 154.387 50.1035 154.633 49.8809C154.879 49.6465 155.16 49.4648 155.477 49.3359C155.805 49.207 156.156 49.1309 156.531 49.1074C156.988 49.1074 157.41 49.207 157.797 49.4062C158.195 49.5938 158.541 49.8633 158.834 50.2148C159.127 50.5547 159.361 50.9707 159.537 51.4629C159.725 51.9434 159.83 52.4824 159.854 53.0801C159.877 53.5605 159.988 54.0527 160.188 54.5566C160.387 55.0605 160.68 55.5176 161.066 55.9277C161.453 56.3379 161.934 56.6719 162.508 56.9297C163.082 57.1875 163.756 57.3164 164.529 57.3164C165.139 57.3164 165.689 57.1934 166.182 56.9473C166.686 56.7012 167.113 56.373 167.465 55.9629C167.816 55.5527 168.086 55.0781 168.273 54.5391C168.461 53.9883 168.555 53.4141 168.555 52.8164C168.555 52.2773 168.461 51.7441 168.273 51.2168C168.086 50.6895 167.793 50.2207 167.395 49.8105C166.996 49.3887 166.486 49.043 165.865 48.7734C165.244 48.5039 164.5 48.3516 163.633 48.3164C161.863 48.2344 160.352 47.9707 159.098 47.5254C157.855 47.0801 156.836 46.5059 156.039 45.8027C155.242 45.0879 154.656 44.2734 154.281 43.3594C153.918 42.4453 153.736 41.4844 153.736 40.4766C153.736 39.3867 153.9 38.4316 154.229 37.6113C154.557 36.7793 154.99 36.0645 155.529 35.4668C156.08 34.8574 156.707 34.3535 157.41 33.9551C158.113 33.5449 158.84 33.2168 159.59 32.9707C160.352 32.7246 161.102 32.5547 161.84 32.4609C162.59 32.3555 163.281 32.3027 163.914 32.3027H164.125C164.711 32.3145 165.361 32.3672 166.076 32.4609C166.803 32.543 167.535 32.6777 168.273 32.8652C169.023 33.0527 169.744 33.2988 170.436 33.6035C171.139 33.9082 171.76 34.2832 172.299 34.7285C172.85 35.1738 173.289 35.7012 173.617 36.3105C173.945 36.9082 174.109 37.5996 174.109 38.3848C174.109 38.8418 174.033 39.2402 173.881 39.5801C173.729 39.9199 173.523 40.207 173.266 40.4414C173.02 40.6641 172.727 40.834 172.387 40.9512C172.047 41.0684 171.695 41.127 171.332 41.127C170.887 41.127 170.471 41.0273 170.084 40.8281C169.697 40.6289 169.357 40.3535 169.064 40.002C168.783 39.6504 168.555 39.2344 168.379 38.7539C168.215 38.2617 168.133 37.7227 168.133 37.1367C168.133 36.6328 168.068 36.1348 167.939 35.6426C167.811 35.1504 167.588 34.7109 167.271 34.3242C166.967 33.9258 166.557 33.6035 166.041 33.3574C165.525 33.1113 164.887 32.9766 164.125 32.9531H163.949C163.375 32.9766 162.842 33.1465 162.35 33.4629C161.869 33.7676 161.453 34.1719 161.102 34.6758C160.75 35.1797 160.475 35.748 160.275 36.3809C160.088 37.002 159.994 37.6348 159.994 38.2793C159.994 38.8418 160.076 39.3867 160.24 39.9141C160.416 40.4414 160.686 40.9219 161.049 41.3555C161.424 41.7773 161.898 42.1348 162.473 42.4277C163.047 42.7207 163.744 42.9082 164.564 42.9902ZM197.752 56.3496H200.424L197.928 50.4082H189.982L187.609 56.4551H192.145V57H182.916V56.3848H186.959L193.498 39.9316L196.961 31.2305L208.158 56.3496H211.393V57H197.752V56.3496ZM190.229 49.7578H197.646L193.832 40.7578L190.229 49.7578ZM211.164 32.3027L219.689 32.1973L232.732 47.4199V33.0938L228.795 32.9531V32.3027L237.408 32.584V33.2344L233.365 33.0938L233.4 58.1953L215.699 38.3496L215.26 56.4199L219.145 56.3145V56.9648L210.584 57.1758V56.5254L214.609 56.4199L215.189 32.918L211.164 32.9531V32.3027ZM239.641 32.9531C240.121 32.8711 240.637 32.8008 241.188 32.7422C241.738 32.6719 242.301 32.6133 242.875 32.5664C243.461 32.5078 244.047 32.4609 244.633 32.4258C245.219 32.3789 245.775 32.3438 246.303 32.3203C247.545 32.2617 248.805 32.2207 250.082 32.1973C250.258 32.1738 250.469 32.1621 250.715 32.1621C250.961 32.1621 251.184 32.1621 251.383 32.1621C252.344 32.1621 253.346 32.2441 254.389 32.4082C255.432 32.5605 256.451 32.8242 257.447 33.1992C258.455 33.5742 259.404 34.0723 260.295 34.6934C261.197 35.3027 261.988 36.0645 262.668 36.9785C263.348 37.8926 263.887 38.9707 264.285 40.2129C264.684 41.4551 264.883 42.8848 264.883 44.502C264.883 45.7324 264.73 46.8574 264.426 47.877C264.121 48.8965 263.699 49.8281 263.16 50.6719C262.633 51.5039 262.012 52.2539 261.297 52.9219C260.582 53.5781 259.814 54.1582 258.994 54.6621C258.186 55.1543 257.348 55.582 256.48 55.9453C255.613 56.2969 254.752 56.584 253.896 56.8066C253.053 57.0293 252.238 57.1875 251.453 57.2812C250.668 57.3867 249.959 57.4395 249.326 57.4395C249.221 57.4395 249.109 57.4336 248.992 57.4219C248.887 57.4102 248.781 57.4043 248.676 57.4043C248.43 57.4043 248.002 57.3926 247.393 57.3691C246.795 57.3574 246.08 57.3223 245.248 57.2637C244.428 57.2168 243.525 57.1465 242.541 57.0527C241.568 56.959 240.59 56.8359 239.605 56.6836L239.676 56.0332C240.262 56.127 240.842 56.209 241.416 56.2793C241.99 56.3379 242.553 56.3965 243.104 56.4551V33.1641C242.541 33.2227 241.984 33.2871 241.434 33.3574C240.883 33.4277 240.332 33.5098 239.781 33.6035L239.641 32.9531ZM258.361 44.3965V43.9395C258.361 43.6465 258.35 43.2715 258.326 42.8145C258.303 42.3457 258.244 41.8301 258.15 41.2676C258.068 40.6934 257.939 40.0898 257.764 39.457C257.6 38.8242 257.371 38.2031 257.078 37.5938C256.797 36.9727 256.445 36.3867 256.023 35.8359C255.602 35.2734 255.092 34.7812 254.494 34.3594C253.896 33.9258 253.205 33.5859 252.42 33.3398C251.635 33.082 250.732 32.9531 249.713 32.9531V56.7539C250.803 56.7539 251.758 56.584 252.578 56.2441C253.398 55.8926 254.113 55.4355 254.723 54.873C255.332 54.3105 255.842 53.666 256.252 52.9395C256.674 52.2129 257.02 51.4688 257.289 50.707C257.559 49.9453 257.764 49.2012 257.904 48.4746C258.057 47.7363 258.162 47.0742 258.221 46.4883C258.291 45.9023 258.332 45.4219 258.344 45.0469C258.355 44.6602 258.361 44.4434 258.361 44.3965ZM289.791 56.8945C290.131 56.8945 290.535 56.8887 291.004 56.877C291.473 56.8652 291.977 56.8008 292.516 56.6836C293.055 56.5664 293.617 56.3789 294.203 56.1211C294.789 55.8633 295.369 55.4941 295.943 55.0137C296.529 54.5215 297.098 53.8945 297.648 53.1328C298.199 52.3711 298.709 51.4277 299.178 50.3027L299.758 50.5137C299.277 51.6621 298.756 52.6348 298.193 53.4316C297.643 54.2168 297.068 54.873 296.471 55.4004C295.885 55.916 295.293 56.3203 294.695 56.6133C294.098 56.9062 293.518 57.1172 292.955 57.2461C292.393 57.3867 291.859 57.4688 291.355 57.4922C290.863 57.5273 290.424 57.5449 290.037 57.5449C289.686 57.5449 289.234 57.5273 288.684 57.4922C288.145 57.4688 287.547 57.3984 286.891 57.2812C286.234 57.1641 285.543 56.9883 284.816 56.7539C284.102 56.5195 283.393 56.2031 282.689 55.8047C281.986 55.3945 281.318 54.8906 280.686 54.293C280.053 53.6836 279.496 52.9512 279.016 52.0957C278.535 51.2285 278.148 50.2207 277.855 49.0723C277.574 47.9238 277.434 46.6055 277.434 45.1172C277.434 43.2305 277.65 41.5957 278.084 40.2129C278.518 38.8184 279.092 37.6348 279.807 36.6621C280.533 35.6777 281.359 34.875 282.285 34.2539C283.211 33.6211 284.16 33.1289 285.133 32.7773C286.105 32.4141 287.066 32.1621 288.016 32.0215C288.965 31.8809 289.82 31.8047 290.582 31.793H290.828C292.281 31.793 293.6 31.9922 294.783 32.3906C295.979 32.7773 296.998 33.2988 297.842 33.9551C298.697 34.6113 299.354 35.3613 299.811 36.2051C300.279 37.0488 300.514 37.9219 300.514 38.8242C300.514 39.2578 300.432 39.6621 300.268 40.0371C300.104 40.4004 299.887 40.7168 299.617 40.9863C299.359 41.2559 299.055 41.4668 298.703 41.6191C298.352 41.7715 297.994 41.8477 297.631 41.8477C297.256 41.8359 296.875 41.7422 296.488 41.5664C296.113 41.3906 295.768 41.1445 295.451 40.8281C295.135 40.5117 294.859 40.125 294.625 39.668C294.402 39.2109 294.256 38.7012 294.186 38.1387L294.062 37.3125C293.992 36.7852 293.898 36.2402 293.781 35.6777C293.664 35.1035 293.482 34.5762 293.236 34.0957C293.002 33.6152 292.691 33.2227 292.305 32.918C291.918 32.6016 291.426 32.4434 290.828 32.4434H290.617C290.125 32.4785 289.621 32.6016 289.105 32.8125C288.59 33.0117 288.086 33.3281 287.594 33.7617C287.113 34.1836 286.65 34.7285 286.205 35.3965C285.771 36.0527 285.391 36.8496 285.062 37.7871C284.734 38.7129 284.471 39.7969 284.271 41.0391C284.084 42.2695 283.99 43.6641 283.99 45.2227C283.99 46.793 284.072 48.1699 284.236 49.3535C284.412 50.5254 284.641 51.5449 284.922 52.4121C285.215 53.2676 285.549 53.9824 285.924 54.5566C286.311 55.1191 286.709 55.5703 287.119 55.9102C287.541 56.25 287.963 56.4961 288.385 56.6484C288.807 56.8008 289.211 56.8828 289.598 56.8945H289.791ZM328.27 45.0469C328.27 46.2188 328.117 47.3438 327.812 48.4219C327.508 49.5 327.08 50.5137 326.529 51.4629C325.979 52.4004 325.316 53.2559 324.543 54.0293C323.77 54.8027 322.908 55.4648 321.959 56.0156C321.021 56.5664 320.014 56.9941 318.936 57.2988C317.857 57.6035 316.732 57.7559 315.561 57.7559C314.389 57.7559 313.258 57.6035 312.168 57.2988C311.078 56.9941 310.059 56.5664 309.109 56.0156C308.172 55.4648 307.316 54.8027 306.543 54.0293C305.77 53.2559 305.107 52.4004 304.557 51.4629C304.006 50.5137 303.578 49.5 303.273 48.4219C302.969 47.3438 302.816 46.2188 302.816 45.0469C302.816 43.8867 302.969 42.7734 303.273 41.707C303.578 40.6289 304.006 39.6211 304.557 38.6836C305.107 37.7344 305.77 36.873 306.543 36.0996C307.316 35.3262 308.172 34.6641 309.109 34.1133C310.059 33.5625 311.078 33.1348 312.168 32.8301C313.258 32.5254 314.389 32.373 315.561 32.373C316.732 32.373 317.857 32.5254 318.936 32.8301C320.014 33.1348 321.021 33.5625 321.959 34.1133C322.908 34.6641 323.77 35.3262 324.543 36.0996C325.316 36.873 325.979 37.7344 326.529 38.6836C327.08 39.6211 327.508 40.6289 327.812 41.707C328.117 42.7734 328.27 43.8867 328.27 45.0469ZM321.502 45.0469C321.502 43.0078 321.355 41.2383 321.062 39.7383C320.781 38.2266 320.377 36.9785 319.85 35.9941C319.334 34.998 318.707 34.2539 317.969 33.7617C317.242 33.2695 316.439 33.0234 315.561 33.0234C314.658 33.0234 313.838 33.293 313.1 33.832C312.373 34.3711 311.752 35.1562 311.236 36.1875C310.721 37.2188 310.322 38.4785 310.041 39.9668C309.76 41.4551 309.619 43.1484 309.619 45.0469C309.619 46.8867 309.76 48.5508 310.041 50.0391C310.322 51.5156 310.721 52.7812 311.236 53.8359C311.752 54.8789 312.373 55.6875 313.1 56.2617C313.838 56.8242 314.658 57.1055 315.561 57.1055C316.439 57.1055 317.242 56.8594 317.969 56.3672C318.707 55.875 319.334 55.1309 319.85 54.1348C320.377 53.1387 320.781 51.8848 321.062 50.373C321.355 48.8613 321.502 47.0859 321.502 45.0469ZM330.801 32.3027L339.326 32.1973L352.369 47.4199V33.0938L348.432 32.9531V32.3027L357.045 32.584V33.2344L353.002 33.0938L353.037 58.1953L335.336 38.3496L334.896 56.4199L338.781 56.3145V56.9648L330.221 57.1758V56.5254L334.246 56.4199L334.826 32.918L330.801 32.9531V32.3027ZM359.277 32.9531C359.758 32.8711 360.273 32.8008 360.824 32.7422C361.375 32.6719 361.938 32.6133 362.512 32.5664C363.098 32.5078 363.684 32.4609 364.27 32.4258C364.855 32.3789 365.412 32.3438 365.939 32.3203C367.182 32.2617 368.441 32.2207 369.719 32.1973C369.895 32.1738 370.105 32.1621 370.352 32.1621C370.598 32.1621 370.82 32.1621 371.02 32.1621C371.98 32.1621 372.982 32.2441 374.025 32.4082C375.068 32.5605 376.088 32.8242 377.084 33.1992C378.092 33.5742 379.041 34.0723 379.932 34.6934C380.834 35.3027 381.625 36.0645 382.305 36.9785C382.984 37.8926 383.523 38.9707 383.922 40.2129C384.32 41.4551 384.52 42.8848 384.52 44.502C384.52 45.7324 384.367 46.8574 384.062 47.877C383.758 48.8965 383.336 49.8281 382.797 50.6719C382.27 51.5039 381.648 52.2539 380.934 52.9219C380.219 53.5781 379.451 54.1582 378.631 54.6621C377.822 55.1543 376.984 55.582 376.117 55.9453C375.25 56.2969 374.389 56.584 373.533 56.8066C372.689 57.0293 371.875 57.1875 371.09 57.2812C370.305 57.3867 369.596 57.4395 368.963 57.4395C368.857 57.4395 368.746 57.4336 368.629 57.4219C368.523 57.4102 368.418 57.4043 368.312 57.4043C368.066 57.4043 367.639 57.3926 367.029 57.3691C366.432 57.3574 365.717 57.3223 364.885 57.2637C364.064 57.2168 363.162 57.1465 362.178 57.0527C361.205 56.959 360.227 56.8359 359.242 56.6836L359.312 56.0332C359.898 56.127 360.479 56.209 361.053 56.2793C361.627 56.3379 362.189 56.3965 362.74 56.4551V33.1641C362.178 33.2227 361.621 33.2871 361.07 33.3574C360.52 33.4277 359.969 33.5098 359.418 33.6035L359.277 32.9531ZM377.998 44.3965V43.9395C377.998 43.6465 377.986 43.2715 377.963 42.8145C377.939 42.3457 377.881 41.8301 377.787 41.2676C377.705 40.6934 377.576 40.0898 377.4 39.457C377.236 38.8242 377.008 38.2031 376.715 37.5938C376.434 36.9727 376.082 36.3867 375.66 35.8359C375.238 35.2734 374.729 34.7812 374.131 34.3594C373.533 33.9258 372.842 33.5859 372.057 33.3398C371.271 33.082 370.369 32.9531 369.35 32.9531V56.7539C370.439 56.7539 371.395 56.584 372.215 56.2441C373.035 55.8926 373.75 55.4355 374.359 54.873C374.969 54.3105 375.479 53.666 375.889 52.9395C376.311 52.2129 376.656 51.4688 376.926 50.707C377.195 49.9453 377.4 49.2012 377.541 48.4746C377.693 47.7363 377.799 47.0742 377.857 46.4883C377.928 45.9023 377.969 45.4219 377.98 45.0469C377.992 44.6602 377.998 44.4434 377.998 44.3965ZM386.682 56.4551H390.83L390.936 32.8477L386.436 32.707V32.0566L401.799 32.5137V33.1641L398.02 33.0586C398.008 33.2109 397.99 33.4805 397.967 33.8672C397.943 34.2539 397.92 34.8164 397.896 35.5547C397.873 36.293 397.838 37.2363 397.791 38.3848C397.756 39.5332 397.721 40.9512 397.686 42.6387C397.65 44.3145 397.609 46.2891 397.562 48.5625C397.516 50.8359 397.469 53.4668 397.422 56.4551H401.729V57.1055H386.682V56.4551ZM407.705 56.4199H411.801L411.906 32.918H411.555V32.9531C410.336 33.0469 409.234 33.4512 408.25 34.166C407.828 34.4707 407.418 34.8574 407.02 35.3262C406.621 35.7949 406.258 36.375 405.93 37.0664C405.613 37.7578 405.35 38.5664 405.139 39.4922C404.928 40.418 404.811 41.4902 404.787 42.709H404.137L404.418 32.0566L426.057 32.707L425.881 44.1152H425.23C425.242 42.6973 425.143 41.4551 424.932 40.3887C424.721 39.3223 424.434 38.4023 424.07 37.6289C423.707 36.8438 423.297 36.1934 422.84 35.6777C422.383 35.1504 421.92 34.7227 421.451 34.3945C420.982 34.0547 420.531 33.8027 420.098 33.6387C419.676 33.4629 419.312 33.3398 419.008 33.2695C418.984 33.5039 418.961 33.8496 418.938 34.3066C418.914 34.7637 418.885 35.3848 418.85 36.1699C418.826 36.9551 418.797 37.9336 418.762 39.1055C418.727 40.2656 418.686 41.666 418.639 43.3066C418.604 44.9473 418.562 46.8516 418.516 49.0195C418.48 51.1758 418.439 53.6426 418.393 56.4199H422.717V57.0703H407.705V56.4199ZM428.658 56.4551H432.807L432.912 32.8477L428.412 32.707V32.0566L443.775 32.5137V33.1641L439.996 33.0586C439.984 33.2109 439.967 33.4805 439.943 33.8672C439.92 34.2539 439.896 34.8164 439.873 35.5547C439.85 36.293 439.814 37.2363 439.768 38.3848C439.732 39.5332 439.697 40.9512 439.662 42.6387C439.627 44.3145 439.586 46.2891 439.539 48.5625C439.492 50.8359 439.445 53.4668 439.398 56.4551H443.705V57.1055H428.658V56.4551ZM471.391 45.0469C471.391 46.2188 471.238 47.3438 470.934 48.4219C470.629 49.5 470.201 50.5137 469.65 51.4629C469.1 52.4004 468.438 53.2559 467.664 54.0293C466.891 54.8027 466.029 55.4648 465.08 56.0156C464.143 56.5664 463.135 56.9941 462.057 57.2988C460.979 57.6035 459.854 57.7559 458.682 57.7559C457.51 57.7559 456.379 57.6035 455.289 57.2988C454.199 56.9941 453.18 56.5664 452.23 56.0156C451.293 55.4648 450.438 54.8027 449.664 54.0293C448.891 53.2559 448.229 52.4004 447.678 51.4629C447.127 50.5137 446.699 49.5 446.395 48.4219C446.09 47.3438 445.938 46.2188 445.938 45.0469C445.938 43.8867 446.09 42.7734 446.395 41.707C446.699 40.6289 447.127 39.6211 447.678 38.6836C448.229 37.7344 448.891 36.873 449.664 36.0996C450.438 35.3262 451.293 34.6641 452.23 34.1133C453.18 33.5625 454.199 33.1348 455.289 32.8301C456.379 32.5254 457.51 32.373 458.682 32.373C459.854 32.373 460.979 32.5254 462.057 32.8301C463.135 33.1348 464.143 33.5625 465.08 34.1133C466.029 34.6641 466.891 35.3262 467.664 36.0996C468.438 36.873 469.1 37.7344 469.65 38.6836C470.201 39.6211 470.629 40.6289 470.934 41.707C471.238 42.7734 471.391 43.8867 471.391 45.0469ZM464.623 45.0469C464.623 43.0078 464.477 41.2383 464.184 39.7383C463.902 38.2266 463.498 36.9785 462.971 35.9941C462.455 34.998 461.828 34.2539 461.09 33.7617C460.363 33.2695 459.561 33.0234 458.682 33.0234C457.779 33.0234 456.959 33.293 456.221 33.832C455.494 34.3711 454.873 35.1562 454.357 36.1875C453.842 37.2188 453.443 38.4785 453.162 39.9668C452.881 41.4551 452.74 43.1484 452.74 45.0469C452.74 46.8867 452.881 48.5508 453.162 50.0391C453.443 51.5156 453.842 52.7812 454.357 53.8359C454.873 54.8789 455.494 55.6875 456.221 56.2617C456.959 56.8242 457.779 57.1055 458.682 57.1055C459.561 57.1055 460.363 56.8594 461.09 56.3672C461.828 55.875 462.455 55.1309 462.971 54.1348C463.498 53.1387 463.902 51.8848 464.184 50.373C464.477 48.8613 464.623 47.0859 464.623 45.0469ZM473.922 32.3027L482.447 32.1973L495.49 47.4199V33.0938L491.553 32.9531V32.3027L500.166 32.584V33.2344L496.123 33.0938L496.158 58.1953L478.457 38.3496L478.018 56.4199L481.902 56.3145V56.9648L473.342 57.1758V56.5254L477.367 56.4199L477.947 32.918L473.922 32.9531V32.3027ZM513.49 42.9902C515.307 43.1895 516.848 43.5234 518.113 43.9922C519.379 44.4609 520.404 45.0234 521.189 45.6797C521.986 46.3242 522.561 47.0449 522.912 47.8418C523.275 48.627 523.457 49.4473 523.457 50.3027C523.457 51.2871 523.299 52.1543 522.982 52.9043C522.666 53.6543 522.244 54.3164 521.717 54.8906C521.201 55.4531 520.604 55.9277 519.924 56.3145C519.256 56.7012 518.564 57.0117 517.85 57.2461C517.146 57.4922 516.449 57.668 515.758 57.7734C515.066 57.8906 514.445 57.9551 513.895 57.9668H513.455C512.869 57.9551 512.195 57.9023 511.434 57.8086C510.684 57.7266 509.91 57.5918 509.113 57.4043C508.328 57.2168 507.555 56.9766 506.793 56.6836C506.031 56.3789 505.352 56.0039 504.754 55.5586C504.156 55.1133 503.676 54.5859 503.312 53.9766C502.949 53.3672 502.768 52.6582 502.768 51.8496C502.768 51.416 502.838 51.0352 502.979 50.707C503.119 50.3789 503.312 50.1035 503.559 49.8809C503.805 49.6465 504.086 49.4648 504.402 49.3359C504.73 49.207 505.082 49.1309 505.457 49.1074C505.914 49.1074 506.336 49.207 506.723 49.4062C507.121 49.5938 507.467 49.8633 507.76 50.2148C508.053 50.5547 508.287 50.9707 508.463 51.4629C508.65 51.9434 508.756 52.4824 508.779 53.0801C508.803 53.5605 508.914 54.0527 509.113 54.5566C509.312 55.0605 509.605 55.5176 509.992 55.9277C510.379 56.3379 510.859 56.6719 511.434 56.9297C512.008 57.1875 512.682 57.3164 513.455 57.3164C514.064 57.3164 514.615 57.1934 515.107 56.9473C515.611 56.7012 516.039 56.373 516.391 55.9629C516.742 55.5527 517.012 55.0781 517.199 54.5391C517.387 53.9883 517.48 53.4141 517.48 52.8164C517.48 52.2773 517.387 51.7441 517.199 51.2168C517.012 50.6895 516.719 50.2207 516.32 49.8105C515.922 49.3887 515.412 49.043 514.791 48.7734C514.17 48.5039 513.426 48.3516 512.559 48.3164C510.789 48.2344 509.277 47.9707 508.023 47.5254C506.781 47.0801 505.762 46.5059 504.965 45.8027C504.168 45.0879 503.582 44.2734 503.207 43.3594C502.844 42.4453 502.662 41.4844 502.662 40.4766C502.662 39.3867 502.826 38.4316 503.154 37.6113C503.482 36.7793 503.916 36.0645 504.455 35.4668C505.006 34.8574 505.633 34.3535 506.336 33.9551C507.039 33.5449 507.766 33.2168 508.516 32.9707C509.277 32.7246 510.027 32.5547 510.766 32.4609C511.516 32.3555 512.207 32.3027 512.84 32.3027H513.051C513.637 32.3145 514.287 32.3672 515.002 32.4609C515.729 32.543 516.461 32.6777 517.199 32.8652C517.949 33.0527 518.67 33.2988 519.361 33.6035C520.064 33.9082 520.686 34.2832 521.225 34.7285C521.775 35.1738 522.215 35.7012 522.543 36.3105C522.871 36.9082 523.035 37.5996 523.035 38.3848C523.035 38.8418 522.959 39.2402 522.807 39.5801C522.654 39.9199 522.449 40.207 522.191 40.4414C521.945 40.6641 521.652 40.834 521.312 40.9512C520.973 41.0684 520.621 41.127 520.258 41.127C519.812 41.127 519.396 41.0273 519.01 40.8281C518.623 40.6289 518.283 40.3535 517.99 40.002C517.709 39.6504 517.48 39.2344 517.305 38.7539C517.141 38.2617 517.059 37.7227 517.059 37.1367C517.059 36.6328 516.994 36.1348 516.865 35.6426C516.736 35.1504 516.514 34.7109 516.197 34.3242C515.893 33.9258 515.482 33.6035 514.967 33.3574C514.451 33.1113 513.812 32.9766 513.051 32.9531H512.875C512.301 32.9766 511.768 33.1465 511.275 33.4629C510.795 33.7676 510.379 34.1719 510.027 34.6758C509.676 35.1797 509.4 35.748 509.201 36.3809C509.014 37.002 508.92 37.6348 508.92 38.2793C508.92 38.8418 509.002 39.3867 509.166 39.9141C509.342 40.4414 509.611 40.9219 509.975 41.3555C510.35 41.7773 510.824 42.1348 511.398 42.4277C511.973 42.7207 512.67 42.9082 513.49 42.9902Z" fill="black"/>
<defs>
<linearGradient id="paint0_linear_4841_303" x1="91.205" y1="84.4122" x2="92.411" y2="-44.4609" gradientUnits="userSpaceOnUse">
<stop offset="0.102848" stop-color="#F0C74B"/>
<stop offset="0.376053" stop-color="#A00A0A"/>
<stop offset="1" stop-color="#990303"/>
</linearGradient>
</defs>
</svg>
