<svg width="314" height="93" viewBox="0 0 314 93" fill="none" xmlns="http://www.w3.org/2000/svg">
<path d="M0 0H139V4.5H12.7381V46.7095V68.7027V89.1667H48V93H0V0Z" fill="url(#paint0_linear_4841_343)"/>
<path d="M41.9395 56.4199H46.0352L46.1406 32.918H45.7891V32.9531C44.5703 33.0469 43.4688 33.4512 42.4844 34.166C42.0625 34.4707 41.6523 34.8574 41.2539 35.3262C40.8555 35.7949 40.4922 36.375 40.1641 37.0664C39.8477 37.7578 39.584 38.5664 39.373 39.4922C39.1621 40.418 39.0449 41.4902 39.0215 42.709H38.3711L38.6523 32.0566L60.291 32.707L60.1152 44.1152H59.4648C59.4766 42.6973 59.377 41.4551 59.166 40.3887C58.9551 39.3223 58.668 38.4023 58.3047 37.6289C57.9414 36.8438 57.5312 36.1934 57.0742 35.6777C56.6172 35.1504 56.1543 34.7227 55.6855 34.3945C55.2168 34.0547 54.7656 33.8027 54.332 33.6387C53.9102 33.4629 53.5469 33.3398 53.2422 33.2695C53.2188 33.5039 53.1953 33.8496 53.1719 34.3066C53.1484 34.7637 53.1191 35.3848 53.084 36.1699C53.0605 36.9551 53.0312 37.9336 52.9961 39.1055C52.9609 40.2656 52.9199 41.666 52.873 43.3066C52.8379 44.9473 52.7969 46.8516 52.75 49.0195C52.7148 51.1758 52.6738 53.6426 52.627 56.4199H56.9512V57.0703H41.9395V56.4199ZM62.7871 32.2676L84.1094 32.2324L83.916 44.7656H83.2656C83.2891 43.2891 83.2012 41.9883 83.002 40.8633C82.8145 39.7266 82.5566 38.7422 82.2285 37.9102C81.9121 37.0781 81.543 36.3809 81.1211 35.8184C80.6992 35.2441 80.2656 34.7695 79.8203 34.3945C79.375 34.0195 78.9355 33.7324 78.502 33.5332C78.0801 33.334 77.6992 33.1875 77.3594 33.0938C77.0312 33 76.7617 32.9414 76.5508 32.918C76.3516 32.8945 76.252 32.8828 76.252 32.8828C75.9121 32.8828 75.5605 32.8887 75.1973 32.9004C74.8457 32.9121 74.5 32.918 74.1602 32.918C74.1484 33.0586 74.1309 33.3574 74.1074 33.8145C74.0957 34.2715 74.0723 34.957 74.0371 35.8711C74.002 36.7734 73.9609 37.9453 73.9141 39.3867C73.8672 40.8164 73.8203 42.5742 73.7734 44.6602C73.8789 44.6484 74.0781 44.6309 74.3711 44.6074C74.6758 44.584 75.0156 44.5195 75.3906 44.4141C75.7773 44.2969 76.1758 44.1211 76.5859 43.8867C76.9961 43.6406 77.3711 43.3008 77.7109 42.8672C78.0508 42.4219 78.3262 41.8594 78.5371 41.1797C78.7598 40.5 78.8652 39.668 78.8535 38.6836H79.4863H78.8535H79.4863L79.3105 52.0957H78.6602C78.625 50.9473 78.4785 49.8984 78.2207 48.9492C78.1152 48.5508 77.9746 48.1523 77.7988 47.7539C77.623 47.3555 77.4121 46.9922 77.166 46.6641C76.9199 46.3242 76.627 46.0371 76.2871 45.8027C75.9473 45.5684 75.5547 45.4102 75.1094 45.3281L73.7734 45.293L73.5625 56.3848H78.1328C78.3906 56.3613 78.7422 56.2969 79.1875 56.1914C79.6328 56.0859 80.1074 55.9102 80.6113 55.6641C81.127 55.418 81.6484 55.084 82.1758 54.6621C82.7031 54.2402 83.1836 53.6953 83.6172 53.0273C84.0625 52.3477 84.4258 51.5332 84.707 50.584C85 49.623 85.1699 48.4863 85.2168 47.1738H85.8672L85.5859 57.0352H62.8223V56.3848H66.9707L67.0762 32.918H62.7871V32.2676ZM100.404 42.9902C102.221 43.1895 103.762 43.5234 105.027 43.9922C106.293 44.4609 107.318 45.0234 108.104 45.6797C108.9 46.3242 109.475 47.0449 109.826 47.8418C110.189 48.627 110.371 49.4473 110.371 50.3027C110.371 51.2871 110.213 52.1543 109.896 52.9043C109.58 53.6543 109.158 54.3164 108.631 54.8906C108.115 55.4531 107.518 55.9277 106.838 56.3145C106.17 56.7012 105.479 57.0117 104.764 57.2461C104.061 57.4922 103.363 57.668 102.672 57.7734C101.98 57.8906 101.359 57.9551 100.809 57.9668H100.369C99.7832 57.9551 99.1094 57.9023 98.3477 57.8086C97.5977 57.7266 96.8242 57.5918 96.0273 57.4043C95.2422 57.2168 94.4688 56.9766 93.707 56.6836C92.9453 56.3789 92.2656 56.0039 91.668 55.5586C91.0703 55.1133 90.5898 54.5859 90.2266 53.9766C89.8633 53.3672 89.6816 52.6582 89.6816 51.8496C89.6816 51.416 89.752 51.0352 89.8926 50.707C90.0332 50.3789 90.2266 50.1035 90.4727 49.8809C90.7188 49.6465 91 49.4648 91.3164 49.3359C91.6445 49.207 91.9961 49.1309 92.3711 49.1074C92.8281 49.1074 93.25 49.207 93.6367 49.4062C94.0352 49.5938 94.3809 49.8633 94.6738 50.2148C94.9668 50.5547 95.2012 50.9707 95.377 51.4629C95.5645 51.9434 95.6699 52.4824 95.6934 53.0801C95.7168 53.5605 95.8281 54.0527 96.0273 54.5566C96.2266 55.0605 96.5195 55.5176 96.9062 55.9277C97.293 56.3379 97.7734 56.6719 98.3477 56.9297C98.9219 57.1875 99.5957 57.3164 100.369 57.3164C100.979 57.3164 101.529 57.1934 102.021 56.9473C102.525 56.7012 102.953 56.373 103.305 55.9629C103.656 55.5527 103.926 55.0781 104.113 54.5391C104.301 53.9883 104.395 53.4141 104.395 52.8164C104.395 52.2773 104.301 51.7441 104.113 51.2168C103.926 50.6895 103.633 50.2207 103.234 49.8105C102.836 49.3887 102.326 49.043 101.705 48.7734C101.084 48.5039 100.34 48.3516 99.4727 48.3164C97.7031 48.2344 96.1914 47.9707 94.9375 47.5254C93.6953 47.0801 92.6758 46.5059 91.8789 45.8027C91.082 45.0879 90.4961 44.2734 90.1211 43.3594C89.7578 42.4453 89.5762 41.4844 89.5762 40.4766C89.5762 39.3867 89.7402 38.4316 90.0684 37.6113C90.3965 36.7793 90.8301 36.0645 91.3691 35.4668C91.9199 34.8574 92.5469 34.3535 93.25 33.9551C93.9531 33.5449 94.6797 33.2168 95.4297 32.9707C96.1914 32.7246 96.9414 32.5547 97.6797 32.4609C98.4297 32.3555 99.1211 32.3027 99.7539 32.3027H99.9648C100.551 32.3145 101.201 32.3672 101.916 32.4609C102.643 32.543 103.375 32.6777 104.113 32.8652C104.863 33.0527 105.584 33.2988 106.275 33.6035C106.979 33.9082 107.6 34.2832 108.139 34.7285C108.689 35.1738 109.129 35.7012 109.457 36.3105C109.785 36.9082 109.949 37.5996 109.949 38.3848C109.949 38.8418 109.873 39.2402 109.721 39.5801C109.568 39.9199 109.363 40.207 109.105 40.4414C108.859 40.6641 108.566 40.834 108.227 40.9512C107.887 41.0684 107.535 41.127 107.172 41.127C106.727 41.127 106.311 41.0273 105.924 40.8281C105.537 40.6289 105.197 40.3535 104.904 40.002C104.623 39.6504 104.395 39.2344 104.219 38.7539C104.055 38.2617 103.973 37.7227 103.973 37.1367C103.973 36.6328 103.908 36.1348 103.779 35.6426C103.65 35.1504 103.428 34.7109 103.111 34.3242C102.807 33.9258 102.396 33.6035 101.881 33.3574C101.365 33.1113 100.727 32.9766 99.9648 32.9531H99.7891C99.2148 32.9766 98.6816 33.1465 98.1895 33.4629C97.709 33.7676 97.293 34.1719 96.9414 34.6758C96.5898 35.1797 96.3145 35.748 96.1152 36.3809C95.9277 37.002 95.834 37.6348 95.834 38.2793C95.834 38.8418 95.916 39.3867 96.0801 39.9141C96.2559 40.4414 96.5254 40.9219 96.8887 41.3555C97.2637 41.7773 97.7383 42.1348 98.3125 42.4277C98.8867 42.7207 99.584 42.9082 100.404 42.9902ZM117.033 56.4199H121.129L121.234 32.918H120.883V32.9531C119.664 33.0469 118.562 33.4512 117.578 34.166C117.156 34.4707 116.746 34.8574 116.348 35.3262C115.949 35.7949 115.586 36.375 115.258 37.0664C114.941 37.7578 114.678 38.5664 114.467 39.4922C114.256 40.418 114.139 41.4902 114.115 42.709H113.465L113.746 32.0566L135.385 32.707L135.209 44.1152H134.559C134.57 42.6973 134.471 41.4551 134.26 40.3887C134.049 39.3223 133.762 38.4023 133.398 37.6289C133.035 36.8438 132.625 36.1934 132.168 35.6777C131.711 35.1504 131.248 34.7227 130.779 34.3945C130.311 34.0547 129.859 33.8027 129.426 33.6387C129.004 33.4629 128.641 33.3398 128.336 33.2695C128.312 33.5039 128.289 33.8496 128.266 34.3066C128.242 34.7637 128.213 35.3848 128.178 36.1699C128.154 36.9551 128.125 37.9336 128.09 39.1055C128.055 40.2656 128.014 41.666 127.967 43.3066C127.932 44.9473 127.891 46.8516 127.844 49.0195C127.809 51.1758 127.768 53.6426 127.721 56.4199H132.045V57.0703H117.033V56.4199ZM137.986 56.4551H142.135L142.24 32.8477L137.74 32.707V32.0566L153.104 32.5137V33.1641L149.324 33.0586C149.312 33.2109 149.295 33.4805 149.271 33.8672C149.248 34.2539 149.225 34.8164 149.201 35.5547C149.178 36.293 149.143 37.2363 149.096 38.3848C149.061 39.5332 149.025 40.9512 148.99 42.6387C148.955 44.3145 148.914 46.2891 148.867 48.5625C148.82 50.8359 148.773 53.4668 148.727 56.4551H153.033V57.1055H137.986V56.4551ZM154.967 56.3145L159.045 56.2793L159.396 32.7422L154.861 32.6719V32.0215L164.266 32.127L172.58 48.3164L178.398 32.1973L188.664 32.3027V32.9531L185.025 32.918C185.014 33.0234 184.996 33.2461 184.973 33.5859C184.961 33.9141 184.938 34.4297 184.902 35.1328C184.879 35.8359 184.85 36.7559 184.814 37.8926C184.779 39.0293 184.738 40.4531 184.691 42.1641C184.645 43.8633 184.598 45.8848 184.551 48.2285C184.504 50.5723 184.457 53.3027 184.41 56.4199H188.734V57.0703H173.688V56.4199H177.836L178.258 34.4297L169.908 57.4395L159.941 38.2793L159.678 56.2793L163.58 56.2441V56.8945L154.967 56.9648V56.3145ZM216.438 45.0469C216.438 46.2188 216.285 47.3438 215.98 48.4219C215.676 49.5 215.248 50.5137 214.697 51.4629C214.146 52.4004 213.484 53.2559 212.711 54.0293C211.938 54.8027 211.076 55.4648 210.127 56.0156C209.189 56.5664 208.182 56.9941 207.104 57.2988C206.025 57.6035 204.9 57.7559 203.729 57.7559C202.557 57.7559 201.426 57.6035 200.336 57.2988C199.246 56.9941 198.227 56.5664 197.277 56.0156C196.34 55.4648 195.484 54.8027 194.711 54.0293C193.938 53.2559 193.275 52.4004 192.725 51.4629C192.174 50.5137 191.746 49.5 191.441 48.4219C191.137 47.3438 190.984 46.2188 190.984 45.0469C190.984 43.8867 191.137 42.7734 191.441 41.707C191.746 40.6289 192.174 39.6211 192.725 38.6836C193.275 37.7344 193.938 36.873 194.711 36.0996C195.484 35.3262 196.34 34.6641 197.277 34.1133C198.227 33.5625 199.246 33.1348 200.336 32.8301C201.426 32.5254 202.557 32.373 203.729 32.373C204.9 32.373 206.025 32.5254 207.104 32.8301C208.182 33.1348 209.189 33.5625 210.127 34.1133C211.076 34.6641 211.938 35.3262 212.711 36.0996C213.484 36.873 214.146 37.7344 214.697 38.6836C215.248 39.6211 215.676 40.6289 215.98 41.707C216.285 42.7734 216.438 43.8867 216.438 45.0469ZM209.67 45.0469C209.67 43.0078 209.523 41.2383 209.23 39.7383C208.949 38.2266 208.545 36.9785 208.018 35.9941C207.502 34.998 206.875 34.2539 206.137 33.7617C205.41 33.2695 204.607 33.0234 203.729 33.0234C202.826 33.0234 202.006 33.293 201.268 33.832C200.541 34.3711 199.92 35.1562 199.404 36.1875C198.889 37.2188 198.49 38.4785 198.209 39.9668C197.928 41.4551 197.787 43.1484 197.787 45.0469C197.787 46.8867 197.928 48.5508 198.209 50.0391C198.49 51.5156 198.889 52.7812 199.404 53.8359C199.92 54.8789 200.541 55.6875 201.268 56.2617C202.006 56.8242 202.826 57.1055 203.729 57.1055C204.607 57.1055 205.41 56.8594 206.137 56.3672C206.875 55.875 207.502 55.1309 208.018 54.1348C208.545 53.1387 208.949 51.8848 209.23 50.373C209.523 48.8613 209.67 47.0859 209.67 45.0469ZM218.969 32.3027L227.494 32.1973L240.537 47.4199V33.0938L236.6 32.9531V32.3027L245.213 32.584V33.2344L241.17 33.0938L241.205 58.1953L223.504 38.3496L223.064 56.4199L226.949 56.3145V56.9648L218.389 57.1758V56.5254L222.414 56.4199L222.994 32.918L218.969 32.9531V32.3027ZM246.971 56.4551H251.119L251.225 32.8477L246.725 32.707V32.0566L262.088 32.5137V33.1641L258.309 33.0586C258.297 33.2109 258.279 33.4805 258.256 33.8672C258.232 34.2539 258.209 34.8164 258.186 35.5547C258.162 36.293 258.127 37.2363 258.08 38.3848C258.045 39.5332 258.01 40.9512 257.975 42.6387C257.939 44.3145 257.898 46.2891 257.852 48.5625C257.805 50.8359 257.758 53.4668 257.711 56.4551H262.018V57.1055H246.971V56.4551ZM263.916 32.2676L285.238 32.2324L285.045 44.7656H284.395C284.418 43.2891 284.33 41.9883 284.131 40.8633C283.943 39.7266 283.686 38.7422 283.357 37.9102C283.041 37.0781 282.672 36.3809 282.25 35.8184C281.828 35.2441 281.395 34.7695 280.949 34.3945C280.504 34.0195 280.064 33.7324 279.631 33.5332C279.209 33.334 278.828 33.1875 278.488 33.0938C278.16 33 277.891 32.9414 277.68 32.918C277.48 32.8945 277.381 32.8828 277.381 32.8828C277.041 32.8828 276.689 32.8887 276.326 32.9004C275.975 32.9121 275.629 32.918 275.289 32.918C275.277 33.0586 275.26 33.3574 275.236 33.8145C275.225 34.2715 275.201 34.957 275.166 35.8711C275.131 36.7734 275.09 37.9453 275.043 39.3867C274.996 40.8164 274.949 42.5742 274.902 44.6602C275.008 44.6484 275.207 44.6309 275.5 44.6074C275.805 44.584 276.145 44.5195 276.52 44.4141C276.906 44.2969 277.305 44.1211 277.715 43.8867C278.125 43.6406 278.5 43.3008 278.84 42.8672C279.18 42.4219 279.455 41.8594 279.666 41.1797C279.889 40.5 279.994 39.668 279.982 38.6836H280.615H279.982H280.615L280.439 52.0957H279.789C279.754 50.9473 279.607 49.8984 279.35 48.9492C279.244 48.5508 279.104 48.1523 278.928 47.7539C278.752 47.3555 278.541 46.9922 278.295 46.6641C278.049 46.3242 277.756 46.0371 277.416 45.8027C277.076 45.5684 276.684 45.4102 276.238 45.3281L274.902 45.293L274.691 56.3848H279.262C279.52 56.3613 279.871 56.2969 280.316 56.1914C280.762 56.0859 281.236 55.9102 281.74 55.6641C282.256 55.418 282.777 55.084 283.305 54.6621C283.832 54.2402 284.312 53.6953 284.746 53.0273C285.191 52.3477 285.555 51.5332 285.836 50.584C286.129 49.623 286.299 48.4863 286.346 47.1738H286.996L286.715 57.0352H263.951V56.3848H268.1L268.205 32.918H263.916V32.2676ZM301.533 42.9902C303.35 43.1895 304.891 43.5234 306.156 43.9922C307.422 44.4609 308.447 45.0234 309.232 45.6797C310.029 46.3242 310.604 47.0449 310.955 47.8418C311.318 48.627 311.5 49.4473 311.5 50.3027C311.5 51.2871 311.342 52.1543 311.025 52.9043C310.709 53.6543 310.287 54.3164 309.76 54.8906C309.244 55.4531 308.646 55.9277 307.967 56.3145C307.299 56.7012 306.607 57.0117 305.893 57.2461C305.189 57.4922 304.492 57.668 303.801 57.7734C303.109 57.8906 302.488 57.9551 301.938 57.9668H301.498C300.912 57.9551 300.238 57.9023 299.477 57.8086C298.727 57.7266 297.953 57.5918 297.156 57.4043C296.371 57.2168 295.598 56.9766 294.836 56.6836C294.074 56.3789 293.395 56.0039 292.797 55.5586C292.199 55.1133 291.719 54.5859 291.355 53.9766C290.992 53.3672 290.811 52.6582 290.811 51.8496C290.811 51.416 290.881 51.0352 291.021 50.707C291.162 50.3789 291.355 50.1035 291.602 49.8809C291.848 49.6465 292.129 49.4648 292.445 49.3359C292.773 49.207 293.125 49.1309 293.5 49.1074C293.957 49.1074 294.379 49.207 294.766 49.4062C295.164 49.5938 295.51 49.8633 295.803 50.2148C296.096 50.5547 296.33 50.9707 296.506 51.4629C296.693 51.9434 296.799 52.4824 296.822 53.0801C296.846 53.5605 296.957 54.0527 297.156 54.5566C297.355 55.0605 297.648 55.5176 298.035 55.9277C298.422 56.3379 298.902 56.6719 299.477 56.9297C300.051 57.1875 300.725 57.3164 301.498 57.3164C302.107 57.3164 302.658 57.1934 303.15 56.9473C303.654 56.7012 304.082 56.373 304.434 55.9629C304.785 55.5527 305.055 55.0781 305.242 54.5391C305.43 53.9883 305.523 53.4141 305.523 52.8164C305.523 52.2773 305.43 51.7441 305.242 51.2168C305.055 50.6895 304.762 50.2207 304.363 49.8105C303.965 49.3887 303.455 49.043 302.834 48.7734C302.213 48.5039 301.469 48.3516 300.602 48.3164C298.832 48.2344 297.32 47.9707 296.066 47.5254C294.824 47.0801 293.805 46.5059 293.008 45.8027C292.211 45.0879 291.625 44.2734 291.25 43.3594C290.887 42.4453 290.705 41.4844 290.705 40.4766C290.705 39.3867 290.869 38.4316 291.197 37.6113C291.525 36.7793 291.959 36.0645 292.498 35.4668C293.049 34.8574 293.676 34.3535 294.379 33.9551C295.082 33.5449 295.809 33.2168 296.559 32.9707C297.32 32.7246 298.07 32.5547 298.809 32.4609C299.559 32.3555 300.25 32.3027 300.883 32.3027H301.094C301.68 32.3145 302.33 32.3672 303.045 32.4609C303.771 32.543 304.504 32.6777 305.242 32.8652C305.992 33.0527 306.713 33.2988 307.404 33.6035C308.107 33.9082 308.729 34.2832 309.268 34.7285C309.818 35.1738 310.258 35.7012 310.586 36.3105C310.914 36.9082 311.078 37.5996 311.078 38.3848C311.078 38.8418 311.002 39.2402 310.85 39.5801C310.697 39.9199 310.492 40.207 310.234 40.4414C309.988 40.6641 309.695 40.834 309.355 40.9512C309.016 41.0684 308.664 41.127 308.301 41.127C307.855 41.127 307.439 41.0273 307.053 40.8281C306.666 40.6289 306.326 40.3535 306.033 40.002C305.752 39.6504 305.523 39.2344 305.348 38.7539C305.184 38.2617 305.102 37.7227 305.102 37.1367C305.102 36.6328 305.037 36.1348 304.908 35.6426C304.779 35.1504 304.557 34.7109 304.24 34.3242C303.936 33.9258 303.525 33.6035 303.01 33.3574C302.494 33.1113 301.855 32.9766 301.094 32.9531H300.918C300.344 32.9766 299.811 33.1465 299.318 33.4629C298.838 33.7676 298.422 34.1719 298.07 34.6758C297.719 35.1797 297.443 35.748 297.244 36.3809C297.057 37.002 296.963 37.6348 296.963 38.2793C296.963 38.8418 297.045 39.3867 297.209 39.9141C297.385 40.4414 297.654 40.9219 298.018 41.3555C298.393 41.7773 298.867 42.1348 299.441 42.4277C300.016 42.7207 300.713 42.9082 301.533 42.9902Z" fill="black"/>
<defs>
<linearGradient id="paint0_linear_4841_343" x1="91.205" y1="84.4122" x2="92.411" y2="-44.4609" gradientUnits="userSpaceOnUse">
<stop offset="0.102848" stop-color="#F0C74B"/>
<stop offset="0.376053" stop-color="#A00A0A"/>
<stop offset="1" stop-color="#990303"/>
</linearGradient>
</defs>
</svg>
